M48
; DRILL file {KiCad 5.1.3-ffb9f22~84~ubuntu18.04.1} date Fri 09 Aug 2019 10:55:07 PM EEST
; FORMAT={-:-/ absolute / inch / decimal}
; #@! TF.CreationDate,2019-08-09T22:55:07+03:00
; #@! TF.GenerationSoftware,Kicad,Pcbnew,5.1.3-ffb9f22~84~ubuntu18.04.1
FMAT,2
INCH
T1C0.0276
T2C0.0354
T3C0.0394
T4C0.0433
T5C0.0512
T6C0.0598
T7C0.1260
%
G90
G05
T1
X5.52Y-4.12
X5.72Y-4.12
T2
X5.2Y-3.66
X5.2Y-3.76
T3
X6.04Y-4.32
X6.14Y-4.32
X6.24Y-4.32
X6.34Y-4.32
X6.44Y-4.32
X6.54Y-4.32
X6.64Y-4.32
X6.74Y-4.32
X6.84Y-4.32
X6.94Y-4.32
X7.04Y-4.32
X7.14Y-4.32
X7.24Y-4.32
X7.34Y-4.32
X7.44Y-4.32
X6.04Y-2.9
X6.14Y-2.9
X6.24Y-2.9
X6.34Y-2.9
X6.44Y-2.9
X6.54Y-2.9
X6.64Y-2.9
X6.74Y-2.9
X6.84Y-2.9
X6.94Y-2.9
X7.04Y-2.9
X7.14Y-2.9
X7.24Y-2.9
X7.34Y-2.9
X7.44Y-2.9
X4.9327Y-4.12
X5.0327Y-4.12
X5.1327Y-4.12
X5.2327Y-4.12
X6.0364Y-3.112
X6.0364Y-3.112
X6.0404Y-4.1238
X6.0404Y-4.1238
X6.1364Y-3.112
X6.1364Y-3.112
X6.1404Y-4.1238
X6.1404Y-4.1238
X6.2364Y-3.112
X6.2364Y-3.112
X6.2404Y-4.1238
X6.2404Y-4.1238
X6.3364Y-3.112
X6.3364Y-3.112
X6.3404Y-4.1238
X6.3404Y-4.1238
X6.4364Y-3.112
X6.4364Y-3.112
X6.4404Y-4.1238
X6.4404Y-4.1238
X6.5364Y-3.112
X6.5364Y-3.112
X6.5404Y-4.1238
X6.5404Y-4.1238
X6.6364Y-3.112
X6.6364Y-3.112
X6.6404Y-4.1238
X6.6404Y-4.1238
X6.7364Y-3.112
X6.7364Y-3.112
X6.7404Y-4.1238
X6.7404Y-4.1238
X6.8364Y-3.112
X6.8364Y-3.112
X6.8404Y-4.1238
X6.8404Y-4.1238
X6.9364Y-3.112
X6.9364Y-3.112
X6.9404Y-4.1238
X6.9404Y-4.1238
X7.0364Y-3.112
X7.0364Y-3.112
X7.0404Y-4.1238
X7.0404Y-4.1238
X7.1364Y-3.112
X7.1364Y-3.112
X7.1404Y-4.1238
X7.1404Y-4.1238
X7.2364Y-3.112
X7.2364Y-3.112
X7.2404Y-4.1238
X7.2404Y-4.1238
X7.3364Y-3.112
X7.3364Y-3.112
X7.3404Y-4.1238
X7.3404Y-4.1238
X7.4364Y-3.112
X7.4364Y-3.112
X7.4404Y-4.1238
X7.4404Y-4.1238
T4
X5.6Y-3.6597
X5.6Y-3.7498
X5.6Y-3.84
T5
X5.22Y-3.14
X5.22Y-3.3369
X5.7121Y-3.14
X5.7121Y-3.3369
T6
X5.35Y-2.82
X5.55Y-2.82
T7
X4.985Y-2.835
X7.84Y-4.55
X4.985Y-4.54
X7.85Y-2.845
T0
M30
