G04 #@! TF.GenerationSoftware,KiCad,Pcbnew,(5.1.2)-1*
G04 #@! TF.CreationDate,2019-06-12T21:15:56+03:00*
G04 #@! TF.ProjectId,esp32-ac-board,65737033-322d-4616-932d-626f6172642e,rev?*
G04 #@! TF.SameCoordinates,Original*
G04 #@! TF.FileFunction,Legend,Top*
G04 #@! TF.FilePolarity,Positive*
%FSLAX46Y46*%
G04 Gerber Fmt 4.6, Leading zero omitted, Abs format (unit mm)*
G04 Created by KiCad (PCBNEW (5.1.2)-1) date 2019-06-12 21:15:56*
%MOMM*%
%LPD*%
G04 APERTURE LIST*
%ADD10C,0.150000*%
%ADD11C,0.010000*%
%ADD12C,0.120000*%
G04 APERTURE END LIST*
D10*
X128143095Y-79383000D02*
X128047857Y-79335380D01*
X127905000Y-79335380D01*
X127762142Y-79383000D01*
X127666904Y-79478238D01*
X127619285Y-79573476D01*
X127571666Y-79763952D01*
X127571666Y-79906809D01*
X127619285Y-80097285D01*
X127666904Y-80192523D01*
X127762142Y-80287761D01*
X127905000Y-80335380D01*
X128000238Y-80335380D01*
X128143095Y-80287761D01*
X128190714Y-80240142D01*
X128190714Y-79906809D01*
X128000238Y-79906809D01*
X128619285Y-80335380D02*
X128619285Y-79335380D01*
X129190714Y-80335380D01*
X129190714Y-79335380D01*
X129666904Y-80335380D02*
X129666904Y-79335380D01*
X129905000Y-79335380D01*
X130047857Y-79383000D01*
X130143095Y-79478238D01*
X130190714Y-79573476D01*
X130238333Y-79763952D01*
X130238333Y-79906809D01*
X130190714Y-80097285D01*
X130143095Y-80192523D01*
X130047857Y-80287761D01*
X129905000Y-80335380D01*
X129666904Y-80335380D01*
X128071666Y-84891571D02*
X128214523Y-84939190D01*
X128262142Y-84986809D01*
X128309761Y-85082047D01*
X128309761Y-85224904D01*
X128262142Y-85320142D01*
X128214523Y-85367761D01*
X128119285Y-85415380D01*
X127738333Y-85415380D01*
X127738333Y-84415380D01*
X128071666Y-84415380D01*
X128166904Y-84463000D01*
X128214523Y-84510619D01*
X128262142Y-84605857D01*
X128262142Y-84701095D01*
X128214523Y-84796333D01*
X128166904Y-84843952D01*
X128071666Y-84891571D01*
X127738333Y-84891571D01*
X128595476Y-84415380D02*
X129166904Y-84415380D01*
X128881190Y-85415380D02*
X128881190Y-84415380D01*
X129500238Y-85415380D02*
X129500238Y-84415380D01*
X130071666Y-85415380D01*
X130071666Y-84415380D01*
X192445047Y-91146380D02*
X192445047Y-91955904D01*
X192492666Y-92051142D01*
X192540285Y-92098761D01*
X192635523Y-92146380D01*
X192826000Y-92146380D01*
X192921238Y-92098761D01*
X192968857Y-92051142D01*
X193016476Y-91955904D01*
X193016476Y-91146380D01*
X193445047Y-92098761D02*
X193587904Y-92146380D01*
X193826000Y-92146380D01*
X193921238Y-92098761D01*
X193968857Y-92051142D01*
X194016476Y-91955904D01*
X194016476Y-91860666D01*
X193968857Y-91765428D01*
X193921238Y-91717809D01*
X193826000Y-91670190D01*
X193635523Y-91622571D01*
X193540285Y-91574952D01*
X193492666Y-91527333D01*
X193445047Y-91432095D01*
X193445047Y-91336857D01*
X193492666Y-91241619D01*
X193540285Y-91194000D01*
X193635523Y-91146380D01*
X193873619Y-91146380D01*
X194016476Y-91194000D01*
X194778380Y-91622571D02*
X194921238Y-91670190D01*
X194968857Y-91717809D01*
X195016476Y-91813047D01*
X195016476Y-91955904D01*
X194968857Y-92051142D01*
X194921238Y-92098761D01*
X194826000Y-92146380D01*
X194445047Y-92146380D01*
X194445047Y-91146380D01*
X194778380Y-91146380D01*
X194873619Y-91194000D01*
X194921238Y-91241619D01*
X194968857Y-91336857D01*
X194968857Y-91432095D01*
X194921238Y-91527333D01*
X194873619Y-91574952D01*
X194778380Y-91622571D01*
X194445047Y-91622571D01*
X196206952Y-91765428D02*
X196968857Y-91765428D01*
X197445047Y-91479714D02*
X198206952Y-91765428D01*
X197445047Y-92051142D01*
X144780095Y-74430000D02*
X144684857Y-74382380D01*
X144542000Y-74382380D01*
X144399142Y-74430000D01*
X144303904Y-74525238D01*
X144256285Y-74620476D01*
X144208666Y-74810952D01*
X144208666Y-74953809D01*
X144256285Y-75144285D01*
X144303904Y-75239523D01*
X144399142Y-75334761D01*
X144542000Y-75382380D01*
X144637238Y-75382380D01*
X144780095Y-75334761D01*
X144827714Y-75287142D01*
X144827714Y-74953809D01*
X144637238Y-74953809D01*
X145256285Y-75382380D02*
X145256285Y-74382380D01*
X145827714Y-75382380D01*
X145827714Y-74382380D01*
X146303904Y-75382380D02*
X146303904Y-74382380D01*
X146542000Y-74382380D01*
X146684857Y-74430000D01*
X146780095Y-74525238D01*
X146827714Y-74620476D01*
X146875333Y-74810952D01*
X146875333Y-74953809D01*
X146827714Y-75144285D01*
X146780095Y-75239523D01*
X146684857Y-75334761D01*
X146542000Y-75382380D01*
X146303904Y-75382380D01*
X132270523Y-74128380D02*
X131794333Y-74128380D01*
X131746714Y-74604571D01*
X131794333Y-74556952D01*
X131889571Y-74509333D01*
X132127666Y-74509333D01*
X132222904Y-74556952D01*
X132270523Y-74604571D01*
X132318142Y-74699809D01*
X132318142Y-74937904D01*
X132270523Y-75033142D01*
X132222904Y-75080761D01*
X132127666Y-75128380D01*
X131889571Y-75128380D01*
X131794333Y-75080761D01*
X131746714Y-75033142D01*
X132603857Y-74128380D02*
X132937190Y-75128380D01*
X133270523Y-74128380D01*
X122992523Y-117260714D02*
X123183000Y-117927380D01*
X123373476Y-117451190D01*
X123563952Y-117927380D01*
X123754428Y-117260714D01*
X124040142Y-117260714D02*
X124230619Y-117927380D01*
X124421095Y-117451190D01*
X124611571Y-117927380D01*
X124802047Y-117260714D01*
X125087761Y-117260714D02*
X125278238Y-117927380D01*
X125468714Y-117451190D01*
X125659190Y-117927380D01*
X125849666Y-117260714D01*
X126230619Y-117832142D02*
X126278238Y-117879761D01*
X126230619Y-117927380D01*
X126183000Y-117879761D01*
X126230619Y-117832142D01*
X126230619Y-117927380D01*
X127135380Y-117879761D02*
X127040142Y-117927380D01*
X126849666Y-117927380D01*
X126754428Y-117879761D01*
X126706809Y-117832142D01*
X126659190Y-117736904D01*
X126659190Y-117451190D01*
X126706809Y-117355952D01*
X126754428Y-117308333D01*
X126849666Y-117260714D01*
X127040142Y-117260714D01*
X127135380Y-117308333D01*
X127563952Y-117927380D02*
X127563952Y-117260714D01*
X127563952Y-117451190D02*
X127611571Y-117355952D01*
X127659190Y-117308333D01*
X127754428Y-117260714D01*
X127849666Y-117260714D01*
X128183000Y-117927380D02*
X128183000Y-117260714D01*
X128183000Y-116927380D02*
X128135380Y-116975000D01*
X128183000Y-117022619D01*
X128230619Y-116975000D01*
X128183000Y-116927380D01*
X128183000Y-117022619D01*
X128611571Y-117879761D02*
X128706809Y-117927380D01*
X128897285Y-117927380D01*
X128992523Y-117879761D01*
X129040142Y-117784523D01*
X129040142Y-117736904D01*
X128992523Y-117641666D01*
X128897285Y-117594047D01*
X128754428Y-117594047D01*
X128659190Y-117546428D01*
X128611571Y-117451190D01*
X128611571Y-117403571D01*
X128659190Y-117308333D01*
X128754428Y-117260714D01*
X128897285Y-117260714D01*
X128992523Y-117308333D01*
X129325857Y-117260714D02*
X129706809Y-117260714D01*
X129468714Y-116927380D02*
X129468714Y-117784523D01*
X129516333Y-117879761D01*
X129611571Y-117927380D01*
X129706809Y-117927380D01*
X130040142Y-117927380D02*
X130040142Y-117260714D01*
X130040142Y-116927380D02*
X129992523Y-116975000D01*
X130040142Y-117022619D01*
X130087761Y-116975000D01*
X130040142Y-116927380D01*
X130040142Y-117022619D01*
X130944904Y-117927380D02*
X130944904Y-117403571D01*
X130897285Y-117308333D01*
X130802047Y-117260714D01*
X130611571Y-117260714D01*
X130516333Y-117308333D01*
X130944904Y-117879761D02*
X130849666Y-117927380D01*
X130611571Y-117927380D01*
X130516333Y-117879761D01*
X130468714Y-117784523D01*
X130468714Y-117689285D01*
X130516333Y-117594047D01*
X130611571Y-117546428D01*
X130849666Y-117546428D01*
X130944904Y-117498809D01*
X131421095Y-117260714D02*
X131421095Y-117927380D01*
X131421095Y-117355952D02*
X131468714Y-117308333D01*
X131563952Y-117260714D01*
X131706809Y-117260714D01*
X131802047Y-117308333D01*
X131849666Y-117403571D01*
X131849666Y-117927380D01*
X132278238Y-117879761D02*
X132373476Y-117927380D01*
X132563952Y-117927380D01*
X132659190Y-117879761D01*
X132706809Y-117784523D01*
X132706809Y-117736904D01*
X132659190Y-117641666D01*
X132563952Y-117594047D01*
X132421095Y-117594047D01*
X132325857Y-117546428D01*
X132278238Y-117451190D01*
X132278238Y-117403571D01*
X132325857Y-117308333D01*
X132421095Y-117260714D01*
X132563952Y-117260714D01*
X132659190Y-117308333D01*
X133563952Y-117927380D02*
X133563952Y-117403571D01*
X133516333Y-117308333D01*
X133421095Y-117260714D01*
X133230619Y-117260714D01*
X133135380Y-117308333D01*
X133563952Y-117879761D02*
X133468714Y-117927380D01*
X133230619Y-117927380D01*
X133135380Y-117879761D01*
X133087761Y-117784523D01*
X133087761Y-117689285D01*
X133135380Y-117594047D01*
X133230619Y-117546428D01*
X133468714Y-117546428D01*
X133563952Y-117498809D01*
X134040142Y-117260714D02*
X134040142Y-117927380D01*
X134040142Y-117355952D02*
X134087761Y-117308333D01*
X134183000Y-117260714D01*
X134325857Y-117260714D01*
X134421095Y-117308333D01*
X134468714Y-117403571D01*
X134468714Y-117927380D01*
X135373476Y-117927380D02*
X135373476Y-116927380D01*
X135373476Y-117879761D02*
X135278238Y-117927380D01*
X135087761Y-117927380D01*
X134992523Y-117879761D01*
X134944904Y-117832142D01*
X134897285Y-117736904D01*
X134897285Y-117451190D01*
X134944904Y-117355952D01*
X134992523Y-117308333D01*
X135087761Y-117260714D01*
X135278238Y-117260714D01*
X135373476Y-117308333D01*
X136278238Y-117260714D02*
X136278238Y-117927380D01*
X135849666Y-117260714D02*
X135849666Y-117784523D01*
X135897285Y-117879761D01*
X135992523Y-117927380D01*
X136135380Y-117927380D01*
X136230619Y-117879761D01*
X136278238Y-117832142D01*
X136754428Y-117832142D02*
X136802047Y-117879761D01*
X136754428Y-117927380D01*
X136706809Y-117879761D01*
X136754428Y-117832142D01*
X136754428Y-117927380D01*
X137230619Y-117927380D02*
X137230619Y-117260714D01*
X137230619Y-117451190D02*
X137278238Y-117355952D01*
X137325857Y-117308333D01*
X137421095Y-117260714D01*
X137516333Y-117260714D01*
X137992523Y-117927380D02*
X137897285Y-117879761D01*
X137849666Y-117832142D01*
X137802047Y-117736904D01*
X137802047Y-117451190D01*
X137849666Y-117355952D01*
X137897285Y-117308333D01*
X137992523Y-117260714D01*
X138135380Y-117260714D01*
X138230619Y-117308333D01*
X138278238Y-117355952D01*
X138325857Y-117451190D01*
X138325857Y-117736904D01*
X138278238Y-117832142D01*
X138230619Y-117879761D01*
X138135380Y-117927380D01*
X137992523Y-117927380D01*
X154560761Y-91297142D02*
X155227428Y-91297142D01*
X155513142Y-92344761D02*
X154560761Y-92344761D01*
X154560761Y-90344761D01*
X155513142Y-90344761D01*
X156275047Y-92249523D02*
X156560761Y-92344761D01*
X157036952Y-92344761D01*
X157227428Y-92249523D01*
X157322666Y-92154285D01*
X157417904Y-91963809D01*
X157417904Y-91773333D01*
X157322666Y-91582857D01*
X157227428Y-91487619D01*
X157036952Y-91392380D01*
X156656000Y-91297142D01*
X156465523Y-91201904D01*
X156370285Y-91106666D01*
X156275047Y-90916190D01*
X156275047Y-90725714D01*
X156370285Y-90535238D01*
X156465523Y-90440000D01*
X156656000Y-90344761D01*
X157132190Y-90344761D01*
X157417904Y-90440000D01*
X158275047Y-92344761D02*
X158275047Y-90344761D01*
X159036952Y-90344761D01*
X159227428Y-90440000D01*
X159322666Y-90535238D01*
X159417904Y-90725714D01*
X159417904Y-91011428D01*
X159322666Y-91201904D01*
X159227428Y-91297142D01*
X159036952Y-91392380D01*
X158275047Y-91392380D01*
X160084571Y-90344761D02*
X161322666Y-90344761D01*
X160656000Y-91106666D01*
X160941714Y-91106666D01*
X161132190Y-91201904D01*
X161227428Y-91297142D01*
X161322666Y-91487619D01*
X161322666Y-91963809D01*
X161227428Y-92154285D01*
X161132190Y-92249523D01*
X160941714Y-92344761D01*
X160370285Y-92344761D01*
X160179809Y-92249523D01*
X160084571Y-92154285D01*
X162084571Y-90535238D02*
X162179809Y-90440000D01*
X162370285Y-90344761D01*
X162846476Y-90344761D01*
X163036952Y-90440000D01*
X163132190Y-90535238D01*
X163227428Y-90725714D01*
X163227428Y-90916190D01*
X163132190Y-91201904D01*
X161989333Y-92344761D01*
X163227428Y-92344761D01*
X165608380Y-92344761D02*
X165608380Y-90344761D01*
X166084571Y-90344761D01*
X166370285Y-90440000D01*
X166560761Y-90630476D01*
X166656000Y-90820952D01*
X166751238Y-91201904D01*
X166751238Y-91487619D01*
X166656000Y-91868571D01*
X166560761Y-92059047D01*
X166370285Y-92249523D01*
X166084571Y-92344761D01*
X165608380Y-92344761D01*
X167989333Y-90344761D02*
X168370285Y-90344761D01*
X168560761Y-90440000D01*
X168751238Y-90630476D01*
X168846476Y-91011428D01*
X168846476Y-91678095D01*
X168751238Y-92059047D01*
X168560761Y-92249523D01*
X168370285Y-92344761D01*
X167989333Y-92344761D01*
X167798857Y-92249523D01*
X167608380Y-92059047D01*
X167513142Y-91678095D01*
X167513142Y-91011428D01*
X167608380Y-90630476D01*
X167798857Y-90440000D01*
X167989333Y-90344761D01*
X169703619Y-92344761D02*
X169703619Y-90344761D01*
X170370285Y-90344761D02*
X171513142Y-90344761D01*
X170941714Y-92344761D02*
X170941714Y-90344761D01*
X173703619Y-92344761D02*
X173703619Y-90344761D01*
X174179809Y-90344761D01*
X174465523Y-90440000D01*
X174656000Y-90630476D01*
X174751238Y-90820952D01*
X174846476Y-91201904D01*
X174846476Y-91487619D01*
X174751238Y-91868571D01*
X174656000Y-92059047D01*
X174465523Y-92249523D01*
X174179809Y-92344761D01*
X173703619Y-92344761D01*
X175703619Y-91297142D02*
X176370285Y-91297142D01*
X176656000Y-92344761D02*
X175703619Y-92344761D01*
X175703619Y-90344761D01*
X176656000Y-90344761D01*
X177227428Y-90344761D02*
X177894095Y-92344761D01*
X178560761Y-90344761D01*
X179227428Y-92344761D02*
X179227428Y-90344761D01*
X180370285Y-92344761D02*
X179513142Y-91201904D01*
X180370285Y-90344761D02*
X179227428Y-91487619D01*
X181227428Y-92344761D02*
X181227428Y-90344761D01*
X181894095Y-90344761D02*
X183036952Y-90344761D01*
X182465523Y-92344761D02*
X182465523Y-90344761D01*
X181302428Y-116149333D02*
X181338142Y-116006476D01*
X181373857Y-115958857D01*
X181445285Y-115911238D01*
X181552428Y-115911238D01*
X181623857Y-115958857D01*
X181659571Y-116006476D01*
X181695285Y-116101714D01*
X181695285Y-116482666D01*
X180945285Y-116482666D01*
X180945285Y-116149333D01*
X180981000Y-116054095D01*
X181016714Y-116006476D01*
X181088142Y-115958857D01*
X181159571Y-115958857D01*
X181231000Y-116006476D01*
X181266714Y-116054095D01*
X181302428Y-116149333D01*
X181302428Y-116482666D01*
X180945285Y-115625523D02*
X180945285Y-115054095D01*
X181695285Y-115339809D02*
X180945285Y-115339809D01*
X181695285Y-114720761D02*
X180945285Y-114720761D01*
X181695285Y-114149333D01*
X180945285Y-114149333D01*
X178405285Y-117633523D02*
X178405285Y-117062095D01*
X179155285Y-117347809D02*
X178405285Y-117347809D01*
X178762428Y-116728761D02*
X178762428Y-116395428D01*
X179155285Y-116252571D02*
X179155285Y-116728761D01*
X178405285Y-116728761D01*
X178405285Y-116252571D01*
X179155285Y-115824000D02*
X178405285Y-115824000D01*
X178941000Y-115490666D01*
X178405285Y-115157333D01*
X179155285Y-115157333D01*
X179155285Y-114681142D02*
X178405285Y-114681142D01*
X178405285Y-114300190D01*
X178441000Y-114204952D01*
X178476714Y-114157333D01*
X178548142Y-114109714D01*
X178655285Y-114109714D01*
X178726714Y-114157333D01*
X178762428Y-114204952D01*
X178798142Y-114300190D01*
X178798142Y-114681142D01*
X176579571Y-117585904D02*
X176615285Y-117443047D01*
X176615285Y-117204952D01*
X176579571Y-117109714D01*
X176543857Y-117062095D01*
X176472428Y-117014476D01*
X176401000Y-117014476D01*
X176329571Y-117062095D01*
X176293857Y-117109714D01*
X176258142Y-117204952D01*
X176222428Y-117395428D01*
X176186714Y-117490666D01*
X176151000Y-117538285D01*
X176079571Y-117585904D01*
X176008142Y-117585904D01*
X175936714Y-117538285D01*
X175901000Y-117490666D01*
X175865285Y-117395428D01*
X175865285Y-117157333D01*
X175901000Y-117014476D01*
X176222428Y-116585904D02*
X176222428Y-116252571D01*
X176615285Y-116109714D02*
X176615285Y-116585904D01*
X175865285Y-116585904D01*
X175865285Y-116109714D01*
X176615285Y-115681142D02*
X175865285Y-115681142D01*
X176615285Y-115109714D01*
X175865285Y-115109714D01*
X176615285Y-114633523D02*
X175865285Y-114633523D01*
X175865285Y-114395428D01*
X175901000Y-114252571D01*
X175972428Y-114157333D01*
X176043857Y-114109714D01*
X176186714Y-114062095D01*
X176293857Y-114062095D01*
X176436714Y-114109714D01*
X176508142Y-114157333D01*
X176579571Y-114252571D01*
X176615285Y-114395428D01*
X176615285Y-114633523D01*
D11*
G36*
X139899589Y-108301436D02*
G01*
X139948938Y-108401791D01*
X139996319Y-108565887D01*
X139997177Y-108569471D01*
X140037658Y-108727831D01*
X140084360Y-108894180D01*
X140120843Y-109012693D01*
X140160856Y-109164396D01*
X140173585Y-109283475D01*
X140161393Y-109362974D01*
X140126640Y-109395937D01*
X140071688Y-109375410D01*
X140016973Y-109318619D01*
X139963276Y-109212916D01*
X139945533Y-109113832D01*
X139923489Y-109010261D01*
X139867963Y-108921712D01*
X139794862Y-108869942D01*
X139763169Y-108864400D01*
X139727344Y-108831077D01*
X139701182Y-108730971D01*
X139695051Y-108686600D01*
X139688858Y-108511321D01*
X139714296Y-108374545D01*
X139769032Y-108287088D01*
X139783571Y-108276288D01*
X139845417Y-108260907D01*
X139899589Y-108301436D01*
X139899589Y-108301436D01*
G37*
X139899589Y-108301436D02*
X139948938Y-108401791D01*
X139996319Y-108565887D01*
X139997177Y-108569471D01*
X140037658Y-108727831D01*
X140084360Y-108894180D01*
X140120843Y-109012693D01*
X140160856Y-109164396D01*
X140173585Y-109283475D01*
X140161393Y-109362974D01*
X140126640Y-109395937D01*
X140071688Y-109375410D01*
X140016973Y-109318619D01*
X139963276Y-109212916D01*
X139945533Y-109113832D01*
X139923489Y-109010261D01*
X139867963Y-108921712D01*
X139794862Y-108869942D01*
X139763169Y-108864400D01*
X139727344Y-108831077D01*
X139701182Y-108730971D01*
X139695051Y-108686600D01*
X139688858Y-108511321D01*
X139714296Y-108374545D01*
X139769032Y-108287088D01*
X139783571Y-108276288D01*
X139845417Y-108260907D01*
X139899589Y-108301436D01*
G36*
X145163642Y-110821622D02*
G01*
X145174303Y-110837425D01*
X145192928Y-110901586D01*
X145164030Y-110981126D01*
X145161000Y-110986535D01*
X145053892Y-111112812D01*
X144911205Y-111192390D01*
X144751250Y-111216463D01*
X144695631Y-111210339D01*
X144624778Y-111174936D01*
X144557664Y-111109587D01*
X144519567Y-111040582D01*
X144517533Y-111025111D01*
X144542913Y-110990362D01*
X144603068Y-110943517D01*
X144667648Y-110907509D01*
X144711430Y-110912605D01*
X144752675Y-110945457D01*
X144844167Y-110993611D01*
X144929520Y-110979210D01*
X144993387Y-110906806D01*
X145007439Y-110869923D01*
X145049350Y-110788707D01*
X145103787Y-110772145D01*
X145163642Y-110821622D01*
X145163642Y-110821622D01*
G37*
X145163642Y-110821622D02*
X145174303Y-110837425D01*
X145192928Y-110901586D01*
X145164030Y-110981126D01*
X145161000Y-110986535D01*
X145053892Y-111112812D01*
X144911205Y-111192390D01*
X144751250Y-111216463D01*
X144695631Y-111210339D01*
X144624778Y-111174936D01*
X144557664Y-111109587D01*
X144519567Y-111040582D01*
X144517533Y-111025111D01*
X144542913Y-110990362D01*
X144603068Y-110943517D01*
X144667648Y-110907509D01*
X144711430Y-110912605D01*
X144752675Y-110945457D01*
X144844167Y-110993611D01*
X144929520Y-110979210D01*
X144993387Y-110906806D01*
X145007439Y-110869923D01*
X145049350Y-110788707D01*
X145103787Y-110772145D01*
X145163642Y-110821622D01*
G36*
X142215270Y-110754858D02*
G01*
X142260840Y-110814304D01*
X142261069Y-110885734D01*
X142270435Y-110961518D01*
X142317174Y-111008417D01*
X142409327Y-111043236D01*
X142497440Y-111012563D01*
X142560040Y-110950756D01*
X142604137Y-110901954D01*
X142634052Y-110905024D01*
X142669029Y-110947200D01*
X142711699Y-111022576D01*
X142718811Y-111079501D01*
X142691937Y-111099600D01*
X142650730Y-111119775D01*
X142577513Y-111171645D01*
X142519400Y-111218133D01*
X142433643Y-111283407D01*
X142364957Y-111324412D01*
X142338396Y-111332054D01*
X142275333Y-111322295D01*
X142221655Y-111312580D01*
X142131327Y-111269576D01*
X142033948Y-111185295D01*
X141949127Y-111080726D01*
X141896475Y-110976858D01*
X141891876Y-110959623D01*
X141883832Y-110872664D01*
X141915498Y-110813250D01*
X141943297Y-110788288D01*
X142040059Y-110736809D01*
X142136196Y-110727346D01*
X142215270Y-110754858D01*
X142215270Y-110754858D01*
G37*
X142215270Y-110754858D02*
X142260840Y-110814304D01*
X142261069Y-110885734D01*
X142270435Y-110961518D01*
X142317174Y-111008417D01*
X142409327Y-111043236D01*
X142497440Y-111012563D01*
X142560040Y-110950756D01*
X142604137Y-110901954D01*
X142634052Y-110905024D01*
X142669029Y-110947200D01*
X142711699Y-111022576D01*
X142718811Y-111079501D01*
X142691937Y-111099600D01*
X142650730Y-111119775D01*
X142577513Y-111171645D01*
X142519400Y-111218133D01*
X142433643Y-111283407D01*
X142364957Y-111324412D01*
X142338396Y-111332054D01*
X142275333Y-111322295D01*
X142221655Y-111312580D01*
X142131327Y-111269576D01*
X142033948Y-111185295D01*
X141949127Y-111080726D01*
X141896475Y-110976858D01*
X141891876Y-110959623D01*
X141883832Y-110872664D01*
X141915498Y-110813250D01*
X141943297Y-110788288D01*
X142040059Y-110736809D01*
X142136196Y-110727346D01*
X142215270Y-110754858D01*
G36*
X139900297Y-107493753D02*
G01*
X140015706Y-107542109D01*
X140155124Y-107637699D01*
X140324971Y-107782092D01*
X140531671Y-107976854D01*
X140537281Y-107982300D01*
X140776726Y-108208708D01*
X141011076Y-108418735D01*
X141234094Y-108607576D01*
X141439544Y-108770424D01*
X141621190Y-108902476D01*
X141772796Y-108998925D01*
X141888125Y-109054966D01*
X141945760Y-109067600D01*
X142004228Y-109053940D01*
X142103295Y-109017921D01*
X142222734Y-108966985D01*
X142236843Y-108960516D01*
X142402619Y-108897066D01*
X142576356Y-108860049D01*
X142772786Y-108848390D01*
X143006639Y-108861011D01*
X143230600Y-108887870D01*
X143395864Y-108909811D01*
X143595649Y-108934520D01*
X143797087Y-108957988D01*
X143882266Y-108967371D01*
X144246065Y-109006501D01*
X144457999Y-108907248D01*
X144601869Y-108824587D01*
X144778407Y-108697958D01*
X144976756Y-108535293D01*
X145025533Y-108492542D01*
X145280453Y-108275055D01*
X145496459Y-108110033D01*
X145675972Y-107996287D01*
X145821417Y-107932627D01*
X145935216Y-107917862D01*
X146019794Y-107950803D01*
X146053856Y-107987561D01*
X146098501Y-108096417D01*
X146111338Y-108252171D01*
X146092024Y-108457447D01*
X146040217Y-108714870D01*
X145955571Y-109027063D01*
X145890436Y-109236933D01*
X145795692Y-109546449D01*
X145728407Y-109807794D01*
X145687255Y-110034108D01*
X145670907Y-110238533D01*
X145678037Y-110434207D01*
X145707318Y-110634273D01*
X145735962Y-110766069D01*
X145764705Y-110895476D01*
X145781498Y-111004419D01*
X145787273Y-111113934D01*
X145782956Y-111245058D01*
X145769480Y-111418831D01*
X145766354Y-111454014D01*
X145750532Y-111666146D01*
X145746624Y-111838457D01*
X145755091Y-111997883D01*
X145776393Y-112171360D01*
X145778923Y-112188366D01*
X145803844Y-112399993D01*
X145808258Y-112589808D01*
X145790254Y-112779189D01*
X145747918Y-112989512D01*
X145686960Y-113216001D01*
X145634348Y-113430496D01*
X145608651Y-113630433D01*
X145611491Y-113828852D01*
X145644493Y-114038791D01*
X145709280Y-114273289D01*
X145807476Y-114545387D01*
X145872589Y-114706815D01*
X145944421Y-114880630D01*
X146019829Y-115063693D01*
X146086976Y-115227249D01*
X146113604Y-115292358D01*
X146203186Y-115540626D01*
X146285270Y-115821018D01*
X146349677Y-116097980D01*
X146360334Y-116154200D01*
X146383269Y-116281200D01*
X137912682Y-116281200D01*
X138031654Y-116044952D01*
X138149779Y-115804565D01*
X138249931Y-115589047D01*
X138327202Y-115409377D01*
X138376685Y-115276532D01*
X138380236Y-115265200D01*
X138400801Y-115199087D01*
X138438410Y-115079426D01*
X138489588Y-114917219D01*
X138550861Y-114723468D01*
X138618757Y-114509177D01*
X138652887Y-114401599D01*
X138730069Y-114156563D01*
X138788813Y-113963539D01*
X138831905Y-113810216D01*
X138862129Y-113684284D01*
X138882272Y-113573432D01*
X138895118Y-113465351D01*
X138903452Y-113347728D01*
X138906926Y-113278730D01*
X138918087Y-113091196D01*
X138932296Y-112979623D01*
X141717757Y-112979623D01*
X141719694Y-113019994D01*
X141730278Y-113032647D01*
X141803717Y-113073717D01*
X141919650Y-113103906D01*
X142057162Y-113121719D01*
X142195337Y-113125660D01*
X142313259Y-113114231D01*
X142390012Y-113085937D01*
X142396516Y-113080312D01*
X142429262Y-113024718D01*
X142419407Y-112948462D01*
X142413502Y-112930627D01*
X142383815Y-112878687D01*
X144686866Y-112878687D01*
X144704551Y-112941786D01*
X144748193Y-113033044D01*
X144803672Y-113126018D01*
X144853538Y-113190866D01*
X144934699Y-113254710D01*
X145005238Y-113256156D01*
X145076333Y-113199333D01*
X145141407Y-113148095D01*
X145191649Y-113131473D01*
X145269989Y-113111281D01*
X145357056Y-113062020D01*
X145429793Y-113000191D01*
X145465146Y-112942298D01*
X145465800Y-112935233D01*
X145437741Y-112864447D01*
X145363776Y-112779801D01*
X145259219Y-112696413D01*
X145171148Y-112644399D01*
X145065520Y-112602448D01*
X144991444Y-112593030D01*
X144957636Y-112611497D01*
X144972816Y-112653201D01*
X145043842Y-112712282D01*
X145128558Y-112785740D01*
X145176845Y-112863855D01*
X145177747Y-112928391D01*
X145175762Y-112931913D01*
X145146010Y-112931245D01*
X145100240Y-112879494D01*
X145090027Y-112863480D01*
X145027639Y-112785212D01*
X144973858Y-112757024D01*
X144940416Y-112779137D01*
X144939044Y-112851772D01*
X144940866Y-112860666D01*
X144945500Y-112938858D01*
X144917818Y-112960460D01*
X144864706Y-112921339D01*
X144856200Y-112911466D01*
X144806920Y-112877890D01*
X144744086Y-112860269D01*
X144696349Y-112864152D01*
X144686866Y-112878687D01*
X142383815Y-112878687D01*
X142360684Y-112838220D01*
X142288100Y-112810368D01*
X142193983Y-112846577D01*
X142170804Y-112862652D01*
X142092881Y-112908419D01*
X142043532Y-112904961D01*
X142035182Y-112897995D01*
X141956969Y-112863286D01*
X141857004Y-112876558D01*
X141769618Y-112925996D01*
X141717757Y-112979623D01*
X138932296Y-112979623D01*
X138936091Y-112949831D01*
X138968089Y-112833071D01*
X139021235Y-112719351D01*
X139102680Y-112587108D01*
X139169006Y-112488583D01*
X139193034Y-112449127D01*
X140919646Y-112449127D01*
X140920268Y-112558679D01*
X140929965Y-112599340D01*
X140966418Y-112687113D01*
X141026556Y-112731150D01*
X141072504Y-112744183D01*
X141173758Y-112779920D01*
X141282283Y-112836993D01*
X141299595Y-112848276D01*
X141430559Y-112912097D01*
X141550601Y-112923828D01*
X141645674Y-112882401D01*
X141653381Y-112875180D01*
X141699770Y-112800436D01*
X143057967Y-112800436D01*
X143076466Y-112826411D01*
X143082548Y-112826800D01*
X143115067Y-112805157D01*
X143184416Y-112747163D01*
X143278413Y-112663217D01*
X143330452Y-112615133D01*
X143550241Y-112427090D01*
X143753732Y-112287416D01*
X143935199Y-112199457D01*
X144088916Y-112166555D01*
X144098866Y-112166400D01*
X144226648Y-112184310D01*
X144342770Y-112243575D01*
X144459763Y-112352494D01*
X144551400Y-112466088D01*
X144669933Y-112625019D01*
X144680724Y-112520312D01*
X144665908Y-112396424D01*
X144591998Y-112281536D01*
X144455081Y-112170028D01*
X144422228Y-112149133D01*
X144284189Y-112063188D01*
X144195693Y-112003546D01*
X144148240Y-111961603D01*
X144133326Y-111928755D01*
X144142450Y-111896399D01*
X144153622Y-111877311D01*
X144198396Y-111825004D01*
X144226680Y-111810800D01*
X144289995Y-111782483D01*
X144348583Y-111715395D01*
X144380707Y-111636327D01*
X144382066Y-111619284D01*
X144358393Y-111557546D01*
X144296146Y-111539269D01*
X144208482Y-111564193D01*
X144117309Y-111624533D01*
X144040085Y-111679631D01*
X143977214Y-111708120D01*
X143968214Y-111709200D01*
X143913447Y-111686180D01*
X143845628Y-111630196D01*
X143840200Y-111624533D01*
X143772744Y-111575554D01*
X143691584Y-111545144D01*
X143618174Y-111537398D01*
X143573968Y-111556414D01*
X143569267Y-111572802D01*
X143595534Y-111606653D01*
X143664487Y-111664092D01*
X143761352Y-111732844D01*
X143764000Y-111734600D01*
X143861672Y-111805554D01*
X143931557Y-111868386D01*
X143958727Y-111909646D01*
X143958733Y-111910019D01*
X143931261Y-111951256D01*
X143860723Y-112007120D01*
X143799478Y-112044555D01*
X143691897Y-112114216D01*
X143573231Y-112207708D01*
X143451150Y-112316661D01*
X143333324Y-112432706D01*
X143227422Y-112547475D01*
X143141116Y-112652599D01*
X143082074Y-112739708D01*
X143057967Y-112800436D01*
X141699770Y-112800436D01*
X141704335Y-112793082D01*
X141687821Y-112716302D01*
X141603907Y-112644983D01*
X141525198Y-112606516D01*
X141426568Y-112546406D01*
X141349152Y-112467537D01*
X141340118Y-112453333D01*
X141283390Y-112371403D01*
X141220654Y-112335638D01*
X141127241Y-112335468D01*
X141080727Y-112342186D01*
X140971886Y-112379087D01*
X140919646Y-112449127D01*
X139193034Y-112449127D01*
X139289279Y-112291086D01*
X139413897Y-112048842D01*
X139532575Y-111783238D01*
X139630035Y-111529931D01*
X139681693Y-111353692D01*
X139714521Y-111163206D01*
X139733000Y-110932320D01*
X139733227Y-110927660D01*
X139738286Y-110708833D01*
X139730302Y-110495884D01*
X139707400Y-110274501D01*
X139667705Y-110030369D01*
X139609345Y-109749176D01*
X139540916Y-109459126D01*
X139457139Y-109085441D01*
X139403402Y-108764718D01*
X139380374Y-108496487D01*
X139441455Y-108496487D01*
X139462709Y-108731155D01*
X139507278Y-109004730D01*
X139575581Y-109324680D01*
X139668040Y-109698471D01*
X139693529Y-109795733D01*
X139746820Y-110004992D01*
X139783193Y-110172358D01*
X139806022Y-110320559D01*
X139818680Y-110472326D01*
X139824540Y-110650387D01*
X139825060Y-110682072D01*
X139832966Y-110903493D01*
X139850453Y-111061097D01*
X139879590Y-111158384D01*
X139922443Y-111198853D01*
X139981082Y-111186001D01*
X140057573Y-111123330D01*
X140075138Y-111105186D01*
X140158186Y-111016271D01*
X140187457Y-110984570D01*
X140859933Y-110984570D01*
X140881395Y-111036798D01*
X140934104Y-111108071D01*
X140944600Y-111119733D01*
X141015206Y-111237043D01*
X141029266Y-111320111D01*
X141061020Y-111453244D01*
X141148846Y-111564392D01*
X141281587Y-111639841D01*
X141292263Y-111643428D01*
X141407611Y-111687562D01*
X141471307Y-111739261D01*
X141498253Y-111818675D01*
X141503400Y-111928912D01*
X141516583Y-112074267D01*
X141559609Y-112176827D01*
X141571133Y-112192574D01*
X141618393Y-112262663D01*
X141638844Y-112312828D01*
X141638867Y-112313754D01*
X141663897Y-112357530D01*
X141712826Y-112400628D01*
X141809758Y-112435130D01*
X141929128Y-112414634D01*
X142077664Y-112337962D01*
X142080318Y-112336270D01*
X142157667Y-112291681D01*
X142279539Y-112226992D01*
X142429156Y-112150903D01*
X142588318Y-112072803D01*
X142838571Y-111943471D01*
X143033798Y-111820261D01*
X143184930Y-111693888D01*
X143302900Y-111555070D01*
X143398640Y-111394521D01*
X143407155Y-111377437D01*
X143518467Y-111150839D01*
X143511150Y-110645061D01*
X143500558Y-110321369D01*
X143479048Y-110063886D01*
X143468516Y-110001726D01*
X143550776Y-110001726D01*
X143552767Y-110060918D01*
X143599245Y-110128368D01*
X143657361Y-110183666D01*
X143734885Y-110247677D01*
X143780766Y-110269850D01*
X143811624Y-110255870D01*
X143824042Y-110240666D01*
X143865903Y-110202528D01*
X143889041Y-110228577D01*
X143893582Y-110319186D01*
X143885755Y-110421319D01*
X143887339Y-110608716D01*
X143939648Y-110767047D01*
X144049158Y-110911046D01*
X144135180Y-110988707D01*
X144238342Y-111090695D01*
X144330930Y-111210925D01*
X144364989Y-111268648D01*
X144454559Y-111421666D01*
X144565009Y-111575595D01*
X144681913Y-111712742D01*
X144790845Y-111815415D01*
X144837481Y-111848100D01*
X144925413Y-111923936D01*
X144998045Y-112025940D01*
X145006531Y-112043279D01*
X145066642Y-112152492D01*
X145137791Y-112251140D01*
X145148321Y-112262989D01*
X145222185Y-112322354D01*
X145294885Y-112350482D01*
X145348055Y-112343480D01*
X145364200Y-112308754D01*
X145371306Y-112274804D01*
X145397720Y-112226287D01*
X145451088Y-112151710D01*
X145539057Y-112039583D01*
X145563720Y-112008848D01*
X145594322Y-111967011D01*
X145616502Y-111921653D01*
X145631993Y-111861023D01*
X145642530Y-111773371D01*
X145649846Y-111646945D01*
X145655675Y-111469996D01*
X145658358Y-111367476D01*
X145662660Y-111152180D01*
X145662366Y-110988924D01*
X145656345Y-110862107D01*
X145643469Y-110756123D01*
X145622606Y-110655370D01*
X145600833Y-110573123D01*
X145566329Y-110443556D01*
X145549158Y-110346938D01*
X145548369Y-110256444D01*
X145563009Y-110145251D01*
X145581941Y-110040668D01*
X145616716Y-109877729D01*
X145659180Y-109710522D01*
X145700586Y-109573283D01*
X145703562Y-109564704D01*
X145751710Y-109418156D01*
X145805112Y-109239804D01*
X145860290Y-109043170D01*
X145913765Y-108841778D01*
X145962060Y-108649151D01*
X146001697Y-108478813D01*
X146029196Y-108344286D01*
X146041081Y-108259093D01*
X146041302Y-108251582D01*
X146017329Y-108127555D01*
X145949973Y-108049493D01*
X145846907Y-108024562D01*
X145803881Y-108029703D01*
X145672467Y-108074043D01*
X145521061Y-108160395D01*
X145343866Y-108292771D01*
X145135086Y-108475180D01*
X145064080Y-108541533D01*
X144871421Y-108715121D01*
X144706428Y-108843379D01*
X144556734Y-108935615D01*
X144508011Y-108960004D01*
X144398188Y-109016035D01*
X144317457Y-109065115D01*
X144281137Y-109097779D01*
X144280466Y-109100643D01*
X144312119Y-109150463D01*
X144400265Y-109206648D01*
X144534689Y-109263834D01*
X144678065Y-109309324D01*
X144796507Y-109345624D01*
X144889876Y-109380571D01*
X144937501Y-109406287D01*
X144958072Y-109460554D01*
X144964119Y-109549566D01*
X144963216Y-109567523D01*
X144975541Y-109690695D01*
X145038811Y-109808192D01*
X145040719Y-109810779D01*
X145095993Y-109907515D01*
X145125574Y-110002382D01*
X145127133Y-110022446D01*
X145112555Y-110087457D01*
X145064501Y-110115553D01*
X144976490Y-110106658D01*
X144842044Y-110060693D01*
X144742111Y-110017860D01*
X144616378Y-109956208D01*
X144537869Y-109901112D01*
X144489265Y-109838577D01*
X144469749Y-109797727D01*
X144416385Y-109709374D01*
X144348602Y-109680408D01*
X144256066Y-109708836D01*
X144195800Y-109744933D01*
X144088775Y-109801041D01*
X144009778Y-109800793D01*
X143944899Y-109741019D01*
X143909189Y-109679662D01*
X143843605Y-109584581D01*
X143769204Y-109525771D01*
X143701060Y-109512678D01*
X143670198Y-109529902D01*
X143648877Y-109577085D01*
X143623379Y-109668053D01*
X143606782Y-109744933D01*
X143583042Y-109862570D01*
X143560938Y-109961917D01*
X143550776Y-110001726D01*
X143468516Y-110001726D01*
X143446527Y-109871961D01*
X143402900Y-109744939D01*
X143376295Y-109704883D01*
X143309932Y-109664843D01*
X143250906Y-109687392D01*
X143220174Y-109747276D01*
X143176609Y-109801298D01*
X143088721Y-109806484D01*
X142959208Y-109762751D01*
X142944143Y-109755718D01*
X142864172Y-109721390D01*
X142813745Y-109720994D01*
X142761863Y-109758092D01*
X142739015Y-109779286D01*
X142670000Y-109829351D01*
X142584596Y-109854271D01*
X142461766Y-109861634D01*
X142270222Y-109863466D01*
X142156170Y-110058314D01*
X142024888Y-110231281D01*
X141870466Y-110340753D01*
X141692343Y-110387096D01*
X141648682Y-110388862D01*
X141507906Y-110396506D01*
X141417797Y-110424135D01*
X141362203Y-110480643D01*
X141327693Y-110565650D01*
X141290922Y-110656172D01*
X141233775Y-110715476D01*
X141133587Y-110767020D01*
X141132769Y-110767371D01*
X140982678Y-110843729D01*
X140890129Y-110918285D01*
X140859933Y-110984570D01*
X140187457Y-110984570D01*
X140250724Y-110916054D01*
X140271365Y-110893519D01*
X140364495Y-110800446D01*
X140463177Y-110714367D01*
X140484534Y-110697846D01*
X140551781Y-110640857D01*
X140577955Y-110586191D01*
X140574658Y-110503578D01*
X140570405Y-110473792D01*
X140573984Y-110281426D01*
X140606881Y-110145523D01*
X140653017Y-110012228D01*
X140700213Y-109922577D01*
X140765340Y-109854353D01*
X140865272Y-109785339D01*
X140893800Y-109767724D01*
X141007798Y-109692257D01*
X141137605Y-109598107D01*
X141215533Y-109537395D01*
X141341391Y-109446361D01*
X141481968Y-109360449D01*
X141562667Y-109319031D01*
X141658929Y-109267578D01*
X141723495Y-109218770D01*
X141740467Y-109191216D01*
X141714809Y-109151496D01*
X141646158Y-109084551D01*
X141546994Y-109002018D01*
X141494933Y-108962292D01*
X141104167Y-108658136D01*
X140776831Y-108373255D01*
X140513430Y-108108101D01*
X140439174Y-108023286D01*
X140255226Y-107819975D01*
X140096066Y-107677447D01*
X139958416Y-107594840D01*
X139838999Y-107571291D01*
X139734538Y-107605938D01*
X139641755Y-107697918D01*
X139581190Y-107797520D01*
X139513383Y-107951241D01*
X139467212Y-108113998D01*
X139443096Y-108293257D01*
X139441455Y-108496487D01*
X139380374Y-108496487D01*
X139379747Y-108489189D01*
X139386218Y-108251088D01*
X139422857Y-108042646D01*
X139489707Y-107856098D01*
X139550326Y-107741316D01*
X139633912Y-107616413D01*
X139715821Y-107532473D01*
X139802476Y-107491064D01*
X139900297Y-107493753D01*
X139900297Y-107493753D01*
G37*
X139900297Y-107493753D02*
X140015706Y-107542109D01*
X140155124Y-107637699D01*
X140324971Y-107782092D01*
X140531671Y-107976854D01*
X140537281Y-107982300D01*
X140776726Y-108208708D01*
X141011076Y-108418735D01*
X141234094Y-108607576D01*
X141439544Y-108770424D01*
X141621190Y-108902476D01*
X141772796Y-108998925D01*
X141888125Y-109054966D01*
X141945760Y-109067600D01*
X142004228Y-109053940D01*
X142103295Y-109017921D01*
X142222734Y-108966985D01*
X142236843Y-108960516D01*
X142402619Y-108897066D01*
X142576356Y-108860049D01*
X142772786Y-108848390D01*
X143006639Y-108861011D01*
X143230600Y-108887870D01*
X143395864Y-108909811D01*
X143595649Y-108934520D01*
X143797087Y-108957988D01*
X143882266Y-108967371D01*
X144246065Y-109006501D01*
X144457999Y-108907248D01*
X144601869Y-108824587D01*
X144778407Y-108697958D01*
X144976756Y-108535293D01*
X145025533Y-108492542D01*
X145280453Y-108275055D01*
X145496459Y-108110033D01*
X145675972Y-107996287D01*
X145821417Y-107932627D01*
X145935216Y-107917862D01*
X146019794Y-107950803D01*
X146053856Y-107987561D01*
X146098501Y-108096417D01*
X146111338Y-108252171D01*
X146092024Y-108457447D01*
X146040217Y-108714870D01*
X145955571Y-109027063D01*
X145890436Y-109236933D01*
X145795692Y-109546449D01*
X145728407Y-109807794D01*
X145687255Y-110034108D01*
X145670907Y-110238533D01*
X145678037Y-110434207D01*
X145707318Y-110634273D01*
X145735962Y-110766069D01*
X145764705Y-110895476D01*
X145781498Y-111004419D01*
X145787273Y-111113934D01*
X145782956Y-111245058D01*
X145769480Y-111418831D01*
X145766354Y-111454014D01*
X145750532Y-111666146D01*
X145746624Y-111838457D01*
X145755091Y-111997883D01*
X145776393Y-112171360D01*
X145778923Y-112188366D01*
X145803844Y-112399993D01*
X145808258Y-112589808D01*
X145790254Y-112779189D01*
X145747918Y-112989512D01*
X145686960Y-113216001D01*
X145634348Y-113430496D01*
X145608651Y-113630433D01*
X145611491Y-113828852D01*
X145644493Y-114038791D01*
X145709280Y-114273289D01*
X145807476Y-114545387D01*
X145872589Y-114706815D01*
X145944421Y-114880630D01*
X146019829Y-115063693D01*
X146086976Y-115227249D01*
X146113604Y-115292358D01*
X146203186Y-115540626D01*
X146285270Y-115821018D01*
X146349677Y-116097980D01*
X146360334Y-116154200D01*
X146383269Y-116281200D01*
X137912682Y-116281200D01*
X138031654Y-116044952D01*
X138149779Y-115804565D01*
X138249931Y-115589047D01*
X138327202Y-115409377D01*
X138376685Y-115276532D01*
X138380236Y-115265200D01*
X138400801Y-115199087D01*
X138438410Y-115079426D01*
X138489588Y-114917219D01*
X138550861Y-114723468D01*
X138618757Y-114509177D01*
X138652887Y-114401599D01*
X138730069Y-114156563D01*
X138788813Y-113963539D01*
X138831905Y-113810216D01*
X138862129Y-113684284D01*
X138882272Y-113573432D01*
X138895118Y-113465351D01*
X138903452Y-113347728D01*
X138906926Y-113278730D01*
X138918087Y-113091196D01*
X138932296Y-112979623D01*
X141717757Y-112979623D01*
X141719694Y-113019994D01*
X141730278Y-113032647D01*
X141803717Y-113073717D01*
X141919650Y-113103906D01*
X142057162Y-113121719D01*
X142195337Y-113125660D01*
X142313259Y-113114231D01*
X142390012Y-113085937D01*
X142396516Y-113080312D01*
X142429262Y-113024718D01*
X142419407Y-112948462D01*
X142413502Y-112930627D01*
X142383815Y-112878687D01*
X144686866Y-112878687D01*
X144704551Y-112941786D01*
X144748193Y-113033044D01*
X144803672Y-113126018D01*
X144853538Y-113190866D01*
X144934699Y-113254710D01*
X145005238Y-113256156D01*
X145076333Y-113199333D01*
X145141407Y-113148095D01*
X145191649Y-113131473D01*
X145269989Y-113111281D01*
X145357056Y-113062020D01*
X145429793Y-113000191D01*
X145465146Y-112942298D01*
X145465800Y-112935233D01*
X145437741Y-112864447D01*
X145363776Y-112779801D01*
X145259219Y-112696413D01*
X145171148Y-112644399D01*
X145065520Y-112602448D01*
X144991444Y-112593030D01*
X144957636Y-112611497D01*
X144972816Y-112653201D01*
X145043842Y-112712282D01*
X145128558Y-112785740D01*
X145176845Y-112863855D01*
X145177747Y-112928391D01*
X145175762Y-112931913D01*
X145146010Y-112931245D01*
X145100240Y-112879494D01*
X145090027Y-112863480D01*
X145027639Y-112785212D01*
X144973858Y-112757024D01*
X144940416Y-112779137D01*
X144939044Y-112851772D01*
X144940866Y-112860666D01*
X144945500Y-112938858D01*
X144917818Y-112960460D01*
X144864706Y-112921339D01*
X144856200Y-112911466D01*
X144806920Y-112877890D01*
X144744086Y-112860269D01*
X144696349Y-112864152D01*
X144686866Y-112878687D01*
X142383815Y-112878687D01*
X142360684Y-112838220D01*
X142288100Y-112810368D01*
X142193983Y-112846577D01*
X142170804Y-112862652D01*
X142092881Y-112908419D01*
X142043532Y-112904961D01*
X142035182Y-112897995D01*
X141956969Y-112863286D01*
X141857004Y-112876558D01*
X141769618Y-112925996D01*
X141717757Y-112979623D01*
X138932296Y-112979623D01*
X138936091Y-112949831D01*
X138968089Y-112833071D01*
X139021235Y-112719351D01*
X139102680Y-112587108D01*
X139169006Y-112488583D01*
X139193034Y-112449127D01*
X140919646Y-112449127D01*
X140920268Y-112558679D01*
X140929965Y-112599340D01*
X140966418Y-112687113D01*
X141026556Y-112731150D01*
X141072504Y-112744183D01*
X141173758Y-112779920D01*
X141282283Y-112836993D01*
X141299595Y-112848276D01*
X141430559Y-112912097D01*
X141550601Y-112923828D01*
X141645674Y-112882401D01*
X141653381Y-112875180D01*
X141699770Y-112800436D01*
X143057967Y-112800436D01*
X143076466Y-112826411D01*
X143082548Y-112826800D01*
X143115067Y-112805157D01*
X143184416Y-112747163D01*
X143278413Y-112663217D01*
X143330452Y-112615133D01*
X143550241Y-112427090D01*
X143753732Y-112287416D01*
X143935199Y-112199457D01*
X144088916Y-112166555D01*
X144098866Y-112166400D01*
X144226648Y-112184310D01*
X144342770Y-112243575D01*
X144459763Y-112352494D01*
X144551400Y-112466088D01*
X144669933Y-112625019D01*
X144680724Y-112520312D01*
X144665908Y-112396424D01*
X144591998Y-112281536D01*
X144455081Y-112170028D01*
X144422228Y-112149133D01*
X144284189Y-112063188D01*
X144195693Y-112003546D01*
X144148240Y-111961603D01*
X144133326Y-111928755D01*
X144142450Y-111896399D01*
X144153622Y-111877311D01*
X144198396Y-111825004D01*
X144226680Y-111810800D01*
X144289995Y-111782483D01*
X144348583Y-111715395D01*
X144380707Y-111636327D01*
X144382066Y-111619284D01*
X144358393Y-111557546D01*
X144296146Y-111539269D01*
X144208482Y-111564193D01*
X144117309Y-111624533D01*
X144040085Y-111679631D01*
X143977214Y-111708120D01*
X143968214Y-111709200D01*
X143913447Y-111686180D01*
X143845628Y-111630196D01*
X143840200Y-111624533D01*
X143772744Y-111575554D01*
X143691584Y-111545144D01*
X143618174Y-111537398D01*
X143573968Y-111556414D01*
X143569267Y-111572802D01*
X143595534Y-111606653D01*
X143664487Y-111664092D01*
X143761352Y-111732844D01*
X143764000Y-111734600D01*
X143861672Y-111805554D01*
X143931557Y-111868386D01*
X143958727Y-111909646D01*
X143958733Y-111910019D01*
X143931261Y-111951256D01*
X143860723Y-112007120D01*
X143799478Y-112044555D01*
X143691897Y-112114216D01*
X143573231Y-112207708D01*
X143451150Y-112316661D01*
X143333324Y-112432706D01*
X143227422Y-112547475D01*
X143141116Y-112652599D01*
X143082074Y-112739708D01*
X143057967Y-112800436D01*
X141699770Y-112800436D01*
X141704335Y-112793082D01*
X141687821Y-112716302D01*
X141603907Y-112644983D01*
X141525198Y-112606516D01*
X141426568Y-112546406D01*
X141349152Y-112467537D01*
X141340118Y-112453333D01*
X141283390Y-112371403D01*
X141220654Y-112335638D01*
X141127241Y-112335468D01*
X141080727Y-112342186D01*
X140971886Y-112379087D01*
X140919646Y-112449127D01*
X139193034Y-112449127D01*
X139289279Y-112291086D01*
X139413897Y-112048842D01*
X139532575Y-111783238D01*
X139630035Y-111529931D01*
X139681693Y-111353692D01*
X139714521Y-111163206D01*
X139733000Y-110932320D01*
X139733227Y-110927660D01*
X139738286Y-110708833D01*
X139730302Y-110495884D01*
X139707400Y-110274501D01*
X139667705Y-110030369D01*
X139609345Y-109749176D01*
X139540916Y-109459126D01*
X139457139Y-109085441D01*
X139403402Y-108764718D01*
X139380374Y-108496487D01*
X139441455Y-108496487D01*
X139462709Y-108731155D01*
X139507278Y-109004730D01*
X139575581Y-109324680D01*
X139668040Y-109698471D01*
X139693529Y-109795733D01*
X139746820Y-110004992D01*
X139783193Y-110172358D01*
X139806022Y-110320559D01*
X139818680Y-110472326D01*
X139824540Y-110650387D01*
X139825060Y-110682072D01*
X139832966Y-110903493D01*
X139850453Y-111061097D01*
X139879590Y-111158384D01*
X139922443Y-111198853D01*
X139981082Y-111186001D01*
X140057573Y-111123330D01*
X140075138Y-111105186D01*
X140158186Y-111016271D01*
X140187457Y-110984570D01*
X140859933Y-110984570D01*
X140881395Y-111036798D01*
X140934104Y-111108071D01*
X140944600Y-111119733D01*
X141015206Y-111237043D01*
X141029266Y-111320111D01*
X141061020Y-111453244D01*
X141148846Y-111564392D01*
X141281587Y-111639841D01*
X141292263Y-111643428D01*
X141407611Y-111687562D01*
X141471307Y-111739261D01*
X141498253Y-111818675D01*
X141503400Y-111928912D01*
X141516583Y-112074267D01*
X141559609Y-112176827D01*
X141571133Y-112192574D01*
X141618393Y-112262663D01*
X141638844Y-112312828D01*
X141638867Y-112313754D01*
X141663897Y-112357530D01*
X141712826Y-112400628D01*
X141809758Y-112435130D01*
X141929128Y-112414634D01*
X142077664Y-112337962D01*
X142080318Y-112336270D01*
X142157667Y-112291681D01*
X142279539Y-112226992D01*
X142429156Y-112150903D01*
X142588318Y-112072803D01*
X142838571Y-111943471D01*
X143033798Y-111820261D01*
X143184930Y-111693888D01*
X143302900Y-111555070D01*
X143398640Y-111394521D01*
X143407155Y-111377437D01*
X143518467Y-111150839D01*
X143511150Y-110645061D01*
X143500558Y-110321369D01*
X143479048Y-110063886D01*
X143468516Y-110001726D01*
X143550776Y-110001726D01*
X143552767Y-110060918D01*
X143599245Y-110128368D01*
X143657361Y-110183666D01*
X143734885Y-110247677D01*
X143780766Y-110269850D01*
X143811624Y-110255870D01*
X143824042Y-110240666D01*
X143865903Y-110202528D01*
X143889041Y-110228577D01*
X143893582Y-110319186D01*
X143885755Y-110421319D01*
X143887339Y-110608716D01*
X143939648Y-110767047D01*
X144049158Y-110911046D01*
X144135180Y-110988707D01*
X144238342Y-111090695D01*
X144330930Y-111210925D01*
X144364989Y-111268648D01*
X144454559Y-111421666D01*
X144565009Y-111575595D01*
X144681913Y-111712742D01*
X144790845Y-111815415D01*
X144837481Y-111848100D01*
X144925413Y-111923936D01*
X144998045Y-112025940D01*
X145006531Y-112043279D01*
X145066642Y-112152492D01*
X145137791Y-112251140D01*
X145148321Y-112262989D01*
X145222185Y-112322354D01*
X145294885Y-112350482D01*
X145348055Y-112343480D01*
X145364200Y-112308754D01*
X145371306Y-112274804D01*
X145397720Y-112226287D01*
X145451088Y-112151710D01*
X145539057Y-112039583D01*
X145563720Y-112008848D01*
X145594322Y-111967011D01*
X145616502Y-111921653D01*
X145631993Y-111861023D01*
X145642530Y-111773371D01*
X145649846Y-111646945D01*
X145655675Y-111469996D01*
X145658358Y-111367476D01*
X145662660Y-111152180D01*
X145662366Y-110988924D01*
X145656345Y-110862107D01*
X145643469Y-110756123D01*
X145622606Y-110655370D01*
X145600833Y-110573123D01*
X145566329Y-110443556D01*
X145549158Y-110346938D01*
X145548369Y-110256444D01*
X145563009Y-110145251D01*
X145581941Y-110040668D01*
X145616716Y-109877729D01*
X145659180Y-109710522D01*
X145700586Y-109573283D01*
X145703562Y-109564704D01*
X145751710Y-109418156D01*
X145805112Y-109239804D01*
X145860290Y-109043170D01*
X145913765Y-108841778D01*
X145962060Y-108649151D01*
X146001697Y-108478813D01*
X146029196Y-108344286D01*
X146041081Y-108259093D01*
X146041302Y-108251582D01*
X146017329Y-108127555D01*
X145949973Y-108049493D01*
X145846907Y-108024562D01*
X145803881Y-108029703D01*
X145672467Y-108074043D01*
X145521061Y-108160395D01*
X145343866Y-108292771D01*
X145135086Y-108475180D01*
X145064080Y-108541533D01*
X144871421Y-108715121D01*
X144706428Y-108843379D01*
X144556734Y-108935615D01*
X144508011Y-108960004D01*
X144398188Y-109016035D01*
X144317457Y-109065115D01*
X144281137Y-109097779D01*
X144280466Y-109100643D01*
X144312119Y-109150463D01*
X144400265Y-109206648D01*
X144534689Y-109263834D01*
X144678065Y-109309324D01*
X144796507Y-109345624D01*
X144889876Y-109380571D01*
X144937501Y-109406287D01*
X144958072Y-109460554D01*
X144964119Y-109549566D01*
X144963216Y-109567523D01*
X144975541Y-109690695D01*
X145038811Y-109808192D01*
X145040719Y-109810779D01*
X145095993Y-109907515D01*
X145125574Y-110002382D01*
X145127133Y-110022446D01*
X145112555Y-110087457D01*
X145064501Y-110115553D01*
X144976490Y-110106658D01*
X144842044Y-110060693D01*
X144742111Y-110017860D01*
X144616378Y-109956208D01*
X144537869Y-109901112D01*
X144489265Y-109838577D01*
X144469749Y-109797727D01*
X144416385Y-109709374D01*
X144348602Y-109680408D01*
X144256066Y-109708836D01*
X144195800Y-109744933D01*
X144088775Y-109801041D01*
X144009778Y-109800793D01*
X143944899Y-109741019D01*
X143909189Y-109679662D01*
X143843605Y-109584581D01*
X143769204Y-109525771D01*
X143701060Y-109512678D01*
X143670198Y-109529902D01*
X143648877Y-109577085D01*
X143623379Y-109668053D01*
X143606782Y-109744933D01*
X143583042Y-109862570D01*
X143560938Y-109961917D01*
X143550776Y-110001726D01*
X143468516Y-110001726D01*
X143446527Y-109871961D01*
X143402900Y-109744939D01*
X143376295Y-109704883D01*
X143309932Y-109664843D01*
X143250906Y-109687392D01*
X143220174Y-109747276D01*
X143176609Y-109801298D01*
X143088721Y-109806484D01*
X142959208Y-109762751D01*
X142944143Y-109755718D01*
X142864172Y-109721390D01*
X142813745Y-109720994D01*
X142761863Y-109758092D01*
X142739015Y-109779286D01*
X142670000Y-109829351D01*
X142584596Y-109854271D01*
X142461766Y-109861634D01*
X142270222Y-109863466D01*
X142156170Y-110058314D01*
X142024888Y-110231281D01*
X141870466Y-110340753D01*
X141692343Y-110387096D01*
X141648682Y-110388862D01*
X141507906Y-110396506D01*
X141417797Y-110424135D01*
X141362203Y-110480643D01*
X141327693Y-110565650D01*
X141290922Y-110656172D01*
X141233775Y-110715476D01*
X141133587Y-110767020D01*
X141132769Y-110767371D01*
X140982678Y-110843729D01*
X140890129Y-110918285D01*
X140859933Y-110984570D01*
X140187457Y-110984570D01*
X140250724Y-110916054D01*
X140271365Y-110893519D01*
X140364495Y-110800446D01*
X140463177Y-110714367D01*
X140484534Y-110697846D01*
X140551781Y-110640857D01*
X140577955Y-110586191D01*
X140574658Y-110503578D01*
X140570405Y-110473792D01*
X140573984Y-110281426D01*
X140606881Y-110145523D01*
X140653017Y-110012228D01*
X140700213Y-109922577D01*
X140765340Y-109854353D01*
X140865272Y-109785339D01*
X140893800Y-109767724D01*
X141007798Y-109692257D01*
X141137605Y-109598107D01*
X141215533Y-109537395D01*
X141341391Y-109446361D01*
X141481968Y-109360449D01*
X141562667Y-109319031D01*
X141658929Y-109267578D01*
X141723495Y-109218770D01*
X141740467Y-109191216D01*
X141714809Y-109151496D01*
X141646158Y-109084551D01*
X141546994Y-109002018D01*
X141494933Y-108962292D01*
X141104167Y-108658136D01*
X140776831Y-108373255D01*
X140513430Y-108108101D01*
X140439174Y-108023286D01*
X140255226Y-107819975D01*
X140096066Y-107677447D01*
X139958416Y-107594840D01*
X139838999Y-107571291D01*
X139734538Y-107605938D01*
X139641755Y-107697918D01*
X139581190Y-107797520D01*
X139513383Y-107951241D01*
X139467212Y-108113998D01*
X139443096Y-108293257D01*
X139441455Y-108496487D01*
X139380374Y-108496487D01*
X139379747Y-108489189D01*
X139386218Y-108251088D01*
X139422857Y-108042646D01*
X139489707Y-107856098D01*
X139550326Y-107741316D01*
X139633912Y-107616413D01*
X139715821Y-107532473D01*
X139802476Y-107491064D01*
X139900297Y-107493753D01*
D12*
X133625000Y-91674000D02*
X130535000Y-91674000D01*
X134580000Y-94234000D02*
G75*
G03X134580000Y-94234000I-2500000J0D01*
G01*
X132079538Y-97224000D02*
G75*
G03X133624830Y-91674000I462J2990000D01*
G01*
X132080462Y-97224000D02*
G75*
G02X130535170Y-91674000I-462J2990000D01*
G01*
X134240000Y-105978000D02*
X134240000Y-103318000D01*
X126560000Y-105978000D02*
X134240000Y-105978000D01*
X126560000Y-103318000D02*
X134240000Y-103318000D01*
X126560000Y-105978000D02*
X126560000Y-103318000D01*
X125290000Y-105978000D02*
X123960000Y-105978000D01*
X123960000Y-105978000D02*
X123960000Y-104648000D01*
D10*
X148525000Y-77745000D02*
X148525000Y-106095000D01*
X157125000Y-77745000D02*
X148575000Y-77745000D01*
X148625000Y-106045000D02*
X200025000Y-106045000D01*
X200025000Y-106045000D02*
X200025000Y-77745000D01*
X200025000Y-77745000D02*
X157025000Y-77745000D01*
D12*
X151995000Y-80375000D02*
X151995000Y-79045000D01*
X153325000Y-80375000D02*
X151995000Y-80375000D01*
X154995000Y-80475000D02*
X154995000Y-77815000D01*
X154995000Y-77815000D02*
X190615000Y-77815000D01*
X154595000Y-80375000D02*
X190215000Y-80375000D01*
X190615000Y-80475000D02*
X190615000Y-77815000D01*
X190615000Y-80475000D02*
X190615000Y-77815000D01*
X154595000Y-80375000D02*
X190215000Y-80375000D01*
X154995000Y-77815000D02*
X190615000Y-77815000D01*
X154995000Y-80475000D02*
X154995000Y-77815000D01*
X153325000Y-80375000D02*
X151995000Y-80375000D01*
X151995000Y-80375000D02*
X151995000Y-79045000D01*
X152095000Y-106075000D02*
X152095000Y-104745000D01*
X153425000Y-106075000D02*
X152095000Y-106075000D01*
X154695000Y-106075000D02*
X154695000Y-103415000D01*
X154695000Y-103415000D02*
X190315000Y-103415000D01*
X154695000Y-106075000D02*
X190315000Y-106075000D01*
X190315000Y-106075000D02*
X190315000Y-103415000D01*
X190315000Y-106075000D02*
X190315000Y-103415000D01*
X154695000Y-106075000D02*
X190315000Y-106075000D01*
X154695000Y-103415000D02*
X190315000Y-103415000D01*
X154695000Y-106075000D02*
X154695000Y-103415000D01*
X153425000Y-106075000D02*
X152095000Y-106075000D01*
X152095000Y-106075000D02*
X152095000Y-104745000D01*
X152086000Y-111058000D02*
X152086000Y-109728000D01*
X153416000Y-111058000D02*
X152086000Y-111058000D01*
X154686000Y-111058000D02*
X154686000Y-108398000D01*
X154686000Y-108398000D02*
X190306000Y-108398000D01*
X154686000Y-111058000D02*
X190306000Y-111058000D01*
X190306000Y-111058000D02*
X190306000Y-108398000D01*
X190306000Y-74990000D02*
X190306000Y-72330000D01*
X154686000Y-74990000D02*
X190306000Y-74990000D01*
X154686000Y-72330000D02*
X190306000Y-72330000D01*
X154686000Y-74990000D02*
X154686000Y-72330000D01*
X153416000Y-74990000D02*
X152086000Y-74990000D01*
X152086000Y-74990000D02*
X152086000Y-73660000D01*
X140850000Y-98656000D02*
X140850000Y-91836000D01*
X143390000Y-98656000D02*
X143390000Y-91836000D01*
X140850000Y-98656000D02*
X143390000Y-98656000D01*
X140850000Y-91836000D02*
X143390000Y-91836000D01*
X141589000Y-98656000D02*
X141589000Y-98545000D01*
X141589000Y-96527000D02*
X141589000Y-96254000D01*
X141589000Y-94237000D02*
X141589000Y-93964000D01*
X141589000Y-91947000D02*
X141589000Y-91836000D01*
X144668000Y-105568000D02*
X140828000Y-105568000D01*
X144668000Y-103728000D02*
X140828000Y-103728000D01*
X132688000Y-76106000D02*
X144988000Y-76106000D01*
X144988000Y-80686000D02*
X144988000Y-83826000D01*
X144988000Y-88406000D02*
X132688000Y-88406000D01*
X132688000Y-78826000D02*
X132688000Y-76106000D01*
X143517050Y-82296000D02*
G75*
G03X143517050Y-82296000I-4579050J0D01*
G01*
X132688000Y-88406000D02*
X132688000Y-85686000D01*
X132688000Y-83826000D02*
X132688000Y-80686000D01*
X144988000Y-85686000D02*
X144988000Y-88406000D01*
X144988000Y-76106000D02*
X144988000Y-78826000D01*
X143510000Y-74168000D02*
X133350000Y-74168000D01*
X143510000Y-75438000D02*
X143510000Y-67818000D01*
X143510000Y-67818000D02*
X133350000Y-67818000D01*
X133350000Y-67818000D02*
X133350000Y-75438000D01*
X133350000Y-75438000D02*
X143510000Y-75438000D01*
D10*
X126285666Y-67261380D02*
X126904714Y-67261380D01*
X126571380Y-67642333D01*
X126714238Y-67642333D01*
X126809476Y-67689952D01*
X126857095Y-67737571D01*
X126904714Y-67832809D01*
X126904714Y-68070904D01*
X126857095Y-68166142D01*
X126809476Y-68213761D01*
X126714238Y-68261380D01*
X126428523Y-68261380D01*
X126333285Y-68213761D01*
X126285666Y-68166142D01*
X126809476Y-110901714D02*
X126809476Y-111568380D01*
X126571380Y-110520761D02*
X126333285Y-111235047D01*
X126952333Y-111235047D01*
X199421714Y-111822380D02*
X198850285Y-111822380D01*
X199136000Y-111822380D02*
X199136000Y-110822380D01*
X199040761Y-110965238D01*
X198945523Y-111060476D01*
X198850285Y-111108095D01*
X199104285Y-67610619D02*
X199151904Y-67563000D01*
X199247142Y-67515380D01*
X199485238Y-67515380D01*
X199580476Y-67563000D01*
X199628095Y-67610619D01*
X199675714Y-67705857D01*
X199675714Y-67801095D01*
X199628095Y-67943952D01*
X199056666Y-68515380D01*
X199675714Y-68515380D01*
X287401095Y-205414619D02*
X287448714Y-205367000D01*
X287543952Y-205319380D01*
X287782047Y-205319380D01*
X287877285Y-205367000D01*
X287924904Y-205414619D01*
X287972523Y-205509857D01*
X287972523Y-205605095D01*
X287924904Y-205747952D01*
X287353476Y-206319380D01*
X287972523Y-206319380D01*
X288924904Y-206319380D02*
X288353476Y-206319380D01*
X288639190Y-206319380D02*
X288639190Y-205319380D01*
X288543952Y-205462238D01*
X288448714Y-205557476D01*
X288353476Y-205605095D01*
X136492380Y-94972095D02*
X135492380Y-94972095D01*
X135492380Y-94734000D01*
X135540000Y-94591142D01*
X135635238Y-94495904D01*
X135730476Y-94448285D01*
X135920952Y-94400666D01*
X136063809Y-94400666D01*
X136254285Y-94448285D01*
X136349523Y-94495904D01*
X136444761Y-94591142D01*
X136492380Y-94734000D01*
X136492380Y-94972095D01*
X136492380Y-93448285D02*
X136492380Y-94019714D01*
X136492380Y-93734000D02*
X135492380Y-93734000D01*
X135635238Y-93829238D01*
X135730476Y-93924476D01*
X135778095Y-94019714D01*
X127040000Y-107640380D02*
X127040000Y-106640380D01*
X127278095Y-106640380D01*
X127420952Y-106688000D01*
X127516190Y-106783238D01*
X127563809Y-106878476D01*
X127611428Y-107068952D01*
X127611428Y-107211809D01*
X127563809Y-107402285D01*
X127516190Y-107497523D01*
X127420952Y-107592761D01*
X127278095Y-107640380D01*
X127040000Y-107640380D01*
X128040000Y-107640380D02*
X128040000Y-106640380D01*
X128040000Y-107116571D02*
X128611428Y-107116571D01*
X128611428Y-107640380D02*
X128611428Y-106640380D01*
X128944761Y-106640380D02*
X129516190Y-106640380D01*
X129230476Y-107640380D02*
X129230476Y-106640380D01*
X129611428Y-107735619D02*
X130373333Y-107735619D01*
X130563809Y-106735619D02*
X130611428Y-106688000D01*
X130706666Y-106640380D01*
X130944761Y-106640380D01*
X131040000Y-106688000D01*
X131087619Y-106735619D01*
X131135238Y-106830857D01*
X131135238Y-106926095D01*
X131087619Y-107068952D01*
X130516190Y-107640380D01*
X131135238Y-107640380D01*
X131516190Y-106735619D02*
X131563809Y-106688000D01*
X131659047Y-106640380D01*
X131897142Y-106640380D01*
X131992380Y-106688000D01*
X132040000Y-106735619D01*
X132087619Y-106830857D01*
X132087619Y-106926095D01*
X132040000Y-107068952D01*
X131468571Y-107640380D01*
X132087619Y-107640380D01*
X132540000Y-101659904D02*
X132492380Y-101755142D01*
X132492380Y-101898000D01*
X132540000Y-102040857D01*
X132635238Y-102136095D01*
X132730476Y-102183714D01*
X132920952Y-102231333D01*
X133063809Y-102231333D01*
X133254285Y-102183714D01*
X133349523Y-102136095D01*
X133444761Y-102040857D01*
X133492380Y-101898000D01*
X133492380Y-101802761D01*
X133444761Y-101659904D01*
X133397142Y-101612285D01*
X133063809Y-101612285D01*
X133063809Y-101802761D01*
X133492380Y-101183714D02*
X132492380Y-101183714D01*
X133492380Y-100612285D01*
X132492380Y-100612285D01*
X133492380Y-100136095D02*
X132492380Y-100136095D01*
X132492380Y-99898000D01*
X132540000Y-99755142D01*
X132635238Y-99659904D01*
X132730476Y-99612285D01*
X132920952Y-99564666D01*
X133063809Y-99564666D01*
X133254285Y-99612285D01*
X133349523Y-99659904D01*
X133444761Y-99755142D01*
X133492380Y-99898000D01*
X133492380Y-100136095D01*
X131008380Y-102385714D02*
X130008380Y-102385714D01*
X131008380Y-101814285D01*
X130008380Y-101814285D01*
X130913142Y-100766666D02*
X130960761Y-100814285D01*
X131008380Y-100957142D01*
X131008380Y-101052380D01*
X130960761Y-101195238D01*
X130865523Y-101290476D01*
X130770285Y-101338095D01*
X130579809Y-101385714D01*
X130436952Y-101385714D01*
X130246476Y-101338095D01*
X130151238Y-101290476D01*
X130056000Y-101195238D01*
X130008380Y-101052380D01*
X130008380Y-100957142D01*
X130056000Y-100814285D01*
X130103619Y-100766666D01*
X128242380Y-102398000D02*
X127242380Y-102398000D01*
X127242380Y-102159904D01*
X127290000Y-102017047D01*
X127385238Y-101921809D01*
X127480476Y-101874190D01*
X127670952Y-101826571D01*
X127813809Y-101826571D01*
X128004285Y-101874190D01*
X128099523Y-101921809D01*
X128194761Y-102017047D01*
X128242380Y-102159904D01*
X128242380Y-102398000D01*
X127956666Y-101445619D02*
X127956666Y-100969428D01*
X128242380Y-101540857D02*
X127242380Y-101207523D01*
X128242380Y-100874190D01*
X127242380Y-100683714D02*
X127242380Y-100112285D01*
X128242380Y-100398000D02*
X127242380Y-100398000D01*
X127956666Y-99826571D02*
X127956666Y-99350380D01*
X128242380Y-99921809D02*
X127242380Y-99588476D01*
X128242380Y-99255142D01*
X124742380Y-102481333D02*
X125742380Y-102148000D01*
X124742380Y-101814666D01*
X125647142Y-100909904D02*
X125694761Y-100957523D01*
X125742380Y-101100380D01*
X125742380Y-101195619D01*
X125694761Y-101338476D01*
X125599523Y-101433714D01*
X125504285Y-101481333D01*
X125313809Y-101528952D01*
X125170952Y-101528952D01*
X124980476Y-101481333D01*
X124885238Y-101433714D01*
X124790000Y-101338476D01*
X124742380Y-101195619D01*
X124742380Y-101100380D01*
X124790000Y-100957523D01*
X124837619Y-100909904D01*
X125647142Y-99909904D02*
X125694761Y-99957523D01*
X125742380Y-100100380D01*
X125742380Y-100195619D01*
X125694761Y-100338476D01*
X125599523Y-100433714D01*
X125504285Y-100481333D01*
X125313809Y-100528952D01*
X125170952Y-100528952D01*
X124980476Y-100481333D01*
X124885238Y-100433714D01*
X124790000Y-100338476D01*
X124742380Y-100195619D01*
X124742380Y-100100380D01*
X124790000Y-99957523D01*
X124837619Y-99909904D01*
X146953571Y-93737857D02*
X146953571Y-93404523D01*
X147477380Y-93261666D02*
X147477380Y-93737857D01*
X146477380Y-93737857D01*
X146477380Y-93261666D01*
X147429761Y-92880714D02*
X147477380Y-92737857D01*
X147477380Y-92499761D01*
X147429761Y-92404523D01*
X147382142Y-92356904D01*
X147286904Y-92309285D01*
X147191666Y-92309285D01*
X147096428Y-92356904D01*
X147048809Y-92404523D01*
X147001190Y-92499761D01*
X146953571Y-92690238D01*
X146905952Y-92785476D01*
X146858333Y-92833095D01*
X146763095Y-92880714D01*
X146667857Y-92880714D01*
X146572619Y-92833095D01*
X146525000Y-92785476D01*
X146477380Y-92690238D01*
X146477380Y-92452142D01*
X146525000Y-92309285D01*
X147477380Y-91880714D02*
X146477380Y-91880714D01*
X146477380Y-91499761D01*
X146525000Y-91404523D01*
X146572619Y-91356904D01*
X146667857Y-91309285D01*
X146810714Y-91309285D01*
X146905952Y-91356904D01*
X146953571Y-91404523D01*
X147001190Y-91499761D01*
X147001190Y-91880714D01*
X146477380Y-90975952D02*
X146477380Y-90356904D01*
X146858333Y-90690238D01*
X146858333Y-90547380D01*
X146905952Y-90452142D01*
X146953571Y-90404523D01*
X147048809Y-90356904D01*
X147286904Y-90356904D01*
X147382142Y-90404523D01*
X147429761Y-90452142D01*
X147477380Y-90547380D01*
X147477380Y-90833095D01*
X147429761Y-90928333D01*
X147382142Y-90975952D01*
X146572619Y-89975952D02*
X146525000Y-89928333D01*
X146477380Y-89833095D01*
X146477380Y-89595000D01*
X146525000Y-89499761D01*
X146572619Y-89452142D01*
X146667857Y-89404523D01*
X146763095Y-89404523D01*
X146905952Y-89452142D01*
X147477380Y-90023571D01*
X147477380Y-89404523D01*
X152963619Y-71373904D02*
X152916000Y-71326285D01*
X152868380Y-71231047D01*
X152868380Y-70992952D01*
X152916000Y-70897714D01*
X152963619Y-70850095D01*
X153058857Y-70802476D01*
X153154095Y-70802476D01*
X153296952Y-70850095D01*
X153868380Y-71421523D01*
X153868380Y-70802476D01*
X152868380Y-70469142D02*
X152868380Y-69850095D01*
X153249333Y-70183428D01*
X153249333Y-70040571D01*
X153296952Y-69945333D01*
X153344571Y-69897714D01*
X153439809Y-69850095D01*
X153677904Y-69850095D01*
X153773142Y-69897714D01*
X153820761Y-69945333D01*
X153868380Y-70040571D01*
X153868380Y-70326285D01*
X153820761Y-70421523D01*
X153773142Y-70469142D01*
X155503619Y-71373904D02*
X155456000Y-71326285D01*
X155408380Y-71231047D01*
X155408380Y-70992952D01*
X155456000Y-70897714D01*
X155503619Y-70850095D01*
X155598857Y-70802476D01*
X155694095Y-70802476D01*
X155836952Y-70850095D01*
X156408380Y-71421523D01*
X156408380Y-70802476D01*
X155503619Y-70421523D02*
X155456000Y-70373904D01*
X155408380Y-70278666D01*
X155408380Y-70040571D01*
X155456000Y-69945333D01*
X155503619Y-69897714D01*
X155598857Y-69850095D01*
X155694095Y-69850095D01*
X155836952Y-69897714D01*
X156408380Y-70469142D01*
X156408380Y-69850095D01*
X158948380Y-70326285D02*
X158948380Y-70897714D01*
X158948380Y-70612000D02*
X157948380Y-70612000D01*
X158091238Y-70707238D01*
X158186476Y-70802476D01*
X158234095Y-70897714D01*
X160488380Y-70945333D02*
X160488380Y-70326285D01*
X160869333Y-70659619D01*
X160869333Y-70516761D01*
X160916952Y-70421523D01*
X160964571Y-70373904D01*
X161059809Y-70326285D01*
X161297904Y-70326285D01*
X161393142Y-70373904D01*
X161440761Y-70421523D01*
X161488380Y-70516761D01*
X161488380Y-70802476D01*
X161440761Y-70897714D01*
X161393142Y-70945333D01*
X163123619Y-71373904D02*
X163076000Y-71326285D01*
X163028380Y-71231047D01*
X163028380Y-70992952D01*
X163076000Y-70897714D01*
X163123619Y-70850095D01*
X163218857Y-70802476D01*
X163314095Y-70802476D01*
X163456952Y-70850095D01*
X164028380Y-71421523D01*
X164028380Y-70802476D01*
X164028380Y-69850095D02*
X164028380Y-70421523D01*
X164028380Y-70135809D02*
X163028380Y-70135809D01*
X163171238Y-70231047D01*
X163266476Y-70326285D01*
X163314095Y-70421523D01*
X166568380Y-70802476D02*
X166568380Y-71373904D01*
X166568380Y-71088190D02*
X165568380Y-71088190D01*
X165711238Y-71183428D01*
X165806476Y-71278666D01*
X165854095Y-71373904D01*
X166568380Y-70326285D02*
X166568380Y-70135809D01*
X166520761Y-70040571D01*
X166473142Y-69992952D01*
X166330285Y-69897714D01*
X166139809Y-69850095D01*
X165758857Y-69850095D01*
X165663619Y-69897714D01*
X165616000Y-69945333D01*
X165568380Y-70040571D01*
X165568380Y-70231047D01*
X165616000Y-70326285D01*
X165663619Y-70373904D01*
X165758857Y-70421523D01*
X165996952Y-70421523D01*
X166092190Y-70373904D01*
X166139809Y-70326285D01*
X166187428Y-70231047D01*
X166187428Y-70040571D01*
X166139809Y-69945333D01*
X166092190Y-69897714D01*
X165996952Y-69850095D01*
X169108380Y-70802476D02*
X169108380Y-71373904D01*
X169108380Y-71088190D02*
X168108380Y-71088190D01*
X168251238Y-71183428D01*
X168346476Y-71278666D01*
X168394095Y-71373904D01*
X168536952Y-70231047D02*
X168489333Y-70326285D01*
X168441714Y-70373904D01*
X168346476Y-70421523D01*
X168298857Y-70421523D01*
X168203619Y-70373904D01*
X168156000Y-70326285D01*
X168108380Y-70231047D01*
X168108380Y-70040571D01*
X168156000Y-69945333D01*
X168203619Y-69897714D01*
X168298857Y-69850095D01*
X168346476Y-69850095D01*
X168441714Y-69897714D01*
X168489333Y-69945333D01*
X168536952Y-70040571D01*
X168536952Y-70231047D01*
X168584571Y-70326285D01*
X168632190Y-70373904D01*
X168727428Y-70421523D01*
X168917904Y-70421523D01*
X169013142Y-70373904D01*
X169060761Y-70326285D01*
X169108380Y-70231047D01*
X169108380Y-70040571D01*
X169060761Y-69945333D01*
X169013142Y-69897714D01*
X168917904Y-69850095D01*
X168727428Y-69850095D01*
X168632190Y-69897714D01*
X168584571Y-69945333D01*
X168536952Y-70040571D01*
X170648380Y-70373904D02*
X170648380Y-70850095D01*
X171124571Y-70897714D01*
X171076952Y-70850095D01*
X171029333Y-70754857D01*
X171029333Y-70516761D01*
X171076952Y-70421523D01*
X171124571Y-70373904D01*
X171219809Y-70326285D01*
X171457904Y-70326285D01*
X171553142Y-70373904D01*
X171600761Y-70421523D01*
X171648380Y-70516761D01*
X171648380Y-70754857D01*
X171600761Y-70850095D01*
X171553142Y-70897714D01*
X174188380Y-70802476D02*
X174188380Y-71373904D01*
X174188380Y-71088190D02*
X173188380Y-71088190D01*
X173331238Y-71183428D01*
X173426476Y-71278666D01*
X173474095Y-71373904D01*
X173188380Y-70469142D02*
X173188380Y-69802476D01*
X174188380Y-70231047D01*
X176728380Y-70802476D02*
X176728380Y-71373904D01*
X176728380Y-71088190D02*
X175728380Y-71088190D01*
X175871238Y-71183428D01*
X175966476Y-71278666D01*
X176014095Y-71373904D01*
X175728380Y-69945333D02*
X175728380Y-70135809D01*
X175776000Y-70231047D01*
X175823619Y-70278666D01*
X175966476Y-70373904D01*
X176156952Y-70421523D01*
X176537904Y-70421523D01*
X176633142Y-70373904D01*
X176680761Y-70326285D01*
X176728380Y-70231047D01*
X176728380Y-70040571D01*
X176680761Y-69945333D01*
X176633142Y-69897714D01*
X176537904Y-69850095D01*
X176299809Y-69850095D01*
X176204571Y-69897714D01*
X176156952Y-69945333D01*
X176109333Y-70040571D01*
X176109333Y-70231047D01*
X176156952Y-70326285D01*
X176204571Y-70373904D01*
X176299809Y-70421523D01*
X178601714Y-70421523D02*
X179268380Y-70421523D01*
X178220761Y-70659619D02*
X178935047Y-70897714D01*
X178935047Y-70278666D01*
X180903619Y-70897714D02*
X180856000Y-70850095D01*
X180808380Y-70754857D01*
X180808380Y-70516761D01*
X180856000Y-70421523D01*
X180903619Y-70373904D01*
X180998857Y-70326285D01*
X181094095Y-70326285D01*
X181236952Y-70373904D01*
X181808380Y-70945333D01*
X181808380Y-70326285D01*
X184348380Y-70802476D02*
X184348380Y-71373904D01*
X184348380Y-71088190D02*
X183348380Y-71088190D01*
X183491238Y-71183428D01*
X183586476Y-71278666D01*
X183634095Y-71373904D01*
X183348380Y-69897714D02*
X183348380Y-70373904D01*
X183824571Y-70421523D01*
X183776952Y-70373904D01*
X183729333Y-70278666D01*
X183729333Y-70040571D01*
X183776952Y-69945333D01*
X183824571Y-69897714D01*
X183919809Y-69850095D01*
X184157904Y-69850095D01*
X184253142Y-69897714D01*
X184300761Y-69945333D01*
X184348380Y-70040571D01*
X184348380Y-70278666D01*
X184300761Y-70373904D01*
X184253142Y-70421523D01*
X188428380Y-71342095D02*
X188428380Y-70723047D01*
X188809333Y-71056380D01*
X188809333Y-70913523D01*
X188856952Y-70818285D01*
X188904571Y-70770666D01*
X188999809Y-70723047D01*
X189237904Y-70723047D01*
X189333142Y-70770666D01*
X189380761Y-70818285D01*
X189428380Y-70913523D01*
X189428380Y-71199238D01*
X189380761Y-71294476D01*
X189333142Y-71342095D01*
X188428380Y-70437333D02*
X189428380Y-70104000D01*
X188428380Y-69770666D01*
X188428380Y-69532571D02*
X188428380Y-68913523D01*
X188809333Y-69246857D01*
X188809333Y-69104000D01*
X188856952Y-69008761D01*
X188904571Y-68961142D01*
X188999809Y-68913523D01*
X189237904Y-68913523D01*
X189333142Y-68961142D01*
X189380761Y-69008761D01*
X189428380Y-69104000D01*
X189428380Y-69389714D01*
X189380761Y-69484952D01*
X189333142Y-69532571D01*
X188428380Y-114379238D02*
X189428380Y-114045904D01*
X188428380Y-113712571D01*
X189428380Y-113379238D02*
X188428380Y-113379238D01*
X189428380Y-112903047D02*
X188428380Y-112903047D01*
X189428380Y-112331619D01*
X188428380Y-112331619D01*
X185936000Y-70865904D02*
X185888380Y-70961142D01*
X185888380Y-71104000D01*
X185936000Y-71246857D01*
X186031238Y-71342095D01*
X186126476Y-71389714D01*
X186316952Y-71437333D01*
X186459809Y-71437333D01*
X186650285Y-71389714D01*
X186745523Y-71342095D01*
X186840761Y-71246857D01*
X186888380Y-71104000D01*
X186888380Y-71008761D01*
X186840761Y-70865904D01*
X186793142Y-70818285D01*
X186459809Y-70818285D01*
X186459809Y-71008761D01*
X186888380Y-70389714D02*
X185888380Y-70389714D01*
X186888380Y-69818285D01*
X185888380Y-69818285D01*
X186888380Y-69342095D02*
X185888380Y-69342095D01*
X185888380Y-69104000D01*
X185936000Y-68961142D01*
X186031238Y-68865904D01*
X186126476Y-68818285D01*
X186316952Y-68770666D01*
X186459809Y-68770666D01*
X186650285Y-68818285D01*
X186745523Y-68865904D01*
X186840761Y-68961142D01*
X186888380Y-69104000D01*
X186888380Y-69342095D01*
X185936000Y-114045904D02*
X185888380Y-114141142D01*
X185888380Y-114284000D01*
X185936000Y-114426857D01*
X186031238Y-114522095D01*
X186126476Y-114569714D01*
X186316952Y-114617333D01*
X186459809Y-114617333D01*
X186650285Y-114569714D01*
X186745523Y-114522095D01*
X186840761Y-114426857D01*
X186888380Y-114284000D01*
X186888380Y-114188761D01*
X186840761Y-114045904D01*
X186793142Y-113998285D01*
X186459809Y-113998285D01*
X186459809Y-114188761D01*
X186888380Y-113569714D02*
X185888380Y-113569714D01*
X186888380Y-112998285D01*
X185888380Y-112998285D01*
X186888380Y-112522095D02*
X185888380Y-112522095D01*
X185888380Y-112284000D01*
X185936000Y-112141142D01*
X186031238Y-112045904D01*
X186126476Y-111998285D01*
X186316952Y-111950666D01*
X186459809Y-111950666D01*
X186650285Y-111998285D01*
X186745523Y-112045904D01*
X186840761Y-112141142D01*
X186888380Y-112284000D01*
X186888380Y-112522095D01*
X184348380Y-112966476D02*
X184348380Y-113537904D01*
X184348380Y-113252190D02*
X183348380Y-113252190D01*
X183491238Y-113347428D01*
X183586476Y-113442666D01*
X183634095Y-113537904D01*
X183348380Y-112633142D02*
X183348380Y-112014095D01*
X183729333Y-112347428D01*
X183729333Y-112204571D01*
X183776952Y-112109333D01*
X183824571Y-112061714D01*
X183919809Y-112014095D01*
X184157904Y-112014095D01*
X184253142Y-112061714D01*
X184300761Y-112109333D01*
X184348380Y-112204571D01*
X184348380Y-112490285D01*
X184300761Y-112585523D01*
X184253142Y-112633142D01*
X181808380Y-112966476D02*
X181808380Y-113537904D01*
X181808380Y-113252190D02*
X180808380Y-113252190D01*
X180951238Y-113347428D01*
X181046476Y-113442666D01*
X181094095Y-113537904D01*
X180903619Y-112585523D02*
X180856000Y-112537904D01*
X180808380Y-112442666D01*
X180808380Y-112204571D01*
X180856000Y-112109333D01*
X180903619Y-112061714D01*
X180998857Y-112014095D01*
X181094095Y-112014095D01*
X181236952Y-112061714D01*
X181808380Y-112633142D01*
X181808380Y-112014095D01*
X179268380Y-112966476D02*
X179268380Y-113537904D01*
X179268380Y-113252190D02*
X178268380Y-113252190D01*
X178411238Y-113347428D01*
X178506476Y-113442666D01*
X178554095Y-113537904D01*
X178601714Y-112109333D02*
X179268380Y-112109333D01*
X178220761Y-112347428D02*
X178935047Y-112585523D01*
X178935047Y-111966476D01*
X175823619Y-113537904D02*
X175776000Y-113490285D01*
X175728380Y-113395047D01*
X175728380Y-113156952D01*
X175776000Y-113061714D01*
X175823619Y-113014095D01*
X175918857Y-112966476D01*
X176014095Y-112966476D01*
X176156952Y-113014095D01*
X176728380Y-113585523D01*
X176728380Y-112966476D01*
X175728380Y-112633142D02*
X175728380Y-111966476D01*
X176728380Y-112395047D01*
X173283619Y-113537904D02*
X173236000Y-113490285D01*
X173188380Y-113395047D01*
X173188380Y-113156952D01*
X173236000Y-113061714D01*
X173283619Y-113014095D01*
X173378857Y-112966476D01*
X173474095Y-112966476D01*
X173616952Y-113014095D01*
X174188380Y-113585523D01*
X174188380Y-112966476D01*
X173188380Y-112109333D02*
X173188380Y-112299809D01*
X173236000Y-112395047D01*
X173283619Y-112442666D01*
X173426476Y-112537904D01*
X173616952Y-112585523D01*
X173997904Y-112585523D01*
X174093142Y-112537904D01*
X174140761Y-112490285D01*
X174188380Y-112395047D01*
X174188380Y-112204571D01*
X174140761Y-112109333D01*
X174093142Y-112061714D01*
X173997904Y-112014095D01*
X173759809Y-112014095D01*
X173664571Y-112061714D01*
X173616952Y-112109333D01*
X173569333Y-112204571D01*
X173569333Y-112395047D01*
X173616952Y-112490285D01*
X173664571Y-112537904D01*
X173759809Y-112585523D01*
X170743619Y-113537904D02*
X170696000Y-113490285D01*
X170648380Y-113395047D01*
X170648380Y-113156952D01*
X170696000Y-113061714D01*
X170743619Y-113014095D01*
X170838857Y-112966476D01*
X170934095Y-112966476D01*
X171076952Y-113014095D01*
X171648380Y-113585523D01*
X171648380Y-112966476D01*
X170648380Y-112061714D02*
X170648380Y-112537904D01*
X171124571Y-112585523D01*
X171076952Y-112537904D01*
X171029333Y-112442666D01*
X171029333Y-112204571D01*
X171076952Y-112109333D01*
X171124571Y-112061714D01*
X171219809Y-112014095D01*
X171457904Y-112014095D01*
X171553142Y-112061714D01*
X171600761Y-112109333D01*
X171648380Y-112204571D01*
X171648380Y-112442666D01*
X171600761Y-112537904D01*
X171553142Y-112585523D01*
X168108380Y-113585523D02*
X168108380Y-112966476D01*
X168489333Y-113299809D01*
X168489333Y-113156952D01*
X168536952Y-113061714D01*
X168584571Y-113014095D01*
X168679809Y-112966476D01*
X168917904Y-112966476D01*
X169013142Y-113014095D01*
X169060761Y-113061714D01*
X169108380Y-113156952D01*
X169108380Y-113442666D01*
X169060761Y-113537904D01*
X169013142Y-113585523D01*
X168108380Y-112633142D02*
X168108380Y-112014095D01*
X168489333Y-112347428D01*
X168489333Y-112204571D01*
X168536952Y-112109333D01*
X168584571Y-112061714D01*
X168679809Y-112014095D01*
X168917904Y-112014095D01*
X169013142Y-112061714D01*
X169060761Y-112109333D01*
X169108380Y-112204571D01*
X169108380Y-112490285D01*
X169060761Y-112585523D01*
X169013142Y-112633142D01*
X165568380Y-113585523D02*
X165568380Y-112966476D01*
X165949333Y-113299809D01*
X165949333Y-113156952D01*
X165996952Y-113061714D01*
X166044571Y-113014095D01*
X166139809Y-112966476D01*
X166377904Y-112966476D01*
X166473142Y-113014095D01*
X166520761Y-113061714D01*
X166568380Y-113156952D01*
X166568380Y-113442666D01*
X166520761Y-113537904D01*
X166473142Y-113585523D01*
X165663619Y-112585523D02*
X165616000Y-112537904D01*
X165568380Y-112442666D01*
X165568380Y-112204571D01*
X165616000Y-112109333D01*
X165663619Y-112061714D01*
X165758857Y-112014095D01*
X165854095Y-112014095D01*
X165996952Y-112061714D01*
X166568380Y-112633142D01*
X166568380Y-112014095D01*
X163028380Y-113585523D02*
X163028380Y-112966476D01*
X163409333Y-113299809D01*
X163409333Y-113156952D01*
X163456952Y-113061714D01*
X163504571Y-113014095D01*
X163599809Y-112966476D01*
X163837904Y-112966476D01*
X163933142Y-113014095D01*
X163980761Y-113061714D01*
X164028380Y-113156952D01*
X164028380Y-113442666D01*
X163980761Y-113537904D01*
X163933142Y-113585523D01*
X163028380Y-112061714D02*
X163028380Y-112537904D01*
X163504571Y-112585523D01*
X163456952Y-112537904D01*
X163409333Y-112442666D01*
X163409333Y-112204571D01*
X163456952Y-112109333D01*
X163504571Y-112061714D01*
X163599809Y-112014095D01*
X163837904Y-112014095D01*
X163933142Y-112061714D01*
X163980761Y-112109333D01*
X164028380Y-112204571D01*
X164028380Y-112442666D01*
X163980761Y-112537904D01*
X163933142Y-112585523D01*
X160488380Y-113585523D02*
X160488380Y-112966476D01*
X160869333Y-113299809D01*
X160869333Y-113156952D01*
X160916952Y-113061714D01*
X160964571Y-113014095D01*
X161059809Y-112966476D01*
X161297904Y-112966476D01*
X161393142Y-113014095D01*
X161440761Y-113061714D01*
X161488380Y-113156952D01*
X161488380Y-113442666D01*
X161440761Y-113537904D01*
X161393142Y-113585523D01*
X160821714Y-112109333D02*
X161488380Y-112109333D01*
X160440761Y-112347428D02*
X161155047Y-112585523D01*
X161155047Y-111966476D01*
X157948380Y-113585523D02*
X157948380Y-112966476D01*
X158329333Y-113299809D01*
X158329333Y-113156952D01*
X158376952Y-113061714D01*
X158424571Y-113014095D01*
X158519809Y-112966476D01*
X158757904Y-112966476D01*
X158853142Y-113014095D01*
X158900761Y-113061714D01*
X158948380Y-113156952D01*
X158948380Y-113442666D01*
X158900761Y-113537904D01*
X158853142Y-113585523D01*
X158948380Y-112490285D02*
X158948380Y-112299809D01*
X158900761Y-112204571D01*
X158853142Y-112156952D01*
X158710285Y-112061714D01*
X158519809Y-112014095D01*
X158138857Y-112014095D01*
X158043619Y-112061714D01*
X157996000Y-112109333D01*
X157948380Y-112204571D01*
X157948380Y-112395047D01*
X157996000Y-112490285D01*
X158043619Y-112537904D01*
X158138857Y-112585523D01*
X158376952Y-112585523D01*
X158472190Y-112537904D01*
X158519809Y-112490285D01*
X158567428Y-112395047D01*
X158567428Y-112204571D01*
X158519809Y-112109333D01*
X158472190Y-112061714D01*
X158376952Y-112014095D01*
X155408380Y-113585523D02*
X155408380Y-112966476D01*
X155789333Y-113299809D01*
X155789333Y-113156952D01*
X155836952Y-113061714D01*
X155884571Y-113014095D01*
X155979809Y-112966476D01*
X156217904Y-112966476D01*
X156313142Y-113014095D01*
X156360761Y-113061714D01*
X156408380Y-113156952D01*
X156408380Y-113442666D01*
X156360761Y-113537904D01*
X156313142Y-113585523D01*
X155408380Y-112109333D02*
X155408380Y-112299809D01*
X155456000Y-112395047D01*
X155503619Y-112442666D01*
X155646476Y-112537904D01*
X155836952Y-112585523D01*
X156217904Y-112585523D01*
X156313142Y-112537904D01*
X156360761Y-112490285D01*
X156408380Y-112395047D01*
X156408380Y-112204571D01*
X156360761Y-112109333D01*
X156313142Y-112061714D01*
X156217904Y-112014095D01*
X155979809Y-112014095D01*
X155884571Y-112061714D01*
X155836952Y-112109333D01*
X155789333Y-112204571D01*
X155789333Y-112395047D01*
X155836952Y-112490285D01*
X155884571Y-112537904D01*
X155979809Y-112585523D01*
X153344571Y-113641095D02*
X153344571Y-113307761D01*
X153868380Y-113164904D02*
X153868380Y-113641095D01*
X152868380Y-113641095D01*
X152868380Y-113164904D01*
X153868380Y-112736333D02*
X152868380Y-112736333D01*
X153868380Y-112164904D01*
X152868380Y-112164904D01*
X150538380Y-110061333D02*
X151252666Y-110061333D01*
X151395523Y-110108952D01*
X151490761Y-110204190D01*
X151538380Y-110347047D01*
X151538380Y-110442285D01*
X151538380Y-109061333D02*
X151538380Y-109632761D01*
X151538380Y-109347047D02*
X150538380Y-109347047D01*
X150681238Y-109442285D01*
X150776476Y-109537523D01*
X150824095Y-109632761D01*
X150538380Y-73993333D02*
X151252666Y-73993333D01*
X151395523Y-74040952D01*
X151490761Y-74136190D01*
X151538380Y-74279047D01*
X151538380Y-74374285D01*
X150633619Y-73564761D02*
X150586000Y-73517142D01*
X150538380Y-73421904D01*
X150538380Y-73183809D01*
X150586000Y-73088571D01*
X150633619Y-73040952D01*
X150728857Y-72993333D01*
X150824095Y-72993333D01*
X150966952Y-73040952D01*
X151538380Y-73612380D01*
X151538380Y-72993333D01*
X140397619Y-95341238D02*
X140350000Y-95436476D01*
X140254761Y-95531714D01*
X140111904Y-95674571D01*
X140064285Y-95769809D01*
X140064285Y-95865047D01*
X140302380Y-95817428D02*
X140254761Y-95912666D01*
X140159523Y-96007904D01*
X139969047Y-96055523D01*
X139635714Y-96055523D01*
X139445238Y-96007904D01*
X139350000Y-95912666D01*
X139302380Y-95817428D01*
X139302380Y-95626952D01*
X139350000Y-95531714D01*
X139445238Y-95436476D01*
X139635714Y-95388857D01*
X139969047Y-95388857D01*
X140159523Y-95436476D01*
X140254761Y-95531714D01*
X140302380Y-95626952D01*
X140302380Y-95817428D01*
X140302380Y-94436476D02*
X140302380Y-95007904D01*
X140302380Y-94722190D02*
X139302380Y-94722190D01*
X139445238Y-94817428D01*
X139540476Y-94912666D01*
X139588095Y-95007904D01*
X142581333Y-107020380D02*
X142248000Y-106544190D01*
X142009904Y-107020380D02*
X142009904Y-106020380D01*
X142390857Y-106020380D01*
X142486095Y-106068000D01*
X142533714Y-106115619D01*
X142581333Y-106210857D01*
X142581333Y-106353714D01*
X142533714Y-106448952D01*
X142486095Y-106496571D01*
X142390857Y-106544190D01*
X142009904Y-106544190D01*
X143533714Y-107020380D02*
X142962285Y-107020380D01*
X143248000Y-107020380D02*
X143248000Y-106020380D01*
X143152761Y-106163238D01*
X143057523Y-106258476D01*
X142962285Y-106306095D01*
X137334666Y-75500761D02*
X137477523Y-75548380D01*
X137715619Y-75548380D01*
X137810857Y-75500761D01*
X137858476Y-75453142D01*
X137906095Y-75357904D01*
X137906095Y-75262666D01*
X137858476Y-75167428D01*
X137810857Y-75119809D01*
X137715619Y-75072190D01*
X137525142Y-75024571D01*
X137429904Y-74976952D01*
X137382285Y-74929333D01*
X137334666Y-74834095D01*
X137334666Y-74738857D01*
X137382285Y-74643619D01*
X137429904Y-74596000D01*
X137525142Y-74548380D01*
X137763238Y-74548380D01*
X137906095Y-74596000D01*
X138239428Y-74548380D02*
X138477523Y-75548380D01*
X138668000Y-74834095D01*
X138858476Y-75548380D01*
X139096571Y-74548380D01*
X140001333Y-75548380D02*
X139429904Y-75548380D01*
X139715619Y-75548380D02*
X139715619Y-74548380D01*
X139620380Y-74691238D01*
X139525142Y-74786476D01*
X139429904Y-74834095D01*
X143700666Y-71953380D02*
X143700666Y-70953380D01*
X144081619Y-70953380D01*
X144176857Y-71001000D01*
X144224476Y-71048619D01*
X144272095Y-71143857D01*
X144272095Y-71286714D01*
X144224476Y-71381952D01*
X144176857Y-71429571D01*
X144081619Y-71477190D01*
X143700666Y-71477190D01*
X144605428Y-70953380D02*
X144843523Y-71953380D01*
X145034000Y-71239095D01*
X145224476Y-71953380D01*
X145462571Y-70953380D01*
X146414952Y-71953380D02*
X146081619Y-71477190D01*
X145843523Y-71953380D02*
X145843523Y-70953380D01*
X146224476Y-70953380D01*
X146319714Y-71001000D01*
X146367333Y-71048619D01*
X146414952Y-71143857D01*
X146414952Y-71286714D01*
X146367333Y-71381952D01*
X146319714Y-71429571D01*
X146224476Y-71477190D01*
X145843523Y-71477190D01*
M02*
