G04 #@! TF.GenerationSoftware,KiCad,Pcbnew,(5.1.2)-1*
G04 #@! TF.CreationDate,2019-06-12T09:12:15+03:00*
G04 #@! TF.ProjectId,esp32-ac-board,65737033-322d-4616-932d-626f6172642e,rev?*
G04 #@! TF.SameCoordinates,Original*
G04 #@! TF.FileFunction,Legend,Bot*
G04 #@! TF.FilePolarity,Positive*
%FSLAX46Y46*%
G04 Gerber Fmt 4.6, Leading zero omitted, Abs format (unit mm)*
G04 Created by KiCad (PCBNEW (5.1.2)-1) date 2019-06-12 09:12:15*
%MOMM*%
%LPD*%
G04 APERTURE LIST*
%ADD10C,0.300000*%
%ADD11C,0.150000*%
G04 APERTURE END LIST*
D10*
X149632142Y-117240857D02*
X149132142Y-117240857D01*
X148917857Y-118026571D02*
X149632142Y-118026571D01*
X149632142Y-116526571D01*
X148917857Y-116526571D01*
X148346428Y-117955142D02*
X148132142Y-118026571D01*
X147775000Y-118026571D01*
X147632142Y-117955142D01*
X147560714Y-117883714D01*
X147489285Y-117740857D01*
X147489285Y-117598000D01*
X147560714Y-117455142D01*
X147632142Y-117383714D01*
X147775000Y-117312285D01*
X148060714Y-117240857D01*
X148203571Y-117169428D01*
X148275000Y-117098000D01*
X148346428Y-116955142D01*
X148346428Y-116812285D01*
X148275000Y-116669428D01*
X148203571Y-116598000D01*
X148060714Y-116526571D01*
X147703571Y-116526571D01*
X147489285Y-116598000D01*
X146846428Y-118026571D02*
X146846428Y-116526571D01*
X146275000Y-116526571D01*
X146132142Y-116598000D01*
X146060714Y-116669428D01*
X145989285Y-116812285D01*
X145989285Y-117026571D01*
X146060714Y-117169428D01*
X146132142Y-117240857D01*
X146275000Y-117312285D01*
X146846428Y-117312285D01*
X144203571Y-118026571D02*
X144203571Y-116526571D01*
X144203571Y-117240857D02*
X143346428Y-117240857D01*
X143346428Y-118026571D02*
X143346428Y-116526571D01*
X142417857Y-118026571D02*
X142560714Y-117955142D01*
X142632142Y-117883714D01*
X142703571Y-117740857D01*
X142703571Y-117312285D01*
X142632142Y-117169428D01*
X142560714Y-117098000D01*
X142417857Y-117026571D01*
X142203571Y-117026571D01*
X142060714Y-117098000D01*
X141989285Y-117169428D01*
X141917857Y-117312285D01*
X141917857Y-117740857D01*
X141989285Y-117883714D01*
X142060714Y-117955142D01*
X142203571Y-118026571D01*
X142417857Y-118026571D01*
X141275000Y-118026571D02*
X141275000Y-117026571D01*
X141275000Y-117169428D02*
X141203571Y-117098000D01*
X141060714Y-117026571D01*
X140846428Y-117026571D01*
X140703571Y-117098000D01*
X140632142Y-117240857D01*
X140632142Y-118026571D01*
X140632142Y-117240857D02*
X140560714Y-117098000D01*
X140417857Y-117026571D01*
X140203571Y-117026571D01*
X140060714Y-117098000D01*
X139989285Y-117240857D01*
X139989285Y-118026571D01*
X138703571Y-117955142D02*
X138846428Y-118026571D01*
X139132142Y-118026571D01*
X139275000Y-117955142D01*
X139346428Y-117812285D01*
X139346428Y-117240857D01*
X139275000Y-117098000D01*
X139132142Y-117026571D01*
X138846428Y-117026571D01*
X138703571Y-117098000D01*
X138632142Y-117240857D01*
X138632142Y-117383714D01*
X139346428Y-117526571D01*
X136846428Y-118026571D02*
X136846428Y-116526571D01*
X136346428Y-117598000D01*
X135846428Y-116526571D01*
X135846428Y-118026571D01*
X134917857Y-118026571D02*
X135060714Y-117955142D01*
X135132142Y-117883714D01*
X135203571Y-117740857D01*
X135203571Y-117312285D01*
X135132142Y-117169428D01*
X135060714Y-117098000D01*
X134917857Y-117026571D01*
X134703571Y-117026571D01*
X134560714Y-117098000D01*
X134489285Y-117169428D01*
X134417857Y-117312285D01*
X134417857Y-117740857D01*
X134489285Y-117883714D01*
X134560714Y-117955142D01*
X134703571Y-118026571D01*
X134917857Y-118026571D01*
X133774999Y-117026571D02*
X133774999Y-118026571D01*
X133774999Y-117169428D02*
X133703571Y-117098000D01*
X133560714Y-117026571D01*
X133346428Y-117026571D01*
X133203571Y-117098000D01*
X133132142Y-117240857D01*
X133132142Y-118026571D01*
X132417857Y-118026571D02*
X132417857Y-117026571D01*
X132417857Y-116526571D02*
X132489285Y-116598000D01*
X132417857Y-116669428D01*
X132346428Y-116598000D01*
X132417857Y-116526571D01*
X132417857Y-116669428D01*
X131917857Y-117026571D02*
X131346428Y-117026571D01*
X131703571Y-116526571D02*
X131703571Y-117812285D01*
X131632142Y-117955142D01*
X131489285Y-118026571D01*
X131346428Y-118026571D01*
X130632142Y-118026571D02*
X130774999Y-117955142D01*
X130846428Y-117883714D01*
X130917857Y-117740857D01*
X130917857Y-117312285D01*
X130846428Y-117169428D01*
X130774999Y-117098000D01*
X130632142Y-117026571D01*
X130417857Y-117026571D01*
X130274999Y-117098000D01*
X130203571Y-117169428D01*
X130132142Y-117312285D01*
X130132142Y-117740857D01*
X130203571Y-117883714D01*
X130274999Y-117955142D01*
X130417857Y-118026571D01*
X130632142Y-118026571D01*
X129489285Y-118026571D02*
X129489285Y-117026571D01*
X129489285Y-117312285D02*
X129417857Y-117169428D01*
X129346428Y-117098000D01*
X129203571Y-117026571D01*
X129060714Y-117026571D01*
X127560714Y-117026571D02*
X127203571Y-118026571D01*
X126846428Y-117026571D01*
X125989285Y-116526571D02*
X125846428Y-116526571D01*
X125703571Y-116598000D01*
X125632142Y-116669428D01*
X125560714Y-116812285D01*
X125489285Y-117098000D01*
X125489285Y-117455142D01*
X125560714Y-117740857D01*
X125632142Y-117883714D01*
X125703571Y-117955142D01*
X125846428Y-118026571D01*
X125989285Y-118026571D01*
X126132142Y-117955142D01*
X126203571Y-117883714D01*
X126274999Y-117740857D01*
X126346428Y-117455142D01*
X126346428Y-117098000D01*
X126274999Y-116812285D01*
X126203571Y-116669428D01*
X126132142Y-116598000D01*
X125989285Y-116526571D01*
X124846428Y-117883714D02*
X124774999Y-117955142D01*
X124846428Y-118026571D01*
X124917857Y-117955142D01*
X124846428Y-117883714D01*
X124846428Y-118026571D01*
X123346428Y-118026571D02*
X124203571Y-118026571D01*
X123774999Y-118026571D02*
X123774999Y-116526571D01*
X123917857Y-116740857D01*
X124060714Y-116883714D01*
X124203571Y-116955142D01*
D11*
X182624238Y-91170142D02*
X181957571Y-91170142D01*
X181671857Y-92217761D02*
X182624238Y-92217761D01*
X182624238Y-90217761D01*
X181671857Y-90217761D01*
X180909952Y-92122523D02*
X180624238Y-92217761D01*
X180148047Y-92217761D01*
X179957571Y-92122523D01*
X179862333Y-92027285D01*
X179767095Y-91836809D01*
X179767095Y-91646333D01*
X179862333Y-91455857D01*
X179957571Y-91360619D01*
X180148047Y-91265380D01*
X180529000Y-91170142D01*
X180719476Y-91074904D01*
X180814714Y-90979666D01*
X180909952Y-90789190D01*
X180909952Y-90598714D01*
X180814714Y-90408238D01*
X180719476Y-90313000D01*
X180529000Y-90217761D01*
X180052809Y-90217761D01*
X179767095Y-90313000D01*
X178909952Y-92217761D02*
X178909952Y-90217761D01*
X178148047Y-90217761D01*
X177957571Y-90313000D01*
X177862333Y-90408238D01*
X177767095Y-90598714D01*
X177767095Y-90884428D01*
X177862333Y-91074904D01*
X177957571Y-91170142D01*
X178148047Y-91265380D01*
X178909952Y-91265380D01*
X177100428Y-90217761D02*
X175862333Y-90217761D01*
X176529000Y-90979666D01*
X176243285Y-90979666D01*
X176052809Y-91074904D01*
X175957571Y-91170142D01*
X175862333Y-91360619D01*
X175862333Y-91836809D01*
X175957571Y-92027285D01*
X176052809Y-92122523D01*
X176243285Y-92217761D01*
X176814714Y-92217761D01*
X177005190Y-92122523D01*
X177100428Y-92027285D01*
X175100428Y-90408238D02*
X175005190Y-90313000D01*
X174814714Y-90217761D01*
X174338523Y-90217761D01*
X174148047Y-90313000D01*
X174052809Y-90408238D01*
X173957571Y-90598714D01*
X173957571Y-90789190D01*
X174052809Y-91074904D01*
X175195666Y-92217761D01*
X173957571Y-92217761D01*
X171576619Y-92217761D02*
X171576619Y-90217761D01*
X171100428Y-90217761D01*
X170814714Y-90313000D01*
X170624238Y-90503476D01*
X170529000Y-90693952D01*
X170433761Y-91074904D01*
X170433761Y-91360619D01*
X170529000Y-91741571D01*
X170624238Y-91932047D01*
X170814714Y-92122523D01*
X171100428Y-92217761D01*
X171576619Y-92217761D01*
X169195666Y-90217761D02*
X168814714Y-90217761D01*
X168624238Y-90313000D01*
X168433761Y-90503476D01*
X168338523Y-90884428D01*
X168338523Y-91551095D01*
X168433761Y-91932047D01*
X168624238Y-92122523D01*
X168814714Y-92217761D01*
X169195666Y-92217761D01*
X169386142Y-92122523D01*
X169576619Y-91932047D01*
X169671857Y-91551095D01*
X169671857Y-90884428D01*
X169576619Y-90503476D01*
X169386142Y-90313000D01*
X169195666Y-90217761D01*
X167481380Y-92217761D02*
X167481380Y-90217761D01*
X166814714Y-90217761D02*
X165671857Y-90217761D01*
X166243285Y-92217761D02*
X166243285Y-90217761D01*
X163481380Y-92217761D02*
X163481380Y-90217761D01*
X163005190Y-90217761D01*
X162719476Y-90313000D01*
X162529000Y-90503476D01*
X162433761Y-90693952D01*
X162338523Y-91074904D01*
X162338523Y-91360619D01*
X162433761Y-91741571D01*
X162529000Y-91932047D01*
X162719476Y-92122523D01*
X163005190Y-92217761D01*
X163481380Y-92217761D01*
X161481380Y-91170142D02*
X160814714Y-91170142D01*
X160529000Y-92217761D02*
X161481380Y-92217761D01*
X161481380Y-90217761D01*
X160529000Y-90217761D01*
X159957571Y-90217761D02*
X159290904Y-92217761D01*
X158624238Y-90217761D01*
X157957571Y-92217761D02*
X157957571Y-90217761D01*
X156814714Y-92217761D02*
X157671857Y-91074904D01*
X156814714Y-90217761D02*
X157957571Y-91360619D01*
X155957571Y-92217761D02*
X155957571Y-90217761D01*
X155290904Y-90217761D02*
X154148047Y-90217761D01*
X154719476Y-92217761D02*
X154719476Y-90217761D01*
X203524476Y-68746714D02*
X203334000Y-69413380D01*
X203143523Y-68937190D01*
X202953047Y-69413380D01*
X202762571Y-68746714D01*
X202476857Y-68746714D02*
X202286380Y-69413380D01*
X202095904Y-68937190D01*
X201905428Y-69413380D01*
X201714952Y-68746714D01*
X201429238Y-68746714D02*
X201238761Y-69413380D01*
X201048285Y-68937190D01*
X200857809Y-69413380D01*
X200667333Y-68746714D01*
X200286380Y-69318142D02*
X200238761Y-69365761D01*
X200286380Y-69413380D01*
X200334000Y-69365761D01*
X200286380Y-69318142D01*
X200286380Y-69413380D01*
X199381619Y-69365761D02*
X199476857Y-69413380D01*
X199667333Y-69413380D01*
X199762571Y-69365761D01*
X199810190Y-69318142D01*
X199857809Y-69222904D01*
X199857809Y-68937190D01*
X199810190Y-68841952D01*
X199762571Y-68794333D01*
X199667333Y-68746714D01*
X199476857Y-68746714D01*
X199381619Y-68794333D01*
X198953047Y-69413380D02*
X198953047Y-68746714D01*
X198953047Y-68937190D02*
X198905428Y-68841952D01*
X198857809Y-68794333D01*
X198762571Y-68746714D01*
X198667333Y-68746714D01*
X198334000Y-69413380D02*
X198334000Y-68746714D01*
X198334000Y-68413380D02*
X198381619Y-68461000D01*
X198334000Y-68508619D01*
X198286380Y-68461000D01*
X198334000Y-68413380D01*
X198334000Y-68508619D01*
X197905428Y-69365761D02*
X197810190Y-69413380D01*
X197619714Y-69413380D01*
X197524476Y-69365761D01*
X197476857Y-69270523D01*
X197476857Y-69222904D01*
X197524476Y-69127666D01*
X197619714Y-69080047D01*
X197762571Y-69080047D01*
X197857809Y-69032428D01*
X197905428Y-68937190D01*
X197905428Y-68889571D01*
X197857809Y-68794333D01*
X197762571Y-68746714D01*
X197619714Y-68746714D01*
X197524476Y-68794333D01*
X197191142Y-68746714D02*
X196810190Y-68746714D01*
X197048285Y-68413380D02*
X197048285Y-69270523D01*
X197000666Y-69365761D01*
X196905428Y-69413380D01*
X196810190Y-69413380D01*
X196476857Y-69413380D02*
X196476857Y-68746714D01*
X196476857Y-68413380D02*
X196524476Y-68461000D01*
X196476857Y-68508619D01*
X196429238Y-68461000D01*
X196476857Y-68413380D01*
X196476857Y-68508619D01*
X195572095Y-69413380D02*
X195572095Y-68889571D01*
X195619714Y-68794333D01*
X195714952Y-68746714D01*
X195905428Y-68746714D01*
X196000666Y-68794333D01*
X195572095Y-69365761D02*
X195667333Y-69413380D01*
X195905428Y-69413380D01*
X196000666Y-69365761D01*
X196048285Y-69270523D01*
X196048285Y-69175285D01*
X196000666Y-69080047D01*
X195905428Y-69032428D01*
X195667333Y-69032428D01*
X195572095Y-68984809D01*
X195095904Y-68746714D02*
X195095904Y-69413380D01*
X195095904Y-68841952D02*
X195048285Y-68794333D01*
X194953047Y-68746714D01*
X194810190Y-68746714D01*
X194714952Y-68794333D01*
X194667333Y-68889571D01*
X194667333Y-69413380D01*
X194238761Y-69365761D02*
X194143523Y-69413380D01*
X193953047Y-69413380D01*
X193857809Y-69365761D01*
X193810190Y-69270523D01*
X193810190Y-69222904D01*
X193857809Y-69127666D01*
X193953047Y-69080047D01*
X194095904Y-69080047D01*
X194191142Y-69032428D01*
X194238761Y-68937190D01*
X194238761Y-68889571D01*
X194191142Y-68794333D01*
X194095904Y-68746714D01*
X193953047Y-68746714D01*
X193857809Y-68794333D01*
X192953047Y-69413380D02*
X192953047Y-68889571D01*
X193000666Y-68794333D01*
X193095904Y-68746714D01*
X193286380Y-68746714D01*
X193381619Y-68794333D01*
X192953047Y-69365761D02*
X193048285Y-69413380D01*
X193286380Y-69413380D01*
X193381619Y-69365761D01*
X193429238Y-69270523D01*
X193429238Y-69175285D01*
X193381619Y-69080047D01*
X193286380Y-69032428D01*
X193048285Y-69032428D01*
X192953047Y-68984809D01*
X192476857Y-68746714D02*
X192476857Y-69413380D01*
X192476857Y-68841952D02*
X192429238Y-68794333D01*
X192334000Y-68746714D01*
X192191142Y-68746714D01*
X192095904Y-68794333D01*
X192048285Y-68889571D01*
X192048285Y-69413380D01*
X191143523Y-69413380D02*
X191143523Y-68413380D01*
X191143523Y-69365761D02*
X191238761Y-69413380D01*
X191429238Y-69413380D01*
X191524476Y-69365761D01*
X191572095Y-69318142D01*
X191619714Y-69222904D01*
X191619714Y-68937190D01*
X191572095Y-68841952D01*
X191524476Y-68794333D01*
X191429238Y-68746714D01*
X191238761Y-68746714D01*
X191143523Y-68794333D01*
X190238761Y-68746714D02*
X190238761Y-69413380D01*
X190667333Y-68746714D02*
X190667333Y-69270523D01*
X190619714Y-69365761D01*
X190524476Y-69413380D01*
X190381619Y-69413380D01*
X190286380Y-69365761D01*
X190238761Y-69318142D01*
X189762571Y-69318142D02*
X189714952Y-69365761D01*
X189762571Y-69413380D01*
X189810190Y-69365761D01*
X189762571Y-69318142D01*
X189762571Y-69413380D01*
X189286380Y-69413380D02*
X189286380Y-68746714D01*
X189286380Y-68937190D02*
X189238761Y-68841952D01*
X189191142Y-68794333D01*
X189095904Y-68746714D01*
X189000666Y-68746714D01*
X188524476Y-69413380D02*
X188619714Y-69365761D01*
X188667333Y-69318142D01*
X188714952Y-69222904D01*
X188714952Y-68937190D01*
X188667333Y-68841952D01*
X188619714Y-68794333D01*
X188524476Y-68746714D01*
X188381619Y-68746714D01*
X188286380Y-68794333D01*
X188238761Y-68841952D01*
X188191142Y-68937190D01*
X188191142Y-69222904D01*
X188238761Y-69318142D01*
X188286380Y-69365761D01*
X188381619Y-69413380D01*
X188524476Y-69413380D01*
X181302428Y-112577666D02*
X181338142Y-112720523D01*
X181373857Y-112768142D01*
X181445285Y-112815761D01*
X181552428Y-112815761D01*
X181623857Y-112768142D01*
X181659571Y-112720523D01*
X181695285Y-112625285D01*
X181695285Y-112244333D01*
X180945285Y-112244333D01*
X180945285Y-112577666D01*
X180981000Y-112672904D01*
X181016714Y-112720523D01*
X181088142Y-112768142D01*
X181159571Y-112768142D01*
X181231000Y-112720523D01*
X181266714Y-112672904D01*
X181302428Y-112577666D01*
X181302428Y-112244333D01*
X180945285Y-113101476D02*
X180945285Y-113672904D01*
X181695285Y-113387190D02*
X180945285Y-113387190D01*
X181695285Y-114006238D02*
X180945285Y-114006238D01*
X181695285Y-114577666D01*
X180945285Y-114577666D01*
X178659285Y-112236476D02*
X178659285Y-112807904D01*
X179409285Y-112522190D02*
X178659285Y-112522190D01*
X179016428Y-113141238D02*
X179016428Y-113474571D01*
X179409285Y-113617428D02*
X179409285Y-113141238D01*
X178659285Y-113141238D01*
X178659285Y-113617428D01*
X179409285Y-114046000D02*
X178659285Y-114046000D01*
X179195000Y-114379333D01*
X178659285Y-114712666D01*
X179409285Y-114712666D01*
X179409285Y-115188857D02*
X178659285Y-115188857D01*
X178659285Y-115569809D01*
X178695000Y-115665047D01*
X178730714Y-115712666D01*
X178802142Y-115760285D01*
X178909285Y-115760285D01*
X178980714Y-115712666D01*
X179016428Y-115665047D01*
X179052142Y-115569809D01*
X179052142Y-115188857D01*
X176579571Y-112284095D02*
X176615285Y-112426952D01*
X176615285Y-112665047D01*
X176579571Y-112760285D01*
X176543857Y-112807904D01*
X176472428Y-112855523D01*
X176401000Y-112855523D01*
X176329571Y-112807904D01*
X176293857Y-112760285D01*
X176258142Y-112665047D01*
X176222428Y-112474571D01*
X176186714Y-112379333D01*
X176151000Y-112331714D01*
X176079571Y-112284095D01*
X176008142Y-112284095D01*
X175936714Y-112331714D01*
X175901000Y-112379333D01*
X175865285Y-112474571D01*
X175865285Y-112712666D01*
X175901000Y-112855523D01*
X176222428Y-113284095D02*
X176222428Y-113617428D01*
X176615285Y-113760285D02*
X176615285Y-113284095D01*
X175865285Y-113284095D01*
X175865285Y-113760285D01*
X176615285Y-114188857D02*
X175865285Y-114188857D01*
X176615285Y-114760285D01*
X175865285Y-114760285D01*
X176615285Y-115236476D02*
X175865285Y-115236476D01*
X175865285Y-115474571D01*
X175901000Y-115617428D01*
X175972428Y-115712666D01*
X176043857Y-115760285D01*
X176186714Y-115807904D01*
X176293857Y-115807904D01*
X176436714Y-115760285D01*
X176508142Y-115712666D01*
X176579571Y-115617428D01*
X176615285Y-115474571D01*
X176615285Y-115236476D01*
M02*
