G04 #@! TF.GenerationSoftware,KiCad,Pcbnew,5.1.3-ffb9f22~84~ubuntu18.04.1*
G04 #@! TF.CreationDate,2019-08-09T22:49:00+03:00*
G04 #@! TF.ProjectId,esp32-ac-board,65737033-322d-4616-932d-626f6172642e,rev?*
G04 #@! TF.SameCoordinates,Original*
G04 #@! TF.FileFunction,Copper,L1,Top*
G04 #@! TF.FilePolarity,Positive*
%FSLAX46Y46*%
G04 Gerber Fmt 4.6, Leading zero omitted, Abs format (unit mm)*
G04 Created by KiCad (PCBNEW 5.1.3-ffb9f22~84~ubuntu18.04.1) date 2019-08-09 22:49:00*
%MOMM*%
%LPD*%
G04 APERTURE LIST*
%ADD10R,1.800000X1.800000*%
%ADD11C,1.800000*%
%ADD12R,1.700000X1.700000*%
%ADD13O,1.700000X1.700000*%
%ADD14R,1.800000X1.717500*%
%ADD15O,1.800000X1.717500*%
%ADD16C,1.400000*%
%ADD17O,1.400000X1.400000*%
%ADD18R,3.000000X3.000000*%
%ADD19C,3.000000*%
%ADD20O,3.000000X2.500000*%
%ADD21C,0.250000*%
%ADD22C,0.254000*%
G04 APERTURE END LIST*
D10*
X132080000Y-92964000D03*
D11*
X132080000Y-95504000D03*
D12*
X125290000Y-104648000D03*
D13*
X127830000Y-104648000D03*
X130370000Y-104648000D03*
X132910000Y-104648000D03*
X188885000Y-79045000D03*
X186345000Y-79045000D03*
X183805000Y-79045000D03*
X181265000Y-79045000D03*
X178725000Y-79045000D03*
X176185000Y-79045000D03*
X173645000Y-79045000D03*
X171105000Y-79045000D03*
X168565000Y-79045000D03*
X166025000Y-79045000D03*
X163485000Y-79045000D03*
X160945000Y-79045000D03*
X158405000Y-79045000D03*
X155865000Y-79045000D03*
D12*
X153325000Y-79045000D03*
X153325000Y-79045000D03*
D13*
X155865000Y-79045000D03*
X158405000Y-79045000D03*
X160945000Y-79045000D03*
X163485000Y-79045000D03*
X166025000Y-79045000D03*
X168565000Y-79045000D03*
X171105000Y-79045000D03*
X173645000Y-79045000D03*
X176185000Y-79045000D03*
X178725000Y-79045000D03*
X181265000Y-79045000D03*
X183805000Y-79045000D03*
X186345000Y-79045000D03*
X188885000Y-79045000D03*
X188985000Y-104745000D03*
X186445000Y-104745000D03*
X183905000Y-104745000D03*
X181365000Y-104745000D03*
X178825000Y-104745000D03*
X176285000Y-104745000D03*
X173745000Y-104745000D03*
X171205000Y-104745000D03*
X168665000Y-104745000D03*
X166125000Y-104745000D03*
X163585000Y-104745000D03*
X161045000Y-104745000D03*
X158505000Y-104745000D03*
X155965000Y-104745000D03*
D12*
X153425000Y-104745000D03*
X153425000Y-104745000D03*
D13*
X155965000Y-104745000D03*
X158505000Y-104745000D03*
X161045000Y-104745000D03*
X163585000Y-104745000D03*
X166125000Y-104745000D03*
X168665000Y-104745000D03*
X171205000Y-104745000D03*
X173745000Y-104745000D03*
X176285000Y-104745000D03*
X178825000Y-104745000D03*
X181365000Y-104745000D03*
X183905000Y-104745000D03*
X186445000Y-104745000D03*
X188985000Y-104745000D03*
X188976000Y-109728000D03*
X186436000Y-109728000D03*
X183896000Y-109728000D03*
X181356000Y-109728000D03*
X178816000Y-109728000D03*
X176276000Y-109728000D03*
X173736000Y-109728000D03*
X171196000Y-109728000D03*
X168656000Y-109728000D03*
X166116000Y-109728000D03*
X163576000Y-109728000D03*
X161036000Y-109728000D03*
X158496000Y-109728000D03*
X155956000Y-109728000D03*
D12*
X153416000Y-109728000D03*
X153416000Y-73660000D03*
D13*
X155956000Y-73660000D03*
X158496000Y-73660000D03*
X161036000Y-73660000D03*
X163576000Y-73660000D03*
X166116000Y-73660000D03*
X168656000Y-73660000D03*
X171196000Y-73660000D03*
X173736000Y-73660000D03*
X176276000Y-73660000D03*
X178816000Y-73660000D03*
X181356000Y-73660000D03*
X183896000Y-73660000D03*
X186436000Y-73660000D03*
X188976000Y-73660000D03*
D14*
X142240000Y-97536000D03*
D15*
X142240000Y-95246000D03*
X142240000Y-92956000D03*
D16*
X145288000Y-104648000D03*
D17*
X140208000Y-104648000D03*
D18*
X135890000Y-71628000D03*
D19*
X140970000Y-71628000D03*
D20*
X145088000Y-79756000D03*
X145088000Y-84756000D03*
X132588000Y-79756000D03*
X132588000Y-84756000D03*
D21*
X188976000Y-78954000D02*
X188885000Y-79045000D01*
X188976000Y-73660000D02*
X188976000Y-78954000D01*
X176191001Y-91738999D02*
X188885000Y-79045000D01*
X127209001Y-91738999D02*
X176191001Y-91738999D01*
X127000000Y-91948000D02*
X127209001Y-91738999D01*
X127000000Y-95658998D02*
X127000000Y-91948000D01*
X125290000Y-104648000D02*
X125290000Y-97368998D01*
X125290000Y-97368998D02*
X127000000Y-95658998D01*
X140208000Y-104648000D02*
X140208000Y-101727000D01*
X135849998Y-97368998D02*
X125290000Y-97368998D01*
X140208000Y-101727000D02*
X135849998Y-97368998D01*
X178825000Y-109719000D02*
X178816000Y-109728000D01*
X178825000Y-104745000D02*
X178825000Y-109719000D01*
X127830000Y-104648000D02*
X132910000Y-109728000D01*
X132910000Y-109728000D02*
X145288000Y-109728000D01*
X145288000Y-109728000D02*
X145288000Y-104648000D01*
X145288000Y-109728000D02*
X148844000Y-113284000D01*
X175260000Y-113284000D02*
X178816000Y-109728000D01*
X148844000Y-113284000D02*
X175260000Y-113284000D01*
X186345000Y-73751000D02*
X186436000Y-73660000D01*
X186345000Y-79045000D02*
X186345000Y-73751000D01*
X186445000Y-109719000D02*
X186436000Y-109728000D01*
X186445000Y-104745000D02*
X186445000Y-109719000D01*
X142240000Y-92956000D02*
X142198750Y-92956000D01*
X183896000Y-78954000D02*
X183805000Y-79045000D01*
X183896000Y-73660000D02*
X183896000Y-78954000D01*
X181356000Y-78954000D02*
X181265000Y-79045000D01*
X181356000Y-73660000D02*
X181356000Y-78954000D01*
X178816000Y-78954000D02*
X178725000Y-79045000D01*
X178816000Y-73660000D02*
X178816000Y-78954000D01*
X176276000Y-78954000D02*
X176185000Y-79045000D01*
X176276000Y-73660000D02*
X176276000Y-78954000D01*
X173736000Y-78954000D02*
X173645000Y-79045000D01*
X173736000Y-73660000D02*
X173736000Y-78954000D01*
X171196000Y-78954000D02*
X171105000Y-79045000D01*
X171196000Y-73660000D02*
X171196000Y-78954000D01*
X168656000Y-78954000D02*
X168565000Y-79045000D01*
X168656000Y-73660000D02*
X168656000Y-78954000D01*
X166116000Y-78954000D02*
X166025000Y-79045000D01*
X166116000Y-73660000D02*
X166116000Y-78954000D01*
X163576000Y-78954000D02*
X163485000Y-79045000D01*
X163576000Y-73660000D02*
X163576000Y-78954000D01*
X161036000Y-78954000D02*
X160945000Y-79045000D01*
X161036000Y-73660000D02*
X161036000Y-78954000D01*
X158496000Y-78954000D02*
X158405000Y-79045000D01*
X158496000Y-73660000D02*
X158496000Y-78954000D01*
X155956000Y-78954000D02*
X155865000Y-79045000D01*
X155956000Y-73660000D02*
X155956000Y-78954000D01*
X153416000Y-78954000D02*
X153325000Y-79045000D01*
X153416000Y-73660000D02*
X153416000Y-78954000D01*
X183905000Y-109719000D02*
X183896000Y-109728000D01*
X183905000Y-104745000D02*
X183905000Y-109719000D01*
X181365000Y-109719000D02*
X181356000Y-109728000D01*
X181365000Y-104745000D02*
X181365000Y-109719000D01*
X132338000Y-84756000D02*
X132588000Y-84756000D01*
X124114999Y-92979001D02*
X132338000Y-84756000D01*
X181356000Y-109728000D02*
X176765858Y-114808000D01*
X133096000Y-115316000D02*
X124114999Y-105758001D01*
X176765858Y-114808000D02*
X133096000Y-115316000D01*
X124114999Y-105758001D02*
X124114999Y-92979001D01*
X176285000Y-109719000D02*
X176276000Y-109728000D01*
X176285000Y-104745000D02*
X176285000Y-109719000D01*
X173745000Y-109719000D02*
X173736000Y-109728000D01*
X173745000Y-104745000D02*
X173745000Y-109719000D01*
X143390000Y-97536000D02*
X145422000Y-99568000D01*
X142240000Y-97536000D02*
X143390000Y-97536000D01*
X168568000Y-99568000D02*
X173745000Y-104745000D01*
X145422000Y-99568000D02*
X168568000Y-99568000D01*
X171205000Y-109719000D02*
X171196000Y-109728000D01*
X171205000Y-104745000D02*
X171205000Y-109719000D01*
X168665000Y-109719000D02*
X168656000Y-109728000D01*
X168665000Y-104745000D02*
X168665000Y-109719000D01*
X166125000Y-109719000D02*
X166116000Y-109728000D01*
X166125000Y-104745000D02*
X166125000Y-109719000D01*
X163576000Y-104754000D02*
X163585000Y-104745000D01*
X163576000Y-109728000D02*
X163576000Y-104754000D01*
X161036000Y-104754000D02*
X161045000Y-104745000D01*
X161036000Y-109728000D02*
X161036000Y-104754000D01*
X158496000Y-104754000D02*
X158505000Y-104745000D01*
X158496000Y-109728000D02*
X158496000Y-104754000D01*
X155956000Y-104754000D02*
X155965000Y-104745000D01*
X155956000Y-109728000D02*
X155956000Y-104754000D01*
X153416000Y-104754000D02*
X153425000Y-104745000D01*
X153416000Y-109728000D02*
X153416000Y-104754000D01*
X188985000Y-109719000D02*
X188976000Y-109728000D01*
X188985000Y-104745000D02*
X188985000Y-109719000D01*
X141982000Y-95504000D02*
X142240000Y-95246000D01*
X141090000Y-95246000D02*
X142240000Y-95246000D01*
X135512000Y-95246000D02*
X141090000Y-95246000D01*
X133230000Y-92964000D02*
X135512000Y-95246000D01*
X132080000Y-92964000D02*
X133230000Y-92964000D01*
D22*
G36*
X203048001Y-119101000D02*
G01*
X122453000Y-119101000D01*
X122453000Y-115095872D01*
X124384000Y-115095872D01*
X124384000Y-115536128D01*
X124469890Y-115967925D01*
X124638369Y-116374669D01*
X124882962Y-116740729D01*
X125194271Y-117052038D01*
X125560331Y-117296631D01*
X125967075Y-117465110D01*
X126398872Y-117551000D01*
X126839128Y-117551000D01*
X127270925Y-117465110D01*
X127677669Y-117296631D01*
X128043729Y-117052038D01*
X128355038Y-116740729D01*
X128599631Y-116374669D01*
X128768110Y-115967925D01*
X128854000Y-115536128D01*
X128854000Y-115095872D01*
X128768110Y-114664075D01*
X128599631Y-114257331D01*
X128355038Y-113891271D01*
X128043729Y-113579962D01*
X127677669Y-113335369D01*
X127270925Y-113166890D01*
X126839128Y-113081000D01*
X126398872Y-113081000D01*
X125967075Y-113166890D01*
X125560331Y-113335369D01*
X125194271Y-113579962D01*
X124882962Y-113891271D01*
X124638369Y-114257331D01*
X124469890Y-114664075D01*
X124384000Y-115095872D01*
X122453000Y-115095872D01*
X122453000Y-92979001D01*
X123351323Y-92979001D01*
X123355000Y-93016333D01*
X123354999Y-105708810D01*
X123351692Y-105734245D01*
X123354999Y-105783484D01*
X123354999Y-105795333D01*
X123357501Y-105820734D01*
X123361724Y-105883614D01*
X123364828Y-105895123D01*
X123365996Y-105906986D01*
X123384291Y-105967298D01*
X123400703Y-106028157D01*
X123405993Y-106038840D01*
X123409453Y-106050247D01*
X123439167Y-106105838D01*
X123467134Y-106162318D01*
X123474406Y-106171763D01*
X123480025Y-106182276D01*
X123520009Y-106230997D01*
X123535576Y-106251217D01*
X123543687Y-106259849D01*
X123574998Y-106298002D01*
X123594829Y-106314277D01*
X132527734Y-115821091D01*
X132562317Y-115862245D01*
X132608035Y-115898883D01*
X132652176Y-115937468D01*
X132666368Y-115945631D01*
X132679139Y-115955866D01*
X132731131Y-115982884D01*
X132781946Y-116012113D01*
X132797458Y-116017351D01*
X132811980Y-116024897D01*
X132868256Y-116041255D01*
X132923785Y-116060005D01*
X132940016Y-116062115D01*
X132955737Y-116066685D01*
X133014135Y-116071751D01*
X133072243Y-116079306D01*
X133125891Y-116075703D01*
X176752214Y-115568210D01*
X176804493Y-115570698D01*
X176863856Y-115561800D01*
X176923546Y-115555219D01*
X176937783Y-115550719D01*
X176952546Y-115548506D01*
X177009046Y-115528193D01*
X177066292Y-115510098D01*
X177079373Y-115502909D01*
X177093425Y-115497857D01*
X177144891Y-115466902D01*
X177197491Y-115437995D01*
X177208917Y-115428393D01*
X177221715Y-115420696D01*
X177266139Y-115380308D01*
X177302358Y-115349872D01*
X196901000Y-115349872D01*
X196901000Y-115790128D01*
X196986890Y-116221925D01*
X197155369Y-116628669D01*
X197399962Y-116994729D01*
X197711271Y-117306038D01*
X198077331Y-117550631D01*
X198484075Y-117719110D01*
X198915872Y-117805000D01*
X199356128Y-117805000D01*
X199787925Y-117719110D01*
X200194669Y-117550631D01*
X200560729Y-117306038D01*
X200872038Y-116994729D01*
X201116631Y-116628669D01*
X201285110Y-116221925D01*
X201371000Y-115790128D01*
X201371000Y-115349872D01*
X201285110Y-114918075D01*
X201116631Y-114511331D01*
X200872038Y-114145271D01*
X200560729Y-113833962D01*
X200194669Y-113589369D01*
X199787925Y-113420890D01*
X199356128Y-113335000D01*
X198915872Y-113335000D01*
X198484075Y-113420890D01*
X198077331Y-113589369D01*
X197711271Y-113833962D01*
X197399962Y-114145271D01*
X197155369Y-114511331D01*
X196986890Y-114918075D01*
X196901000Y-115349872D01*
X177302358Y-115349872D01*
X177312104Y-115341683D01*
X177344846Y-115300827D01*
X181059407Y-111189850D01*
X181064889Y-111191513D01*
X181283050Y-111213000D01*
X181428950Y-111213000D01*
X181647111Y-111191513D01*
X181927034Y-111106599D01*
X182185014Y-110968706D01*
X182411134Y-110783134D01*
X182596706Y-110557014D01*
X182626000Y-110502209D01*
X182655294Y-110557014D01*
X182840866Y-110783134D01*
X183066986Y-110968706D01*
X183324966Y-111106599D01*
X183604889Y-111191513D01*
X183823050Y-111213000D01*
X183968950Y-111213000D01*
X184187111Y-111191513D01*
X184467034Y-111106599D01*
X184725014Y-110968706D01*
X184951134Y-110783134D01*
X185136706Y-110557014D01*
X185171201Y-110492477D01*
X185240822Y-110609355D01*
X185435731Y-110825588D01*
X185669080Y-110999641D01*
X185931901Y-111124825D01*
X186079110Y-111169476D01*
X186309000Y-111048155D01*
X186309000Y-109855000D01*
X186289000Y-109855000D01*
X186289000Y-109601000D01*
X186309000Y-109601000D01*
X186309000Y-108407845D01*
X186563000Y-108407845D01*
X186563000Y-109601000D01*
X186583000Y-109601000D01*
X186583000Y-109855000D01*
X186563000Y-109855000D01*
X186563000Y-111048155D01*
X186792890Y-111169476D01*
X186940099Y-111124825D01*
X187202920Y-110999641D01*
X187436269Y-110825588D01*
X187631178Y-110609355D01*
X187700799Y-110492477D01*
X187735294Y-110557014D01*
X187920866Y-110783134D01*
X188146986Y-110968706D01*
X188404966Y-111106599D01*
X188684889Y-111191513D01*
X188903050Y-111213000D01*
X189048950Y-111213000D01*
X189267111Y-111191513D01*
X189547034Y-111106599D01*
X189805014Y-110968706D01*
X190031134Y-110783134D01*
X190216706Y-110557014D01*
X190354599Y-110299034D01*
X190439513Y-110019111D01*
X190468185Y-109728000D01*
X190439513Y-109436889D01*
X190354599Y-109156966D01*
X190216706Y-108898986D01*
X190031134Y-108672866D01*
X189805014Y-108487294D01*
X189745000Y-108455216D01*
X189745000Y-106022595D01*
X189814014Y-105985706D01*
X190040134Y-105800134D01*
X190225706Y-105574014D01*
X190363599Y-105316034D01*
X190448513Y-105036111D01*
X190477185Y-104745000D01*
X190448513Y-104453889D01*
X190363599Y-104173966D01*
X190225706Y-103915986D01*
X190040134Y-103689866D01*
X189814014Y-103504294D01*
X189556034Y-103366401D01*
X189276111Y-103281487D01*
X189057950Y-103260000D01*
X188912050Y-103260000D01*
X188693889Y-103281487D01*
X188413966Y-103366401D01*
X188155986Y-103504294D01*
X187929866Y-103689866D01*
X187744294Y-103915986D01*
X187709799Y-103980523D01*
X187640178Y-103863645D01*
X187445269Y-103647412D01*
X187211920Y-103473359D01*
X186949099Y-103348175D01*
X186801890Y-103303524D01*
X186572000Y-103424845D01*
X186572000Y-104618000D01*
X186592000Y-104618000D01*
X186592000Y-104872000D01*
X186572000Y-104872000D01*
X186572000Y-106065155D01*
X186801890Y-106186476D01*
X186949099Y-106141825D01*
X187211920Y-106016641D01*
X187445269Y-105842588D01*
X187640178Y-105626355D01*
X187709799Y-105509477D01*
X187744294Y-105574014D01*
X187929866Y-105800134D01*
X188155986Y-105985706D01*
X188225000Y-106022595D01*
X188225001Y-108445594D01*
X188146986Y-108487294D01*
X187920866Y-108672866D01*
X187735294Y-108898986D01*
X187700799Y-108963523D01*
X187631178Y-108846645D01*
X187436269Y-108630412D01*
X187202920Y-108456359D01*
X186940099Y-108331175D01*
X186792890Y-108286524D01*
X186563000Y-108407845D01*
X186309000Y-108407845D01*
X186079110Y-108286524D01*
X185931901Y-108331175D01*
X185669080Y-108456359D01*
X185435731Y-108630412D01*
X185240822Y-108846645D01*
X185171201Y-108963523D01*
X185136706Y-108898986D01*
X184951134Y-108672866D01*
X184725014Y-108487294D01*
X184665000Y-108455216D01*
X184665000Y-106022595D01*
X184734014Y-105985706D01*
X184960134Y-105800134D01*
X185145706Y-105574014D01*
X185180201Y-105509477D01*
X185249822Y-105626355D01*
X185444731Y-105842588D01*
X185678080Y-106016641D01*
X185940901Y-106141825D01*
X186088110Y-106186476D01*
X186318000Y-106065155D01*
X186318000Y-104872000D01*
X186298000Y-104872000D01*
X186298000Y-104618000D01*
X186318000Y-104618000D01*
X186318000Y-103424845D01*
X186088110Y-103303524D01*
X185940901Y-103348175D01*
X185678080Y-103473359D01*
X185444731Y-103647412D01*
X185249822Y-103863645D01*
X185180201Y-103980523D01*
X185145706Y-103915986D01*
X184960134Y-103689866D01*
X184734014Y-103504294D01*
X184476034Y-103366401D01*
X184196111Y-103281487D01*
X183977950Y-103260000D01*
X183832050Y-103260000D01*
X183613889Y-103281487D01*
X183333966Y-103366401D01*
X183075986Y-103504294D01*
X182849866Y-103689866D01*
X182664294Y-103915986D01*
X182635000Y-103970791D01*
X182605706Y-103915986D01*
X182420134Y-103689866D01*
X182194014Y-103504294D01*
X181936034Y-103366401D01*
X181656111Y-103281487D01*
X181437950Y-103260000D01*
X181292050Y-103260000D01*
X181073889Y-103281487D01*
X180793966Y-103366401D01*
X180535986Y-103504294D01*
X180309866Y-103689866D01*
X180124294Y-103915986D01*
X180095000Y-103970791D01*
X180065706Y-103915986D01*
X179880134Y-103689866D01*
X179654014Y-103504294D01*
X179396034Y-103366401D01*
X179116111Y-103281487D01*
X178897950Y-103260000D01*
X178752050Y-103260000D01*
X178533889Y-103281487D01*
X178253966Y-103366401D01*
X177995986Y-103504294D01*
X177769866Y-103689866D01*
X177584294Y-103915986D01*
X177555000Y-103970791D01*
X177525706Y-103915986D01*
X177340134Y-103689866D01*
X177114014Y-103504294D01*
X176856034Y-103366401D01*
X176576111Y-103281487D01*
X176357950Y-103260000D01*
X176212050Y-103260000D01*
X175993889Y-103281487D01*
X175713966Y-103366401D01*
X175455986Y-103504294D01*
X175229866Y-103689866D01*
X175044294Y-103915986D01*
X175015000Y-103970791D01*
X174985706Y-103915986D01*
X174800134Y-103689866D01*
X174574014Y-103504294D01*
X174316034Y-103366401D01*
X174036111Y-103281487D01*
X173817950Y-103260000D01*
X173672050Y-103260000D01*
X173453889Y-103281487D01*
X173379005Y-103304203D01*
X169131804Y-99057003D01*
X169108001Y-99027999D01*
X168992276Y-98933026D01*
X168860247Y-98862454D01*
X168716986Y-98818997D01*
X168605333Y-98808000D01*
X168605322Y-98808000D01*
X168568000Y-98804324D01*
X168530678Y-98808000D01*
X145736802Y-98808000D01*
X143953804Y-97025003D01*
X143930001Y-96995999D01*
X143814276Y-96901026D01*
X143778072Y-96881674D01*
X143778072Y-96677250D01*
X143765812Y-96552768D01*
X143729502Y-96433070D01*
X143670537Y-96322756D01*
X143591185Y-96226065D01*
X143494494Y-96146713D01*
X143480550Y-96139260D01*
X143529267Y-96079898D01*
X143667972Y-95820399D01*
X143753386Y-95538826D01*
X143782227Y-95246000D01*
X143753386Y-94953174D01*
X143667972Y-94671601D01*
X143529267Y-94412102D01*
X143342601Y-94184649D01*
X143234079Y-94095587D01*
X143355702Y-93992010D01*
X143537172Y-93762488D01*
X143670378Y-93501973D01*
X143731400Y-93314264D01*
X143610195Y-93083000D01*
X142367000Y-93083000D01*
X142367000Y-93103000D01*
X142113000Y-93103000D01*
X142113000Y-93083000D01*
X140869805Y-93083000D01*
X140748600Y-93314264D01*
X140809622Y-93501973D01*
X140942828Y-93762488D01*
X141124298Y-93992010D01*
X141245921Y-94095587D01*
X141137399Y-94184649D01*
X140950733Y-94412102D01*
X140911234Y-94486000D01*
X135826802Y-94486000D01*
X133839800Y-92498999D01*
X140780698Y-92498999D01*
X140748600Y-92597736D01*
X140869805Y-92829000D01*
X142113000Y-92829000D01*
X142113000Y-92809000D01*
X142367000Y-92809000D01*
X142367000Y-92829000D01*
X143610195Y-92829000D01*
X143731400Y-92597736D01*
X143699302Y-92498999D01*
X176153679Y-92498999D01*
X176191001Y-92502675D01*
X176228323Y-92498999D01*
X176228334Y-92498999D01*
X176339987Y-92488002D01*
X176483248Y-92444545D01*
X176615277Y-92373973D01*
X176731002Y-92279000D01*
X176754805Y-92249996D01*
X188519005Y-80485797D01*
X188593889Y-80508513D01*
X188812050Y-80530000D01*
X188957950Y-80530000D01*
X189176111Y-80508513D01*
X189456034Y-80423599D01*
X189714014Y-80285706D01*
X189940134Y-80100134D01*
X190125706Y-79874014D01*
X190263599Y-79616034D01*
X190348513Y-79336111D01*
X190377185Y-79045000D01*
X190348513Y-78753889D01*
X190263599Y-78473966D01*
X190125706Y-78215986D01*
X189940134Y-77989866D01*
X189736000Y-77822337D01*
X189736000Y-74937595D01*
X189805014Y-74900706D01*
X190031134Y-74715134D01*
X190216706Y-74489014D01*
X190354599Y-74231034D01*
X190439513Y-73951111D01*
X190468185Y-73660000D01*
X190439513Y-73368889D01*
X190354599Y-73088966D01*
X190216706Y-72830986D01*
X190031134Y-72604866D01*
X189805014Y-72419294D01*
X189547034Y-72281401D01*
X189267111Y-72196487D01*
X189048950Y-72175000D01*
X188903050Y-72175000D01*
X188684889Y-72196487D01*
X188404966Y-72281401D01*
X188146986Y-72419294D01*
X187920866Y-72604866D01*
X187735294Y-72830986D01*
X187700799Y-72895523D01*
X187631178Y-72778645D01*
X187436269Y-72562412D01*
X187202920Y-72388359D01*
X186940099Y-72263175D01*
X186792890Y-72218524D01*
X186563000Y-72339845D01*
X186563000Y-73533000D01*
X186583000Y-73533000D01*
X186583000Y-73787000D01*
X186563000Y-73787000D01*
X186563000Y-74980155D01*
X186792890Y-75101476D01*
X186940099Y-75056825D01*
X187202920Y-74931641D01*
X187436269Y-74757588D01*
X187631178Y-74541355D01*
X187700799Y-74424477D01*
X187735294Y-74489014D01*
X187920866Y-74715134D01*
X188146986Y-74900706D01*
X188216000Y-74937595D01*
X188216001Y-77718764D01*
X188055986Y-77804294D01*
X187829866Y-77989866D01*
X187644294Y-78215986D01*
X187609799Y-78280523D01*
X187540178Y-78163645D01*
X187345269Y-77947412D01*
X187111920Y-77773359D01*
X186849099Y-77648175D01*
X186701890Y-77603524D01*
X186472000Y-77724845D01*
X186472000Y-78918000D01*
X186492000Y-78918000D01*
X186492000Y-79172000D01*
X186472000Y-79172000D01*
X186472000Y-79192000D01*
X186218000Y-79192000D01*
X186218000Y-79172000D01*
X186198000Y-79172000D01*
X186198000Y-78918000D01*
X186218000Y-78918000D01*
X186218000Y-77724845D01*
X185988110Y-77603524D01*
X185840901Y-77648175D01*
X185578080Y-77773359D01*
X185344731Y-77947412D01*
X185149822Y-78163645D01*
X185080201Y-78280523D01*
X185045706Y-78215986D01*
X184860134Y-77989866D01*
X184656000Y-77822337D01*
X184656000Y-74937595D01*
X184725014Y-74900706D01*
X184951134Y-74715134D01*
X185136706Y-74489014D01*
X185171201Y-74424477D01*
X185240822Y-74541355D01*
X185435731Y-74757588D01*
X185669080Y-74931641D01*
X185931901Y-75056825D01*
X186079110Y-75101476D01*
X186309000Y-74980155D01*
X186309000Y-73787000D01*
X186289000Y-73787000D01*
X186289000Y-73533000D01*
X186309000Y-73533000D01*
X186309000Y-72339845D01*
X186079110Y-72218524D01*
X185931901Y-72263175D01*
X185669080Y-72388359D01*
X185435731Y-72562412D01*
X185240822Y-72778645D01*
X185171201Y-72895523D01*
X185136706Y-72830986D01*
X184951134Y-72604866D01*
X184725014Y-72419294D01*
X184467034Y-72281401D01*
X184187111Y-72196487D01*
X183968950Y-72175000D01*
X183823050Y-72175000D01*
X183604889Y-72196487D01*
X183324966Y-72281401D01*
X183066986Y-72419294D01*
X182840866Y-72604866D01*
X182655294Y-72830986D01*
X182626000Y-72885791D01*
X182596706Y-72830986D01*
X182411134Y-72604866D01*
X182185014Y-72419294D01*
X181927034Y-72281401D01*
X181647111Y-72196487D01*
X181428950Y-72175000D01*
X181283050Y-72175000D01*
X181064889Y-72196487D01*
X180784966Y-72281401D01*
X180526986Y-72419294D01*
X180300866Y-72604866D01*
X180115294Y-72830986D01*
X180086000Y-72885791D01*
X180056706Y-72830986D01*
X179871134Y-72604866D01*
X179645014Y-72419294D01*
X179387034Y-72281401D01*
X179107111Y-72196487D01*
X178888950Y-72175000D01*
X178743050Y-72175000D01*
X178524889Y-72196487D01*
X178244966Y-72281401D01*
X177986986Y-72419294D01*
X177760866Y-72604866D01*
X177575294Y-72830986D01*
X177546000Y-72885791D01*
X177516706Y-72830986D01*
X177331134Y-72604866D01*
X177105014Y-72419294D01*
X176847034Y-72281401D01*
X176567111Y-72196487D01*
X176348950Y-72175000D01*
X176203050Y-72175000D01*
X175984889Y-72196487D01*
X175704966Y-72281401D01*
X175446986Y-72419294D01*
X175220866Y-72604866D01*
X175035294Y-72830986D01*
X175006000Y-72885791D01*
X174976706Y-72830986D01*
X174791134Y-72604866D01*
X174565014Y-72419294D01*
X174307034Y-72281401D01*
X174027111Y-72196487D01*
X173808950Y-72175000D01*
X173663050Y-72175000D01*
X173444889Y-72196487D01*
X173164966Y-72281401D01*
X172906986Y-72419294D01*
X172680866Y-72604866D01*
X172495294Y-72830986D01*
X172466000Y-72885791D01*
X172436706Y-72830986D01*
X172251134Y-72604866D01*
X172025014Y-72419294D01*
X171767034Y-72281401D01*
X171487111Y-72196487D01*
X171268950Y-72175000D01*
X171123050Y-72175000D01*
X170904889Y-72196487D01*
X170624966Y-72281401D01*
X170366986Y-72419294D01*
X170140866Y-72604866D01*
X169955294Y-72830986D01*
X169926000Y-72885791D01*
X169896706Y-72830986D01*
X169711134Y-72604866D01*
X169485014Y-72419294D01*
X169227034Y-72281401D01*
X168947111Y-72196487D01*
X168728950Y-72175000D01*
X168583050Y-72175000D01*
X168364889Y-72196487D01*
X168084966Y-72281401D01*
X167826986Y-72419294D01*
X167600866Y-72604866D01*
X167415294Y-72830986D01*
X167386000Y-72885791D01*
X167356706Y-72830986D01*
X167171134Y-72604866D01*
X166945014Y-72419294D01*
X166687034Y-72281401D01*
X166407111Y-72196487D01*
X166188950Y-72175000D01*
X166043050Y-72175000D01*
X165824889Y-72196487D01*
X165544966Y-72281401D01*
X165286986Y-72419294D01*
X165060866Y-72604866D01*
X164875294Y-72830986D01*
X164846000Y-72885791D01*
X164816706Y-72830986D01*
X164631134Y-72604866D01*
X164405014Y-72419294D01*
X164147034Y-72281401D01*
X163867111Y-72196487D01*
X163648950Y-72175000D01*
X163503050Y-72175000D01*
X163284889Y-72196487D01*
X163004966Y-72281401D01*
X162746986Y-72419294D01*
X162520866Y-72604866D01*
X162335294Y-72830986D01*
X162306000Y-72885791D01*
X162276706Y-72830986D01*
X162091134Y-72604866D01*
X161865014Y-72419294D01*
X161607034Y-72281401D01*
X161327111Y-72196487D01*
X161108950Y-72175000D01*
X160963050Y-72175000D01*
X160744889Y-72196487D01*
X160464966Y-72281401D01*
X160206986Y-72419294D01*
X159980866Y-72604866D01*
X159795294Y-72830986D01*
X159766000Y-72885791D01*
X159736706Y-72830986D01*
X159551134Y-72604866D01*
X159325014Y-72419294D01*
X159067034Y-72281401D01*
X158787111Y-72196487D01*
X158568950Y-72175000D01*
X158423050Y-72175000D01*
X158204889Y-72196487D01*
X157924966Y-72281401D01*
X157666986Y-72419294D01*
X157440866Y-72604866D01*
X157255294Y-72830986D01*
X157226000Y-72885791D01*
X157196706Y-72830986D01*
X157011134Y-72604866D01*
X156785014Y-72419294D01*
X156527034Y-72281401D01*
X156247111Y-72196487D01*
X156028950Y-72175000D01*
X155883050Y-72175000D01*
X155664889Y-72196487D01*
X155384966Y-72281401D01*
X155126986Y-72419294D01*
X154900866Y-72604866D01*
X154876393Y-72634687D01*
X154855502Y-72565820D01*
X154796537Y-72455506D01*
X154717185Y-72358815D01*
X154620494Y-72279463D01*
X154510180Y-72220498D01*
X154390482Y-72184188D01*
X154266000Y-72171928D01*
X152566000Y-72171928D01*
X152441518Y-72184188D01*
X152321820Y-72220498D01*
X152211506Y-72279463D01*
X152114815Y-72358815D01*
X152035463Y-72455506D01*
X151976498Y-72565820D01*
X151940188Y-72685518D01*
X151927928Y-72810000D01*
X151927928Y-74510000D01*
X151940188Y-74634482D01*
X151976498Y-74754180D01*
X152035463Y-74864494D01*
X152114815Y-74961185D01*
X152211506Y-75040537D01*
X152321820Y-75099502D01*
X152441518Y-75135812D01*
X152566000Y-75148072D01*
X152656000Y-75148072D01*
X152656001Y-77556928D01*
X152475000Y-77556928D01*
X152350518Y-77569188D01*
X152230820Y-77605498D01*
X152120506Y-77664463D01*
X152023815Y-77743815D01*
X151944463Y-77840506D01*
X151885498Y-77950820D01*
X151849188Y-78070518D01*
X151836928Y-78195000D01*
X151836928Y-79895000D01*
X151849188Y-80019482D01*
X151885498Y-80139180D01*
X151944463Y-80249494D01*
X152023815Y-80346185D01*
X152120506Y-80425537D01*
X152230820Y-80484502D01*
X152350518Y-80520812D01*
X152475000Y-80533072D01*
X154175000Y-80533072D01*
X154299482Y-80520812D01*
X154419180Y-80484502D01*
X154529494Y-80425537D01*
X154626185Y-80346185D01*
X154705537Y-80249494D01*
X154764502Y-80139180D01*
X154785393Y-80070313D01*
X154809866Y-80100134D01*
X155035986Y-80285706D01*
X155293966Y-80423599D01*
X155573889Y-80508513D01*
X155792050Y-80530000D01*
X155937950Y-80530000D01*
X156156111Y-80508513D01*
X156436034Y-80423599D01*
X156694014Y-80285706D01*
X156920134Y-80100134D01*
X157105706Y-79874014D01*
X157135000Y-79819209D01*
X157164294Y-79874014D01*
X157349866Y-80100134D01*
X157575986Y-80285706D01*
X157833966Y-80423599D01*
X158113889Y-80508513D01*
X158332050Y-80530000D01*
X158477950Y-80530000D01*
X158696111Y-80508513D01*
X158976034Y-80423599D01*
X159234014Y-80285706D01*
X159460134Y-80100134D01*
X159645706Y-79874014D01*
X159675000Y-79819209D01*
X159704294Y-79874014D01*
X159889866Y-80100134D01*
X160115986Y-80285706D01*
X160373966Y-80423599D01*
X160653889Y-80508513D01*
X160872050Y-80530000D01*
X161017950Y-80530000D01*
X161236111Y-80508513D01*
X161516034Y-80423599D01*
X161774014Y-80285706D01*
X162000134Y-80100134D01*
X162185706Y-79874014D01*
X162215000Y-79819209D01*
X162244294Y-79874014D01*
X162429866Y-80100134D01*
X162655986Y-80285706D01*
X162913966Y-80423599D01*
X163193889Y-80508513D01*
X163412050Y-80530000D01*
X163557950Y-80530000D01*
X163776111Y-80508513D01*
X164056034Y-80423599D01*
X164314014Y-80285706D01*
X164540134Y-80100134D01*
X164725706Y-79874014D01*
X164755000Y-79819209D01*
X164784294Y-79874014D01*
X164969866Y-80100134D01*
X165195986Y-80285706D01*
X165453966Y-80423599D01*
X165733889Y-80508513D01*
X165952050Y-80530000D01*
X166097950Y-80530000D01*
X166316111Y-80508513D01*
X166596034Y-80423599D01*
X166854014Y-80285706D01*
X167080134Y-80100134D01*
X167265706Y-79874014D01*
X167295000Y-79819209D01*
X167324294Y-79874014D01*
X167509866Y-80100134D01*
X167735986Y-80285706D01*
X167993966Y-80423599D01*
X168273889Y-80508513D01*
X168492050Y-80530000D01*
X168637950Y-80530000D01*
X168856111Y-80508513D01*
X169136034Y-80423599D01*
X169394014Y-80285706D01*
X169620134Y-80100134D01*
X169805706Y-79874014D01*
X169835000Y-79819209D01*
X169864294Y-79874014D01*
X170049866Y-80100134D01*
X170275986Y-80285706D01*
X170533966Y-80423599D01*
X170813889Y-80508513D01*
X171032050Y-80530000D01*
X171177950Y-80530000D01*
X171396111Y-80508513D01*
X171676034Y-80423599D01*
X171934014Y-80285706D01*
X172160134Y-80100134D01*
X172345706Y-79874014D01*
X172375000Y-79819209D01*
X172404294Y-79874014D01*
X172589866Y-80100134D01*
X172815986Y-80285706D01*
X173073966Y-80423599D01*
X173353889Y-80508513D01*
X173572050Y-80530000D01*
X173717950Y-80530000D01*
X173936111Y-80508513D01*
X174216034Y-80423599D01*
X174474014Y-80285706D01*
X174700134Y-80100134D01*
X174885706Y-79874014D01*
X174915000Y-79819209D01*
X174944294Y-79874014D01*
X175129866Y-80100134D01*
X175355986Y-80285706D01*
X175613966Y-80423599D01*
X175893889Y-80508513D01*
X176112050Y-80530000D01*
X176257950Y-80530000D01*
X176476111Y-80508513D01*
X176756034Y-80423599D01*
X177014014Y-80285706D01*
X177240134Y-80100134D01*
X177425706Y-79874014D01*
X177455000Y-79819209D01*
X177484294Y-79874014D01*
X177669866Y-80100134D01*
X177895986Y-80285706D01*
X178153966Y-80423599D01*
X178433889Y-80508513D01*
X178652050Y-80530000D01*
X178797950Y-80530000D01*
X179016111Y-80508513D01*
X179296034Y-80423599D01*
X179554014Y-80285706D01*
X179780134Y-80100134D01*
X179965706Y-79874014D01*
X179995000Y-79819209D01*
X180024294Y-79874014D01*
X180209866Y-80100134D01*
X180435986Y-80285706D01*
X180693966Y-80423599D01*
X180973889Y-80508513D01*
X181192050Y-80530000D01*
X181337950Y-80530000D01*
X181556111Y-80508513D01*
X181836034Y-80423599D01*
X182094014Y-80285706D01*
X182320134Y-80100134D01*
X182505706Y-79874014D01*
X182535000Y-79819209D01*
X182564294Y-79874014D01*
X182749866Y-80100134D01*
X182975986Y-80285706D01*
X183233966Y-80423599D01*
X183513889Y-80508513D01*
X183732050Y-80530000D01*
X183877950Y-80530000D01*
X184096111Y-80508513D01*
X184376034Y-80423599D01*
X184634014Y-80285706D01*
X184860134Y-80100134D01*
X185045706Y-79874014D01*
X185080201Y-79809477D01*
X185149822Y-79926355D01*
X185344731Y-80142588D01*
X185578080Y-80316641D01*
X185840901Y-80441825D01*
X185988110Y-80486476D01*
X186217998Y-80365156D01*
X186217998Y-80530000D01*
X186325198Y-80530000D01*
X175876200Y-90978999D01*
X127246323Y-90978999D01*
X127209000Y-90975323D01*
X127191783Y-90977019D01*
X131651293Y-86517509D01*
X131968476Y-86613725D01*
X132245403Y-86641000D01*
X132930597Y-86641000D01*
X133207524Y-86613725D01*
X133562848Y-86505939D01*
X133890317Y-86330903D01*
X134177345Y-86095345D01*
X134412903Y-85808317D01*
X134587939Y-85480848D01*
X134695725Y-85125524D01*
X134732120Y-84756000D01*
X142943880Y-84756000D01*
X142980275Y-85125524D01*
X143088061Y-85480848D01*
X143263097Y-85808317D01*
X143498655Y-86095345D01*
X143785683Y-86330903D01*
X144113152Y-86505939D01*
X144468476Y-86613725D01*
X144745403Y-86641000D01*
X145430597Y-86641000D01*
X145707524Y-86613725D01*
X146062848Y-86505939D01*
X146390317Y-86330903D01*
X146677345Y-86095345D01*
X146912903Y-85808317D01*
X147087939Y-85480848D01*
X147195725Y-85125524D01*
X147232120Y-84756000D01*
X147195725Y-84386476D01*
X147087939Y-84031152D01*
X146912903Y-83703683D01*
X146677345Y-83416655D01*
X146390317Y-83181097D01*
X146062848Y-83006061D01*
X145707524Y-82898275D01*
X145430597Y-82871000D01*
X144745403Y-82871000D01*
X144468476Y-82898275D01*
X144113152Y-83006061D01*
X143785683Y-83181097D01*
X143498655Y-83416655D01*
X143263097Y-83703683D01*
X143088061Y-84031152D01*
X142980275Y-84386476D01*
X142943880Y-84756000D01*
X134732120Y-84756000D01*
X134695725Y-84386476D01*
X134587939Y-84031152D01*
X134412903Y-83703683D01*
X134177345Y-83416655D01*
X133890317Y-83181097D01*
X133562848Y-83006061D01*
X133207524Y-82898275D01*
X132930597Y-82871000D01*
X132245403Y-82871000D01*
X131968476Y-82898275D01*
X131613152Y-83006061D01*
X131285683Y-83181097D01*
X130998655Y-83416655D01*
X130763097Y-83703683D01*
X130588061Y-84031152D01*
X130480275Y-84386476D01*
X130443880Y-84756000D01*
X130480275Y-85125524D01*
X130576491Y-85442707D01*
X123603997Y-92415202D01*
X123574999Y-92439000D01*
X123551201Y-92467998D01*
X123551200Y-92467999D01*
X123480025Y-92554725D01*
X123409453Y-92686755D01*
X123406345Y-92697002D01*
X123370548Y-92815014D01*
X123365997Y-92830016D01*
X123351323Y-92979001D01*
X122453000Y-92979001D01*
X122453000Y-80175645D01*
X130500305Y-80175645D01*
X130529777Y-80316611D01*
X130673891Y-80658606D01*
X130881956Y-80965914D01*
X131145976Y-81226726D01*
X131455805Y-81431019D01*
X131799536Y-81570942D01*
X132163960Y-81641118D01*
X132461000Y-81486385D01*
X132461000Y-79883000D01*
X132715000Y-79883000D01*
X132715000Y-81486385D01*
X133012040Y-81641118D01*
X133376464Y-81570942D01*
X133720195Y-81431019D01*
X134030024Y-81226726D01*
X134294044Y-80965914D01*
X134502109Y-80658606D01*
X134646223Y-80316611D01*
X134675695Y-80175645D01*
X143000305Y-80175645D01*
X143029777Y-80316611D01*
X143173891Y-80658606D01*
X143381956Y-80965914D01*
X143645976Y-81226726D01*
X143955805Y-81431019D01*
X144299536Y-81570942D01*
X144663960Y-81641118D01*
X144961000Y-81486385D01*
X144961000Y-79883000D01*
X145215000Y-79883000D01*
X145215000Y-81486385D01*
X145512040Y-81641118D01*
X145876464Y-81570942D01*
X146220195Y-81431019D01*
X146530024Y-81226726D01*
X146794044Y-80965914D01*
X147002109Y-80658606D01*
X147146223Y-80316611D01*
X147175695Y-80175645D01*
X147059572Y-79883000D01*
X145215000Y-79883000D01*
X144961000Y-79883000D01*
X143116428Y-79883000D01*
X143000305Y-80175645D01*
X134675695Y-80175645D01*
X134559572Y-79883000D01*
X132715000Y-79883000D01*
X132461000Y-79883000D01*
X130616428Y-79883000D01*
X130500305Y-80175645D01*
X122453000Y-80175645D01*
X122453000Y-79336355D01*
X130500305Y-79336355D01*
X130616428Y-79629000D01*
X132461000Y-79629000D01*
X132461000Y-78025615D01*
X132715000Y-78025615D01*
X132715000Y-79629000D01*
X134559572Y-79629000D01*
X134675695Y-79336355D01*
X143000305Y-79336355D01*
X143116428Y-79629000D01*
X144961000Y-79629000D01*
X144961000Y-78025615D01*
X145215000Y-78025615D01*
X145215000Y-79629000D01*
X147059572Y-79629000D01*
X147175695Y-79336355D01*
X147146223Y-79195389D01*
X147002109Y-78853394D01*
X146794044Y-78546086D01*
X146530024Y-78285274D01*
X146220195Y-78080981D01*
X145876464Y-77941058D01*
X145512040Y-77870882D01*
X145215000Y-78025615D01*
X144961000Y-78025615D01*
X144663960Y-77870882D01*
X144299536Y-77941058D01*
X143955805Y-78080981D01*
X143645976Y-78285274D01*
X143381956Y-78546086D01*
X143173891Y-78853394D01*
X143029777Y-79195389D01*
X143000305Y-79336355D01*
X134675695Y-79336355D01*
X134646223Y-79195389D01*
X134502109Y-78853394D01*
X134294044Y-78546086D01*
X134030024Y-78285274D01*
X133720195Y-78080981D01*
X133376464Y-77941058D01*
X133012040Y-77870882D01*
X132715000Y-78025615D01*
X132461000Y-78025615D01*
X132163960Y-77870882D01*
X131799536Y-77941058D01*
X131455805Y-78080981D01*
X131145976Y-78285274D01*
X130881956Y-78546086D01*
X130673891Y-78853394D01*
X130529777Y-79195389D01*
X130500305Y-79336355D01*
X122453000Y-79336355D01*
X122453000Y-71788872D01*
X124384000Y-71788872D01*
X124384000Y-72229128D01*
X124469890Y-72660925D01*
X124638369Y-73067669D01*
X124882962Y-73433729D01*
X125194271Y-73745038D01*
X125560331Y-73989631D01*
X125967075Y-74158110D01*
X126398872Y-74244000D01*
X126839128Y-74244000D01*
X127270925Y-74158110D01*
X127677669Y-73989631D01*
X128043729Y-73745038D01*
X128355038Y-73433729D01*
X128599631Y-73067669D01*
X128768110Y-72660925D01*
X128854000Y-72229128D01*
X128854000Y-71788872D01*
X128768110Y-71357075D01*
X128599631Y-70950331D01*
X128355038Y-70584271D01*
X128043729Y-70272962D01*
X127826778Y-70128000D01*
X133751928Y-70128000D01*
X133751928Y-73128000D01*
X133764188Y-73252482D01*
X133800498Y-73372180D01*
X133859463Y-73482494D01*
X133938815Y-73579185D01*
X134035506Y-73658537D01*
X134145820Y-73717502D01*
X134265518Y-73753812D01*
X134390000Y-73766072D01*
X137390000Y-73766072D01*
X137514482Y-73753812D01*
X137634180Y-73717502D01*
X137744494Y-73658537D01*
X137841185Y-73579185D01*
X137920537Y-73482494D01*
X137979502Y-73372180D01*
X138015812Y-73252482D01*
X138028072Y-73128000D01*
X138028072Y-73119653D01*
X139657952Y-73119653D01*
X139813962Y-73435214D01*
X140188745Y-73626020D01*
X140593551Y-73740044D01*
X141012824Y-73772902D01*
X141430451Y-73723334D01*
X141830383Y-73593243D01*
X142126038Y-73435214D01*
X142282048Y-73119653D01*
X140970000Y-71807605D01*
X139657952Y-73119653D01*
X138028072Y-73119653D01*
X138028072Y-71670824D01*
X138825098Y-71670824D01*
X138874666Y-72088451D01*
X139004757Y-72488383D01*
X139162786Y-72784038D01*
X139478347Y-72940048D01*
X140790395Y-71628000D01*
X141149605Y-71628000D01*
X142461653Y-72940048D01*
X142777214Y-72784038D01*
X142968020Y-72409255D01*
X143071221Y-72042872D01*
X197155000Y-72042872D01*
X197155000Y-72483128D01*
X197240890Y-72914925D01*
X197409369Y-73321669D01*
X197653962Y-73687729D01*
X197965271Y-73999038D01*
X198331331Y-74243631D01*
X198738075Y-74412110D01*
X199169872Y-74498000D01*
X199610128Y-74498000D01*
X200041925Y-74412110D01*
X200448669Y-74243631D01*
X200814729Y-73999038D01*
X201126038Y-73687729D01*
X201370631Y-73321669D01*
X201539110Y-72914925D01*
X201625000Y-72483128D01*
X201625000Y-72042872D01*
X201539110Y-71611075D01*
X201370631Y-71204331D01*
X201126038Y-70838271D01*
X200814729Y-70526962D01*
X200448669Y-70282369D01*
X200041925Y-70113890D01*
X199610128Y-70028000D01*
X199169872Y-70028000D01*
X198738075Y-70113890D01*
X198331331Y-70282369D01*
X197965271Y-70526962D01*
X197653962Y-70838271D01*
X197409369Y-71204331D01*
X197240890Y-71611075D01*
X197155000Y-72042872D01*
X143071221Y-72042872D01*
X143082044Y-72004449D01*
X143114902Y-71585176D01*
X143065334Y-71167549D01*
X142935243Y-70767617D01*
X142777214Y-70471962D01*
X142461653Y-70315952D01*
X141149605Y-71628000D01*
X140790395Y-71628000D01*
X139478347Y-70315952D01*
X139162786Y-70471962D01*
X138971980Y-70846745D01*
X138857956Y-71251551D01*
X138825098Y-71670824D01*
X138028072Y-71670824D01*
X138028072Y-70136347D01*
X139657952Y-70136347D01*
X140970000Y-71448395D01*
X142282048Y-70136347D01*
X142126038Y-69820786D01*
X141751255Y-69629980D01*
X141346449Y-69515956D01*
X140927176Y-69483098D01*
X140509549Y-69532666D01*
X140109617Y-69662757D01*
X139813962Y-69820786D01*
X139657952Y-70136347D01*
X138028072Y-70136347D01*
X138028072Y-70128000D01*
X138015812Y-70003518D01*
X137979502Y-69883820D01*
X137920537Y-69773506D01*
X137841185Y-69676815D01*
X137744494Y-69597463D01*
X137634180Y-69538498D01*
X137514482Y-69502188D01*
X137390000Y-69489928D01*
X134390000Y-69489928D01*
X134265518Y-69502188D01*
X134145820Y-69538498D01*
X134035506Y-69597463D01*
X133938815Y-69676815D01*
X133859463Y-69773506D01*
X133800498Y-69883820D01*
X133764188Y-70003518D01*
X133751928Y-70128000D01*
X127826778Y-70128000D01*
X127677669Y-70028369D01*
X127270925Y-69859890D01*
X126839128Y-69774000D01*
X126398872Y-69774000D01*
X125967075Y-69859890D01*
X125560331Y-70028369D01*
X125194271Y-70272962D01*
X124882962Y-70584271D01*
X124638369Y-70950331D01*
X124469890Y-71357075D01*
X124384000Y-71788872D01*
X122453000Y-71788872D01*
X122453000Y-67843000D01*
X203048000Y-67843000D01*
X203048001Y-119101000D01*
X203048001Y-119101000D01*
G37*
X203048001Y-119101000D02*
X122453000Y-119101000D01*
X122453000Y-115095872D01*
X124384000Y-115095872D01*
X124384000Y-115536128D01*
X124469890Y-115967925D01*
X124638369Y-116374669D01*
X124882962Y-116740729D01*
X125194271Y-117052038D01*
X125560331Y-117296631D01*
X125967075Y-117465110D01*
X126398872Y-117551000D01*
X126839128Y-117551000D01*
X127270925Y-117465110D01*
X127677669Y-117296631D01*
X128043729Y-117052038D01*
X128355038Y-116740729D01*
X128599631Y-116374669D01*
X128768110Y-115967925D01*
X128854000Y-115536128D01*
X128854000Y-115095872D01*
X128768110Y-114664075D01*
X128599631Y-114257331D01*
X128355038Y-113891271D01*
X128043729Y-113579962D01*
X127677669Y-113335369D01*
X127270925Y-113166890D01*
X126839128Y-113081000D01*
X126398872Y-113081000D01*
X125967075Y-113166890D01*
X125560331Y-113335369D01*
X125194271Y-113579962D01*
X124882962Y-113891271D01*
X124638369Y-114257331D01*
X124469890Y-114664075D01*
X124384000Y-115095872D01*
X122453000Y-115095872D01*
X122453000Y-92979001D01*
X123351323Y-92979001D01*
X123355000Y-93016333D01*
X123354999Y-105708810D01*
X123351692Y-105734245D01*
X123354999Y-105783484D01*
X123354999Y-105795333D01*
X123357501Y-105820734D01*
X123361724Y-105883614D01*
X123364828Y-105895123D01*
X123365996Y-105906986D01*
X123384291Y-105967298D01*
X123400703Y-106028157D01*
X123405993Y-106038840D01*
X123409453Y-106050247D01*
X123439167Y-106105838D01*
X123467134Y-106162318D01*
X123474406Y-106171763D01*
X123480025Y-106182276D01*
X123520009Y-106230997D01*
X123535576Y-106251217D01*
X123543687Y-106259849D01*
X123574998Y-106298002D01*
X123594829Y-106314277D01*
X132527734Y-115821091D01*
X132562317Y-115862245D01*
X132608035Y-115898883D01*
X132652176Y-115937468D01*
X132666368Y-115945631D01*
X132679139Y-115955866D01*
X132731131Y-115982884D01*
X132781946Y-116012113D01*
X132797458Y-116017351D01*
X132811980Y-116024897D01*
X132868256Y-116041255D01*
X132923785Y-116060005D01*
X132940016Y-116062115D01*
X132955737Y-116066685D01*
X133014135Y-116071751D01*
X133072243Y-116079306D01*
X133125891Y-116075703D01*
X176752214Y-115568210D01*
X176804493Y-115570698D01*
X176863856Y-115561800D01*
X176923546Y-115555219D01*
X176937783Y-115550719D01*
X176952546Y-115548506D01*
X177009046Y-115528193D01*
X177066292Y-115510098D01*
X177079373Y-115502909D01*
X177093425Y-115497857D01*
X177144891Y-115466902D01*
X177197491Y-115437995D01*
X177208917Y-115428393D01*
X177221715Y-115420696D01*
X177266139Y-115380308D01*
X177302358Y-115349872D01*
X196901000Y-115349872D01*
X196901000Y-115790128D01*
X196986890Y-116221925D01*
X197155369Y-116628669D01*
X197399962Y-116994729D01*
X197711271Y-117306038D01*
X198077331Y-117550631D01*
X198484075Y-117719110D01*
X198915872Y-117805000D01*
X199356128Y-117805000D01*
X199787925Y-117719110D01*
X200194669Y-117550631D01*
X200560729Y-117306038D01*
X200872038Y-116994729D01*
X201116631Y-116628669D01*
X201285110Y-116221925D01*
X201371000Y-115790128D01*
X201371000Y-115349872D01*
X201285110Y-114918075D01*
X201116631Y-114511331D01*
X200872038Y-114145271D01*
X200560729Y-113833962D01*
X200194669Y-113589369D01*
X199787925Y-113420890D01*
X199356128Y-113335000D01*
X198915872Y-113335000D01*
X198484075Y-113420890D01*
X198077331Y-113589369D01*
X197711271Y-113833962D01*
X197399962Y-114145271D01*
X197155369Y-114511331D01*
X196986890Y-114918075D01*
X196901000Y-115349872D01*
X177302358Y-115349872D01*
X177312104Y-115341683D01*
X177344846Y-115300827D01*
X181059407Y-111189850D01*
X181064889Y-111191513D01*
X181283050Y-111213000D01*
X181428950Y-111213000D01*
X181647111Y-111191513D01*
X181927034Y-111106599D01*
X182185014Y-110968706D01*
X182411134Y-110783134D01*
X182596706Y-110557014D01*
X182626000Y-110502209D01*
X182655294Y-110557014D01*
X182840866Y-110783134D01*
X183066986Y-110968706D01*
X183324966Y-111106599D01*
X183604889Y-111191513D01*
X183823050Y-111213000D01*
X183968950Y-111213000D01*
X184187111Y-111191513D01*
X184467034Y-111106599D01*
X184725014Y-110968706D01*
X184951134Y-110783134D01*
X185136706Y-110557014D01*
X185171201Y-110492477D01*
X185240822Y-110609355D01*
X185435731Y-110825588D01*
X185669080Y-110999641D01*
X185931901Y-111124825D01*
X186079110Y-111169476D01*
X186309000Y-111048155D01*
X186309000Y-109855000D01*
X186289000Y-109855000D01*
X186289000Y-109601000D01*
X186309000Y-109601000D01*
X186309000Y-108407845D01*
X186563000Y-108407845D01*
X186563000Y-109601000D01*
X186583000Y-109601000D01*
X186583000Y-109855000D01*
X186563000Y-109855000D01*
X186563000Y-111048155D01*
X186792890Y-111169476D01*
X186940099Y-111124825D01*
X187202920Y-110999641D01*
X187436269Y-110825588D01*
X187631178Y-110609355D01*
X187700799Y-110492477D01*
X187735294Y-110557014D01*
X187920866Y-110783134D01*
X188146986Y-110968706D01*
X188404966Y-111106599D01*
X188684889Y-111191513D01*
X188903050Y-111213000D01*
X189048950Y-111213000D01*
X189267111Y-111191513D01*
X189547034Y-111106599D01*
X189805014Y-110968706D01*
X190031134Y-110783134D01*
X190216706Y-110557014D01*
X190354599Y-110299034D01*
X190439513Y-110019111D01*
X190468185Y-109728000D01*
X190439513Y-109436889D01*
X190354599Y-109156966D01*
X190216706Y-108898986D01*
X190031134Y-108672866D01*
X189805014Y-108487294D01*
X189745000Y-108455216D01*
X189745000Y-106022595D01*
X189814014Y-105985706D01*
X190040134Y-105800134D01*
X190225706Y-105574014D01*
X190363599Y-105316034D01*
X190448513Y-105036111D01*
X190477185Y-104745000D01*
X190448513Y-104453889D01*
X190363599Y-104173966D01*
X190225706Y-103915986D01*
X190040134Y-103689866D01*
X189814014Y-103504294D01*
X189556034Y-103366401D01*
X189276111Y-103281487D01*
X189057950Y-103260000D01*
X188912050Y-103260000D01*
X188693889Y-103281487D01*
X188413966Y-103366401D01*
X188155986Y-103504294D01*
X187929866Y-103689866D01*
X187744294Y-103915986D01*
X187709799Y-103980523D01*
X187640178Y-103863645D01*
X187445269Y-103647412D01*
X187211920Y-103473359D01*
X186949099Y-103348175D01*
X186801890Y-103303524D01*
X186572000Y-103424845D01*
X186572000Y-104618000D01*
X186592000Y-104618000D01*
X186592000Y-104872000D01*
X186572000Y-104872000D01*
X186572000Y-106065155D01*
X186801890Y-106186476D01*
X186949099Y-106141825D01*
X187211920Y-106016641D01*
X187445269Y-105842588D01*
X187640178Y-105626355D01*
X187709799Y-105509477D01*
X187744294Y-105574014D01*
X187929866Y-105800134D01*
X188155986Y-105985706D01*
X188225000Y-106022595D01*
X188225001Y-108445594D01*
X188146986Y-108487294D01*
X187920866Y-108672866D01*
X187735294Y-108898986D01*
X187700799Y-108963523D01*
X187631178Y-108846645D01*
X187436269Y-108630412D01*
X187202920Y-108456359D01*
X186940099Y-108331175D01*
X186792890Y-108286524D01*
X186563000Y-108407845D01*
X186309000Y-108407845D01*
X186079110Y-108286524D01*
X185931901Y-108331175D01*
X185669080Y-108456359D01*
X185435731Y-108630412D01*
X185240822Y-108846645D01*
X185171201Y-108963523D01*
X185136706Y-108898986D01*
X184951134Y-108672866D01*
X184725014Y-108487294D01*
X184665000Y-108455216D01*
X184665000Y-106022595D01*
X184734014Y-105985706D01*
X184960134Y-105800134D01*
X185145706Y-105574014D01*
X185180201Y-105509477D01*
X185249822Y-105626355D01*
X185444731Y-105842588D01*
X185678080Y-106016641D01*
X185940901Y-106141825D01*
X186088110Y-106186476D01*
X186318000Y-106065155D01*
X186318000Y-104872000D01*
X186298000Y-104872000D01*
X186298000Y-104618000D01*
X186318000Y-104618000D01*
X186318000Y-103424845D01*
X186088110Y-103303524D01*
X185940901Y-103348175D01*
X185678080Y-103473359D01*
X185444731Y-103647412D01*
X185249822Y-103863645D01*
X185180201Y-103980523D01*
X185145706Y-103915986D01*
X184960134Y-103689866D01*
X184734014Y-103504294D01*
X184476034Y-103366401D01*
X184196111Y-103281487D01*
X183977950Y-103260000D01*
X183832050Y-103260000D01*
X183613889Y-103281487D01*
X183333966Y-103366401D01*
X183075986Y-103504294D01*
X182849866Y-103689866D01*
X182664294Y-103915986D01*
X182635000Y-103970791D01*
X182605706Y-103915986D01*
X182420134Y-103689866D01*
X182194014Y-103504294D01*
X181936034Y-103366401D01*
X181656111Y-103281487D01*
X181437950Y-103260000D01*
X181292050Y-103260000D01*
X181073889Y-103281487D01*
X180793966Y-103366401D01*
X180535986Y-103504294D01*
X180309866Y-103689866D01*
X180124294Y-103915986D01*
X180095000Y-103970791D01*
X180065706Y-103915986D01*
X179880134Y-103689866D01*
X179654014Y-103504294D01*
X179396034Y-103366401D01*
X179116111Y-103281487D01*
X178897950Y-103260000D01*
X178752050Y-103260000D01*
X178533889Y-103281487D01*
X178253966Y-103366401D01*
X177995986Y-103504294D01*
X177769866Y-103689866D01*
X177584294Y-103915986D01*
X177555000Y-103970791D01*
X177525706Y-103915986D01*
X177340134Y-103689866D01*
X177114014Y-103504294D01*
X176856034Y-103366401D01*
X176576111Y-103281487D01*
X176357950Y-103260000D01*
X176212050Y-103260000D01*
X175993889Y-103281487D01*
X175713966Y-103366401D01*
X175455986Y-103504294D01*
X175229866Y-103689866D01*
X175044294Y-103915986D01*
X175015000Y-103970791D01*
X174985706Y-103915986D01*
X174800134Y-103689866D01*
X174574014Y-103504294D01*
X174316034Y-103366401D01*
X174036111Y-103281487D01*
X173817950Y-103260000D01*
X173672050Y-103260000D01*
X173453889Y-103281487D01*
X173379005Y-103304203D01*
X169131804Y-99057003D01*
X169108001Y-99027999D01*
X168992276Y-98933026D01*
X168860247Y-98862454D01*
X168716986Y-98818997D01*
X168605333Y-98808000D01*
X168605322Y-98808000D01*
X168568000Y-98804324D01*
X168530678Y-98808000D01*
X145736802Y-98808000D01*
X143953804Y-97025003D01*
X143930001Y-96995999D01*
X143814276Y-96901026D01*
X143778072Y-96881674D01*
X143778072Y-96677250D01*
X143765812Y-96552768D01*
X143729502Y-96433070D01*
X143670537Y-96322756D01*
X143591185Y-96226065D01*
X143494494Y-96146713D01*
X143480550Y-96139260D01*
X143529267Y-96079898D01*
X143667972Y-95820399D01*
X143753386Y-95538826D01*
X143782227Y-95246000D01*
X143753386Y-94953174D01*
X143667972Y-94671601D01*
X143529267Y-94412102D01*
X143342601Y-94184649D01*
X143234079Y-94095587D01*
X143355702Y-93992010D01*
X143537172Y-93762488D01*
X143670378Y-93501973D01*
X143731400Y-93314264D01*
X143610195Y-93083000D01*
X142367000Y-93083000D01*
X142367000Y-93103000D01*
X142113000Y-93103000D01*
X142113000Y-93083000D01*
X140869805Y-93083000D01*
X140748600Y-93314264D01*
X140809622Y-93501973D01*
X140942828Y-93762488D01*
X141124298Y-93992010D01*
X141245921Y-94095587D01*
X141137399Y-94184649D01*
X140950733Y-94412102D01*
X140911234Y-94486000D01*
X135826802Y-94486000D01*
X133839800Y-92498999D01*
X140780698Y-92498999D01*
X140748600Y-92597736D01*
X140869805Y-92829000D01*
X142113000Y-92829000D01*
X142113000Y-92809000D01*
X142367000Y-92809000D01*
X142367000Y-92829000D01*
X143610195Y-92829000D01*
X143731400Y-92597736D01*
X143699302Y-92498999D01*
X176153679Y-92498999D01*
X176191001Y-92502675D01*
X176228323Y-92498999D01*
X176228334Y-92498999D01*
X176339987Y-92488002D01*
X176483248Y-92444545D01*
X176615277Y-92373973D01*
X176731002Y-92279000D01*
X176754805Y-92249996D01*
X188519005Y-80485797D01*
X188593889Y-80508513D01*
X188812050Y-80530000D01*
X188957950Y-80530000D01*
X189176111Y-80508513D01*
X189456034Y-80423599D01*
X189714014Y-80285706D01*
X189940134Y-80100134D01*
X190125706Y-79874014D01*
X190263599Y-79616034D01*
X190348513Y-79336111D01*
X190377185Y-79045000D01*
X190348513Y-78753889D01*
X190263599Y-78473966D01*
X190125706Y-78215986D01*
X189940134Y-77989866D01*
X189736000Y-77822337D01*
X189736000Y-74937595D01*
X189805014Y-74900706D01*
X190031134Y-74715134D01*
X190216706Y-74489014D01*
X190354599Y-74231034D01*
X190439513Y-73951111D01*
X190468185Y-73660000D01*
X190439513Y-73368889D01*
X190354599Y-73088966D01*
X190216706Y-72830986D01*
X190031134Y-72604866D01*
X189805014Y-72419294D01*
X189547034Y-72281401D01*
X189267111Y-72196487D01*
X189048950Y-72175000D01*
X188903050Y-72175000D01*
X188684889Y-72196487D01*
X188404966Y-72281401D01*
X188146986Y-72419294D01*
X187920866Y-72604866D01*
X187735294Y-72830986D01*
X187700799Y-72895523D01*
X187631178Y-72778645D01*
X187436269Y-72562412D01*
X187202920Y-72388359D01*
X186940099Y-72263175D01*
X186792890Y-72218524D01*
X186563000Y-72339845D01*
X186563000Y-73533000D01*
X186583000Y-73533000D01*
X186583000Y-73787000D01*
X186563000Y-73787000D01*
X186563000Y-74980155D01*
X186792890Y-75101476D01*
X186940099Y-75056825D01*
X187202920Y-74931641D01*
X187436269Y-74757588D01*
X187631178Y-74541355D01*
X187700799Y-74424477D01*
X187735294Y-74489014D01*
X187920866Y-74715134D01*
X188146986Y-74900706D01*
X188216000Y-74937595D01*
X188216001Y-77718764D01*
X188055986Y-77804294D01*
X187829866Y-77989866D01*
X187644294Y-78215986D01*
X187609799Y-78280523D01*
X187540178Y-78163645D01*
X187345269Y-77947412D01*
X187111920Y-77773359D01*
X186849099Y-77648175D01*
X186701890Y-77603524D01*
X186472000Y-77724845D01*
X186472000Y-78918000D01*
X186492000Y-78918000D01*
X186492000Y-79172000D01*
X186472000Y-79172000D01*
X186472000Y-79192000D01*
X186218000Y-79192000D01*
X186218000Y-79172000D01*
X186198000Y-79172000D01*
X186198000Y-78918000D01*
X186218000Y-78918000D01*
X186218000Y-77724845D01*
X185988110Y-77603524D01*
X185840901Y-77648175D01*
X185578080Y-77773359D01*
X185344731Y-77947412D01*
X185149822Y-78163645D01*
X185080201Y-78280523D01*
X185045706Y-78215986D01*
X184860134Y-77989866D01*
X184656000Y-77822337D01*
X184656000Y-74937595D01*
X184725014Y-74900706D01*
X184951134Y-74715134D01*
X185136706Y-74489014D01*
X185171201Y-74424477D01*
X185240822Y-74541355D01*
X185435731Y-74757588D01*
X185669080Y-74931641D01*
X185931901Y-75056825D01*
X186079110Y-75101476D01*
X186309000Y-74980155D01*
X186309000Y-73787000D01*
X186289000Y-73787000D01*
X186289000Y-73533000D01*
X186309000Y-73533000D01*
X186309000Y-72339845D01*
X186079110Y-72218524D01*
X185931901Y-72263175D01*
X185669080Y-72388359D01*
X185435731Y-72562412D01*
X185240822Y-72778645D01*
X185171201Y-72895523D01*
X185136706Y-72830986D01*
X184951134Y-72604866D01*
X184725014Y-72419294D01*
X184467034Y-72281401D01*
X184187111Y-72196487D01*
X183968950Y-72175000D01*
X183823050Y-72175000D01*
X183604889Y-72196487D01*
X183324966Y-72281401D01*
X183066986Y-72419294D01*
X182840866Y-72604866D01*
X182655294Y-72830986D01*
X182626000Y-72885791D01*
X182596706Y-72830986D01*
X182411134Y-72604866D01*
X182185014Y-72419294D01*
X181927034Y-72281401D01*
X181647111Y-72196487D01*
X181428950Y-72175000D01*
X181283050Y-72175000D01*
X181064889Y-72196487D01*
X180784966Y-72281401D01*
X180526986Y-72419294D01*
X180300866Y-72604866D01*
X180115294Y-72830986D01*
X180086000Y-72885791D01*
X180056706Y-72830986D01*
X179871134Y-72604866D01*
X179645014Y-72419294D01*
X179387034Y-72281401D01*
X179107111Y-72196487D01*
X178888950Y-72175000D01*
X178743050Y-72175000D01*
X178524889Y-72196487D01*
X178244966Y-72281401D01*
X177986986Y-72419294D01*
X177760866Y-72604866D01*
X177575294Y-72830986D01*
X177546000Y-72885791D01*
X177516706Y-72830986D01*
X177331134Y-72604866D01*
X177105014Y-72419294D01*
X176847034Y-72281401D01*
X176567111Y-72196487D01*
X176348950Y-72175000D01*
X176203050Y-72175000D01*
X175984889Y-72196487D01*
X175704966Y-72281401D01*
X175446986Y-72419294D01*
X175220866Y-72604866D01*
X175035294Y-72830986D01*
X175006000Y-72885791D01*
X174976706Y-72830986D01*
X174791134Y-72604866D01*
X174565014Y-72419294D01*
X174307034Y-72281401D01*
X174027111Y-72196487D01*
X173808950Y-72175000D01*
X173663050Y-72175000D01*
X173444889Y-72196487D01*
X173164966Y-72281401D01*
X172906986Y-72419294D01*
X172680866Y-72604866D01*
X172495294Y-72830986D01*
X172466000Y-72885791D01*
X172436706Y-72830986D01*
X172251134Y-72604866D01*
X172025014Y-72419294D01*
X171767034Y-72281401D01*
X171487111Y-72196487D01*
X171268950Y-72175000D01*
X171123050Y-72175000D01*
X170904889Y-72196487D01*
X170624966Y-72281401D01*
X170366986Y-72419294D01*
X170140866Y-72604866D01*
X169955294Y-72830986D01*
X169926000Y-72885791D01*
X169896706Y-72830986D01*
X169711134Y-72604866D01*
X169485014Y-72419294D01*
X169227034Y-72281401D01*
X168947111Y-72196487D01*
X168728950Y-72175000D01*
X168583050Y-72175000D01*
X168364889Y-72196487D01*
X168084966Y-72281401D01*
X167826986Y-72419294D01*
X167600866Y-72604866D01*
X167415294Y-72830986D01*
X167386000Y-72885791D01*
X167356706Y-72830986D01*
X167171134Y-72604866D01*
X166945014Y-72419294D01*
X166687034Y-72281401D01*
X166407111Y-72196487D01*
X166188950Y-72175000D01*
X166043050Y-72175000D01*
X165824889Y-72196487D01*
X165544966Y-72281401D01*
X165286986Y-72419294D01*
X165060866Y-72604866D01*
X164875294Y-72830986D01*
X164846000Y-72885791D01*
X164816706Y-72830986D01*
X164631134Y-72604866D01*
X164405014Y-72419294D01*
X164147034Y-72281401D01*
X163867111Y-72196487D01*
X163648950Y-72175000D01*
X163503050Y-72175000D01*
X163284889Y-72196487D01*
X163004966Y-72281401D01*
X162746986Y-72419294D01*
X162520866Y-72604866D01*
X162335294Y-72830986D01*
X162306000Y-72885791D01*
X162276706Y-72830986D01*
X162091134Y-72604866D01*
X161865014Y-72419294D01*
X161607034Y-72281401D01*
X161327111Y-72196487D01*
X161108950Y-72175000D01*
X160963050Y-72175000D01*
X160744889Y-72196487D01*
X160464966Y-72281401D01*
X160206986Y-72419294D01*
X159980866Y-72604866D01*
X159795294Y-72830986D01*
X159766000Y-72885791D01*
X159736706Y-72830986D01*
X159551134Y-72604866D01*
X159325014Y-72419294D01*
X159067034Y-72281401D01*
X158787111Y-72196487D01*
X158568950Y-72175000D01*
X158423050Y-72175000D01*
X158204889Y-72196487D01*
X157924966Y-72281401D01*
X157666986Y-72419294D01*
X157440866Y-72604866D01*
X157255294Y-72830986D01*
X157226000Y-72885791D01*
X157196706Y-72830986D01*
X157011134Y-72604866D01*
X156785014Y-72419294D01*
X156527034Y-72281401D01*
X156247111Y-72196487D01*
X156028950Y-72175000D01*
X155883050Y-72175000D01*
X155664889Y-72196487D01*
X155384966Y-72281401D01*
X155126986Y-72419294D01*
X154900866Y-72604866D01*
X154876393Y-72634687D01*
X154855502Y-72565820D01*
X154796537Y-72455506D01*
X154717185Y-72358815D01*
X154620494Y-72279463D01*
X154510180Y-72220498D01*
X154390482Y-72184188D01*
X154266000Y-72171928D01*
X152566000Y-72171928D01*
X152441518Y-72184188D01*
X152321820Y-72220498D01*
X152211506Y-72279463D01*
X152114815Y-72358815D01*
X152035463Y-72455506D01*
X151976498Y-72565820D01*
X151940188Y-72685518D01*
X151927928Y-72810000D01*
X151927928Y-74510000D01*
X151940188Y-74634482D01*
X151976498Y-74754180D01*
X152035463Y-74864494D01*
X152114815Y-74961185D01*
X152211506Y-75040537D01*
X152321820Y-75099502D01*
X152441518Y-75135812D01*
X152566000Y-75148072D01*
X152656000Y-75148072D01*
X152656001Y-77556928D01*
X152475000Y-77556928D01*
X152350518Y-77569188D01*
X152230820Y-77605498D01*
X152120506Y-77664463D01*
X152023815Y-77743815D01*
X151944463Y-77840506D01*
X151885498Y-77950820D01*
X151849188Y-78070518D01*
X151836928Y-78195000D01*
X151836928Y-79895000D01*
X151849188Y-80019482D01*
X151885498Y-80139180D01*
X151944463Y-80249494D01*
X152023815Y-80346185D01*
X152120506Y-80425537D01*
X152230820Y-80484502D01*
X152350518Y-80520812D01*
X152475000Y-80533072D01*
X154175000Y-80533072D01*
X154299482Y-80520812D01*
X154419180Y-80484502D01*
X154529494Y-80425537D01*
X154626185Y-80346185D01*
X154705537Y-80249494D01*
X154764502Y-80139180D01*
X154785393Y-80070313D01*
X154809866Y-80100134D01*
X155035986Y-80285706D01*
X155293966Y-80423599D01*
X155573889Y-80508513D01*
X155792050Y-80530000D01*
X155937950Y-80530000D01*
X156156111Y-80508513D01*
X156436034Y-80423599D01*
X156694014Y-80285706D01*
X156920134Y-80100134D01*
X157105706Y-79874014D01*
X157135000Y-79819209D01*
X157164294Y-79874014D01*
X157349866Y-80100134D01*
X157575986Y-80285706D01*
X157833966Y-80423599D01*
X158113889Y-80508513D01*
X158332050Y-80530000D01*
X158477950Y-80530000D01*
X158696111Y-80508513D01*
X158976034Y-80423599D01*
X159234014Y-80285706D01*
X159460134Y-80100134D01*
X159645706Y-79874014D01*
X159675000Y-79819209D01*
X159704294Y-79874014D01*
X159889866Y-80100134D01*
X160115986Y-80285706D01*
X160373966Y-80423599D01*
X160653889Y-80508513D01*
X160872050Y-80530000D01*
X161017950Y-80530000D01*
X161236111Y-80508513D01*
X161516034Y-80423599D01*
X161774014Y-80285706D01*
X162000134Y-80100134D01*
X162185706Y-79874014D01*
X162215000Y-79819209D01*
X162244294Y-79874014D01*
X162429866Y-80100134D01*
X162655986Y-80285706D01*
X162913966Y-80423599D01*
X163193889Y-80508513D01*
X163412050Y-80530000D01*
X163557950Y-80530000D01*
X163776111Y-80508513D01*
X164056034Y-80423599D01*
X164314014Y-80285706D01*
X164540134Y-80100134D01*
X164725706Y-79874014D01*
X164755000Y-79819209D01*
X164784294Y-79874014D01*
X164969866Y-80100134D01*
X165195986Y-80285706D01*
X165453966Y-80423599D01*
X165733889Y-80508513D01*
X165952050Y-80530000D01*
X166097950Y-80530000D01*
X166316111Y-80508513D01*
X166596034Y-80423599D01*
X166854014Y-80285706D01*
X167080134Y-80100134D01*
X167265706Y-79874014D01*
X167295000Y-79819209D01*
X167324294Y-79874014D01*
X167509866Y-80100134D01*
X167735986Y-80285706D01*
X167993966Y-80423599D01*
X168273889Y-80508513D01*
X168492050Y-80530000D01*
X168637950Y-80530000D01*
X168856111Y-80508513D01*
X169136034Y-80423599D01*
X169394014Y-80285706D01*
X169620134Y-80100134D01*
X169805706Y-79874014D01*
X169835000Y-79819209D01*
X169864294Y-79874014D01*
X170049866Y-80100134D01*
X170275986Y-80285706D01*
X170533966Y-80423599D01*
X170813889Y-80508513D01*
X171032050Y-80530000D01*
X171177950Y-80530000D01*
X171396111Y-80508513D01*
X171676034Y-80423599D01*
X171934014Y-80285706D01*
X172160134Y-80100134D01*
X172345706Y-79874014D01*
X172375000Y-79819209D01*
X172404294Y-79874014D01*
X172589866Y-80100134D01*
X172815986Y-80285706D01*
X173073966Y-80423599D01*
X173353889Y-80508513D01*
X173572050Y-80530000D01*
X173717950Y-80530000D01*
X173936111Y-80508513D01*
X174216034Y-80423599D01*
X174474014Y-80285706D01*
X174700134Y-80100134D01*
X174885706Y-79874014D01*
X174915000Y-79819209D01*
X174944294Y-79874014D01*
X175129866Y-80100134D01*
X175355986Y-80285706D01*
X175613966Y-80423599D01*
X175893889Y-80508513D01*
X176112050Y-80530000D01*
X176257950Y-80530000D01*
X176476111Y-80508513D01*
X176756034Y-80423599D01*
X177014014Y-80285706D01*
X177240134Y-80100134D01*
X177425706Y-79874014D01*
X177455000Y-79819209D01*
X177484294Y-79874014D01*
X177669866Y-80100134D01*
X177895986Y-80285706D01*
X178153966Y-80423599D01*
X178433889Y-80508513D01*
X178652050Y-80530000D01*
X178797950Y-80530000D01*
X179016111Y-80508513D01*
X179296034Y-80423599D01*
X179554014Y-80285706D01*
X179780134Y-80100134D01*
X179965706Y-79874014D01*
X179995000Y-79819209D01*
X180024294Y-79874014D01*
X180209866Y-80100134D01*
X180435986Y-80285706D01*
X180693966Y-80423599D01*
X180973889Y-80508513D01*
X181192050Y-80530000D01*
X181337950Y-80530000D01*
X181556111Y-80508513D01*
X181836034Y-80423599D01*
X182094014Y-80285706D01*
X182320134Y-80100134D01*
X182505706Y-79874014D01*
X182535000Y-79819209D01*
X182564294Y-79874014D01*
X182749866Y-80100134D01*
X182975986Y-80285706D01*
X183233966Y-80423599D01*
X183513889Y-80508513D01*
X183732050Y-80530000D01*
X183877950Y-80530000D01*
X184096111Y-80508513D01*
X184376034Y-80423599D01*
X184634014Y-80285706D01*
X184860134Y-80100134D01*
X185045706Y-79874014D01*
X185080201Y-79809477D01*
X185149822Y-79926355D01*
X185344731Y-80142588D01*
X185578080Y-80316641D01*
X185840901Y-80441825D01*
X185988110Y-80486476D01*
X186217998Y-80365156D01*
X186217998Y-80530000D01*
X186325198Y-80530000D01*
X175876200Y-90978999D01*
X127246323Y-90978999D01*
X127209000Y-90975323D01*
X127191783Y-90977019D01*
X131651293Y-86517509D01*
X131968476Y-86613725D01*
X132245403Y-86641000D01*
X132930597Y-86641000D01*
X133207524Y-86613725D01*
X133562848Y-86505939D01*
X133890317Y-86330903D01*
X134177345Y-86095345D01*
X134412903Y-85808317D01*
X134587939Y-85480848D01*
X134695725Y-85125524D01*
X134732120Y-84756000D01*
X142943880Y-84756000D01*
X142980275Y-85125524D01*
X143088061Y-85480848D01*
X143263097Y-85808317D01*
X143498655Y-86095345D01*
X143785683Y-86330903D01*
X144113152Y-86505939D01*
X144468476Y-86613725D01*
X144745403Y-86641000D01*
X145430597Y-86641000D01*
X145707524Y-86613725D01*
X146062848Y-86505939D01*
X146390317Y-86330903D01*
X146677345Y-86095345D01*
X146912903Y-85808317D01*
X147087939Y-85480848D01*
X147195725Y-85125524D01*
X147232120Y-84756000D01*
X147195725Y-84386476D01*
X147087939Y-84031152D01*
X146912903Y-83703683D01*
X146677345Y-83416655D01*
X146390317Y-83181097D01*
X146062848Y-83006061D01*
X145707524Y-82898275D01*
X145430597Y-82871000D01*
X144745403Y-82871000D01*
X144468476Y-82898275D01*
X144113152Y-83006061D01*
X143785683Y-83181097D01*
X143498655Y-83416655D01*
X143263097Y-83703683D01*
X143088061Y-84031152D01*
X142980275Y-84386476D01*
X142943880Y-84756000D01*
X134732120Y-84756000D01*
X134695725Y-84386476D01*
X134587939Y-84031152D01*
X134412903Y-83703683D01*
X134177345Y-83416655D01*
X133890317Y-83181097D01*
X133562848Y-83006061D01*
X133207524Y-82898275D01*
X132930597Y-82871000D01*
X132245403Y-82871000D01*
X131968476Y-82898275D01*
X131613152Y-83006061D01*
X131285683Y-83181097D01*
X130998655Y-83416655D01*
X130763097Y-83703683D01*
X130588061Y-84031152D01*
X130480275Y-84386476D01*
X130443880Y-84756000D01*
X130480275Y-85125524D01*
X130576491Y-85442707D01*
X123603997Y-92415202D01*
X123574999Y-92439000D01*
X123551201Y-92467998D01*
X123551200Y-92467999D01*
X123480025Y-92554725D01*
X123409453Y-92686755D01*
X123406345Y-92697002D01*
X123370548Y-92815014D01*
X123365997Y-92830016D01*
X123351323Y-92979001D01*
X122453000Y-92979001D01*
X122453000Y-80175645D01*
X130500305Y-80175645D01*
X130529777Y-80316611D01*
X130673891Y-80658606D01*
X130881956Y-80965914D01*
X131145976Y-81226726D01*
X131455805Y-81431019D01*
X131799536Y-81570942D01*
X132163960Y-81641118D01*
X132461000Y-81486385D01*
X132461000Y-79883000D01*
X132715000Y-79883000D01*
X132715000Y-81486385D01*
X133012040Y-81641118D01*
X133376464Y-81570942D01*
X133720195Y-81431019D01*
X134030024Y-81226726D01*
X134294044Y-80965914D01*
X134502109Y-80658606D01*
X134646223Y-80316611D01*
X134675695Y-80175645D01*
X143000305Y-80175645D01*
X143029777Y-80316611D01*
X143173891Y-80658606D01*
X143381956Y-80965914D01*
X143645976Y-81226726D01*
X143955805Y-81431019D01*
X144299536Y-81570942D01*
X144663960Y-81641118D01*
X144961000Y-81486385D01*
X144961000Y-79883000D01*
X145215000Y-79883000D01*
X145215000Y-81486385D01*
X145512040Y-81641118D01*
X145876464Y-81570942D01*
X146220195Y-81431019D01*
X146530024Y-81226726D01*
X146794044Y-80965914D01*
X147002109Y-80658606D01*
X147146223Y-80316611D01*
X147175695Y-80175645D01*
X147059572Y-79883000D01*
X145215000Y-79883000D01*
X144961000Y-79883000D01*
X143116428Y-79883000D01*
X143000305Y-80175645D01*
X134675695Y-80175645D01*
X134559572Y-79883000D01*
X132715000Y-79883000D01*
X132461000Y-79883000D01*
X130616428Y-79883000D01*
X130500305Y-80175645D01*
X122453000Y-80175645D01*
X122453000Y-79336355D01*
X130500305Y-79336355D01*
X130616428Y-79629000D01*
X132461000Y-79629000D01*
X132461000Y-78025615D01*
X132715000Y-78025615D01*
X132715000Y-79629000D01*
X134559572Y-79629000D01*
X134675695Y-79336355D01*
X143000305Y-79336355D01*
X143116428Y-79629000D01*
X144961000Y-79629000D01*
X144961000Y-78025615D01*
X145215000Y-78025615D01*
X145215000Y-79629000D01*
X147059572Y-79629000D01*
X147175695Y-79336355D01*
X147146223Y-79195389D01*
X147002109Y-78853394D01*
X146794044Y-78546086D01*
X146530024Y-78285274D01*
X146220195Y-78080981D01*
X145876464Y-77941058D01*
X145512040Y-77870882D01*
X145215000Y-78025615D01*
X144961000Y-78025615D01*
X144663960Y-77870882D01*
X144299536Y-77941058D01*
X143955805Y-78080981D01*
X143645976Y-78285274D01*
X143381956Y-78546086D01*
X143173891Y-78853394D01*
X143029777Y-79195389D01*
X143000305Y-79336355D01*
X134675695Y-79336355D01*
X134646223Y-79195389D01*
X134502109Y-78853394D01*
X134294044Y-78546086D01*
X134030024Y-78285274D01*
X133720195Y-78080981D01*
X133376464Y-77941058D01*
X133012040Y-77870882D01*
X132715000Y-78025615D01*
X132461000Y-78025615D01*
X132163960Y-77870882D01*
X131799536Y-77941058D01*
X131455805Y-78080981D01*
X131145976Y-78285274D01*
X130881956Y-78546086D01*
X130673891Y-78853394D01*
X130529777Y-79195389D01*
X130500305Y-79336355D01*
X122453000Y-79336355D01*
X122453000Y-71788872D01*
X124384000Y-71788872D01*
X124384000Y-72229128D01*
X124469890Y-72660925D01*
X124638369Y-73067669D01*
X124882962Y-73433729D01*
X125194271Y-73745038D01*
X125560331Y-73989631D01*
X125967075Y-74158110D01*
X126398872Y-74244000D01*
X126839128Y-74244000D01*
X127270925Y-74158110D01*
X127677669Y-73989631D01*
X128043729Y-73745038D01*
X128355038Y-73433729D01*
X128599631Y-73067669D01*
X128768110Y-72660925D01*
X128854000Y-72229128D01*
X128854000Y-71788872D01*
X128768110Y-71357075D01*
X128599631Y-70950331D01*
X128355038Y-70584271D01*
X128043729Y-70272962D01*
X127826778Y-70128000D01*
X133751928Y-70128000D01*
X133751928Y-73128000D01*
X133764188Y-73252482D01*
X133800498Y-73372180D01*
X133859463Y-73482494D01*
X133938815Y-73579185D01*
X134035506Y-73658537D01*
X134145820Y-73717502D01*
X134265518Y-73753812D01*
X134390000Y-73766072D01*
X137390000Y-73766072D01*
X137514482Y-73753812D01*
X137634180Y-73717502D01*
X137744494Y-73658537D01*
X137841185Y-73579185D01*
X137920537Y-73482494D01*
X137979502Y-73372180D01*
X138015812Y-73252482D01*
X138028072Y-73128000D01*
X138028072Y-73119653D01*
X139657952Y-73119653D01*
X139813962Y-73435214D01*
X140188745Y-73626020D01*
X140593551Y-73740044D01*
X141012824Y-73772902D01*
X141430451Y-73723334D01*
X141830383Y-73593243D01*
X142126038Y-73435214D01*
X142282048Y-73119653D01*
X140970000Y-71807605D01*
X139657952Y-73119653D01*
X138028072Y-73119653D01*
X138028072Y-71670824D01*
X138825098Y-71670824D01*
X138874666Y-72088451D01*
X139004757Y-72488383D01*
X139162786Y-72784038D01*
X139478347Y-72940048D01*
X140790395Y-71628000D01*
X141149605Y-71628000D01*
X142461653Y-72940048D01*
X142777214Y-72784038D01*
X142968020Y-72409255D01*
X143071221Y-72042872D01*
X197155000Y-72042872D01*
X197155000Y-72483128D01*
X197240890Y-72914925D01*
X197409369Y-73321669D01*
X197653962Y-73687729D01*
X197965271Y-73999038D01*
X198331331Y-74243631D01*
X198738075Y-74412110D01*
X199169872Y-74498000D01*
X199610128Y-74498000D01*
X200041925Y-74412110D01*
X200448669Y-74243631D01*
X200814729Y-73999038D01*
X201126038Y-73687729D01*
X201370631Y-73321669D01*
X201539110Y-72914925D01*
X201625000Y-72483128D01*
X201625000Y-72042872D01*
X201539110Y-71611075D01*
X201370631Y-71204331D01*
X201126038Y-70838271D01*
X200814729Y-70526962D01*
X200448669Y-70282369D01*
X200041925Y-70113890D01*
X199610128Y-70028000D01*
X199169872Y-70028000D01*
X198738075Y-70113890D01*
X198331331Y-70282369D01*
X197965271Y-70526962D01*
X197653962Y-70838271D01*
X197409369Y-71204331D01*
X197240890Y-71611075D01*
X197155000Y-72042872D01*
X143071221Y-72042872D01*
X143082044Y-72004449D01*
X143114902Y-71585176D01*
X143065334Y-71167549D01*
X142935243Y-70767617D01*
X142777214Y-70471962D01*
X142461653Y-70315952D01*
X141149605Y-71628000D01*
X140790395Y-71628000D01*
X139478347Y-70315952D01*
X139162786Y-70471962D01*
X138971980Y-70846745D01*
X138857956Y-71251551D01*
X138825098Y-71670824D01*
X138028072Y-71670824D01*
X138028072Y-70136347D01*
X139657952Y-70136347D01*
X140970000Y-71448395D01*
X142282048Y-70136347D01*
X142126038Y-69820786D01*
X141751255Y-69629980D01*
X141346449Y-69515956D01*
X140927176Y-69483098D01*
X140509549Y-69532666D01*
X140109617Y-69662757D01*
X139813962Y-69820786D01*
X139657952Y-70136347D01*
X138028072Y-70136347D01*
X138028072Y-70128000D01*
X138015812Y-70003518D01*
X137979502Y-69883820D01*
X137920537Y-69773506D01*
X137841185Y-69676815D01*
X137744494Y-69597463D01*
X137634180Y-69538498D01*
X137514482Y-69502188D01*
X137390000Y-69489928D01*
X134390000Y-69489928D01*
X134265518Y-69502188D01*
X134145820Y-69538498D01*
X134035506Y-69597463D01*
X133938815Y-69676815D01*
X133859463Y-69773506D01*
X133800498Y-69883820D01*
X133764188Y-70003518D01*
X133751928Y-70128000D01*
X127826778Y-70128000D01*
X127677669Y-70028369D01*
X127270925Y-69859890D01*
X126839128Y-69774000D01*
X126398872Y-69774000D01*
X125967075Y-69859890D01*
X125560331Y-70028369D01*
X125194271Y-70272962D01*
X124882962Y-70584271D01*
X124638369Y-70950331D01*
X124469890Y-71357075D01*
X124384000Y-71788872D01*
X122453000Y-71788872D01*
X122453000Y-67843000D01*
X203048000Y-67843000D01*
X203048001Y-119101000D01*
G36*
X134948200Y-95757002D02*
G01*
X134971999Y-95786001D01*
X135087724Y-95880974D01*
X135219753Y-95951546D01*
X135363014Y-95995003D01*
X135474667Y-96006000D01*
X135474676Y-96006000D01*
X135511999Y-96009676D01*
X135549322Y-96006000D01*
X140911234Y-96006000D01*
X140950733Y-96079898D01*
X140999450Y-96139260D01*
X140985506Y-96146713D01*
X140888815Y-96226065D01*
X140809463Y-96322756D01*
X140750498Y-96433070D01*
X140714188Y-96552768D01*
X140701928Y-96677250D01*
X140701928Y-98394750D01*
X140714188Y-98519232D01*
X140750498Y-98638930D01*
X140809463Y-98749244D01*
X140888815Y-98845935D01*
X140985506Y-98925287D01*
X141095820Y-98984252D01*
X141215518Y-99020562D01*
X141340000Y-99032822D01*
X143140000Y-99032822D01*
X143264482Y-99020562D01*
X143384180Y-98984252D01*
X143494494Y-98925287D01*
X143591185Y-98845935D01*
X143606487Y-98827289D01*
X144858200Y-100079002D01*
X144881999Y-100108001D01*
X144910997Y-100131799D01*
X144997723Y-100202974D01*
X145129753Y-100273546D01*
X145273014Y-100317003D01*
X145384667Y-100328000D01*
X145384677Y-100328000D01*
X145422000Y-100331676D01*
X145459323Y-100328000D01*
X168253199Y-100328000D01*
X171185198Y-103260000D01*
X171132050Y-103260000D01*
X170913889Y-103281487D01*
X170633966Y-103366401D01*
X170375986Y-103504294D01*
X170149866Y-103689866D01*
X169964294Y-103915986D01*
X169935000Y-103970791D01*
X169905706Y-103915986D01*
X169720134Y-103689866D01*
X169494014Y-103504294D01*
X169236034Y-103366401D01*
X168956111Y-103281487D01*
X168737950Y-103260000D01*
X168592050Y-103260000D01*
X168373889Y-103281487D01*
X168093966Y-103366401D01*
X167835986Y-103504294D01*
X167609866Y-103689866D01*
X167424294Y-103915986D01*
X167395000Y-103970791D01*
X167365706Y-103915986D01*
X167180134Y-103689866D01*
X166954014Y-103504294D01*
X166696034Y-103366401D01*
X166416111Y-103281487D01*
X166197950Y-103260000D01*
X166052050Y-103260000D01*
X165833889Y-103281487D01*
X165553966Y-103366401D01*
X165295986Y-103504294D01*
X165069866Y-103689866D01*
X164884294Y-103915986D01*
X164855000Y-103970791D01*
X164825706Y-103915986D01*
X164640134Y-103689866D01*
X164414014Y-103504294D01*
X164156034Y-103366401D01*
X163876111Y-103281487D01*
X163657950Y-103260000D01*
X163512050Y-103260000D01*
X163293889Y-103281487D01*
X163013966Y-103366401D01*
X162755986Y-103504294D01*
X162529866Y-103689866D01*
X162344294Y-103915986D01*
X162315000Y-103970791D01*
X162285706Y-103915986D01*
X162100134Y-103689866D01*
X161874014Y-103504294D01*
X161616034Y-103366401D01*
X161336111Y-103281487D01*
X161117950Y-103260000D01*
X160972050Y-103260000D01*
X160753889Y-103281487D01*
X160473966Y-103366401D01*
X160215986Y-103504294D01*
X159989866Y-103689866D01*
X159804294Y-103915986D01*
X159775000Y-103970791D01*
X159745706Y-103915986D01*
X159560134Y-103689866D01*
X159334014Y-103504294D01*
X159076034Y-103366401D01*
X158796111Y-103281487D01*
X158577950Y-103260000D01*
X158432050Y-103260000D01*
X158213889Y-103281487D01*
X157933966Y-103366401D01*
X157675986Y-103504294D01*
X157449866Y-103689866D01*
X157264294Y-103915986D01*
X157235000Y-103970791D01*
X157205706Y-103915986D01*
X157020134Y-103689866D01*
X156794014Y-103504294D01*
X156536034Y-103366401D01*
X156256111Y-103281487D01*
X156037950Y-103260000D01*
X155892050Y-103260000D01*
X155673889Y-103281487D01*
X155393966Y-103366401D01*
X155135986Y-103504294D01*
X154909866Y-103689866D01*
X154885393Y-103719687D01*
X154864502Y-103650820D01*
X154805537Y-103540506D01*
X154726185Y-103443815D01*
X154629494Y-103364463D01*
X154519180Y-103305498D01*
X154399482Y-103269188D01*
X154275000Y-103256928D01*
X152575000Y-103256928D01*
X152450518Y-103269188D01*
X152330820Y-103305498D01*
X152220506Y-103364463D01*
X152123815Y-103443815D01*
X152044463Y-103540506D01*
X151985498Y-103650820D01*
X151949188Y-103770518D01*
X151936928Y-103895000D01*
X151936928Y-105595000D01*
X151949188Y-105719482D01*
X151985498Y-105839180D01*
X152044463Y-105949494D01*
X152123815Y-106046185D01*
X152220506Y-106125537D01*
X152330820Y-106184502D01*
X152450518Y-106220812D01*
X152575000Y-106233072D01*
X152656001Y-106233072D01*
X152656000Y-108239928D01*
X152566000Y-108239928D01*
X152441518Y-108252188D01*
X152321820Y-108288498D01*
X152211506Y-108347463D01*
X152114815Y-108426815D01*
X152035463Y-108523506D01*
X151976498Y-108633820D01*
X151940188Y-108753518D01*
X151927928Y-108878000D01*
X151927928Y-110578000D01*
X151940188Y-110702482D01*
X151976498Y-110822180D01*
X152035463Y-110932494D01*
X152114815Y-111029185D01*
X152211506Y-111108537D01*
X152321820Y-111167502D01*
X152441518Y-111203812D01*
X152566000Y-111216072D01*
X154266000Y-111216072D01*
X154390482Y-111203812D01*
X154510180Y-111167502D01*
X154620494Y-111108537D01*
X154717185Y-111029185D01*
X154796537Y-110932494D01*
X154855502Y-110822180D01*
X154876393Y-110753313D01*
X154900866Y-110783134D01*
X155126986Y-110968706D01*
X155384966Y-111106599D01*
X155664889Y-111191513D01*
X155883050Y-111213000D01*
X156028950Y-111213000D01*
X156247111Y-111191513D01*
X156527034Y-111106599D01*
X156785014Y-110968706D01*
X157011134Y-110783134D01*
X157196706Y-110557014D01*
X157226000Y-110502209D01*
X157255294Y-110557014D01*
X157440866Y-110783134D01*
X157666986Y-110968706D01*
X157924966Y-111106599D01*
X158204889Y-111191513D01*
X158423050Y-111213000D01*
X158568950Y-111213000D01*
X158787111Y-111191513D01*
X159067034Y-111106599D01*
X159325014Y-110968706D01*
X159551134Y-110783134D01*
X159736706Y-110557014D01*
X159766000Y-110502209D01*
X159795294Y-110557014D01*
X159980866Y-110783134D01*
X160206986Y-110968706D01*
X160464966Y-111106599D01*
X160744889Y-111191513D01*
X160963050Y-111213000D01*
X161108950Y-111213000D01*
X161327111Y-111191513D01*
X161607034Y-111106599D01*
X161865014Y-110968706D01*
X162091134Y-110783134D01*
X162276706Y-110557014D01*
X162306000Y-110502209D01*
X162335294Y-110557014D01*
X162520866Y-110783134D01*
X162746986Y-110968706D01*
X163004966Y-111106599D01*
X163284889Y-111191513D01*
X163503050Y-111213000D01*
X163648950Y-111213000D01*
X163867111Y-111191513D01*
X164147034Y-111106599D01*
X164405014Y-110968706D01*
X164631134Y-110783134D01*
X164816706Y-110557014D01*
X164846000Y-110502209D01*
X164875294Y-110557014D01*
X165060866Y-110783134D01*
X165286986Y-110968706D01*
X165544966Y-111106599D01*
X165824889Y-111191513D01*
X166043050Y-111213000D01*
X166188950Y-111213000D01*
X166407111Y-111191513D01*
X166687034Y-111106599D01*
X166945014Y-110968706D01*
X167171134Y-110783134D01*
X167356706Y-110557014D01*
X167386000Y-110502209D01*
X167415294Y-110557014D01*
X167600866Y-110783134D01*
X167826986Y-110968706D01*
X168084966Y-111106599D01*
X168364889Y-111191513D01*
X168583050Y-111213000D01*
X168728950Y-111213000D01*
X168947111Y-111191513D01*
X169227034Y-111106599D01*
X169485014Y-110968706D01*
X169711134Y-110783134D01*
X169896706Y-110557014D01*
X169926000Y-110502209D01*
X169955294Y-110557014D01*
X170140866Y-110783134D01*
X170366986Y-110968706D01*
X170624966Y-111106599D01*
X170904889Y-111191513D01*
X171123050Y-111213000D01*
X171268950Y-111213000D01*
X171487111Y-111191513D01*
X171767034Y-111106599D01*
X172025014Y-110968706D01*
X172251134Y-110783134D01*
X172436706Y-110557014D01*
X172466000Y-110502209D01*
X172495294Y-110557014D01*
X172680866Y-110783134D01*
X172906986Y-110968706D01*
X173164966Y-111106599D01*
X173444889Y-111191513D01*
X173663050Y-111213000D01*
X173808950Y-111213000D01*
X174027111Y-111191513D01*
X174307034Y-111106599D01*
X174565014Y-110968706D01*
X174791134Y-110783134D01*
X174976706Y-110557014D01*
X175006000Y-110502209D01*
X175035294Y-110557014D01*
X175220866Y-110783134D01*
X175446986Y-110968706D01*
X175704966Y-111106599D01*
X175984889Y-111191513D01*
X176203050Y-111213000D01*
X176256198Y-111213000D01*
X174945199Y-112524000D01*
X149158803Y-112524000D01*
X146048000Y-109413199D01*
X146048000Y-105745775D01*
X146139013Y-105684962D01*
X146324962Y-105499013D01*
X146471061Y-105280359D01*
X146571696Y-105037405D01*
X146623000Y-104779486D01*
X146623000Y-104516514D01*
X146571696Y-104258595D01*
X146471061Y-104015641D01*
X146324962Y-103796987D01*
X146139013Y-103611038D01*
X145920359Y-103464939D01*
X145677405Y-103364304D01*
X145419486Y-103313000D01*
X145156514Y-103313000D01*
X144898595Y-103364304D01*
X144655641Y-103464939D01*
X144436987Y-103611038D01*
X144251038Y-103796987D01*
X144104939Y-104015641D01*
X144004304Y-104258595D01*
X143953000Y-104516514D01*
X143953000Y-104779486D01*
X144004304Y-105037405D01*
X144104939Y-105280359D01*
X144251038Y-105499013D01*
X144436987Y-105684962D01*
X144528001Y-105745775D01*
X144528000Y-108968000D01*
X133224802Y-108968000D01*
X130389801Y-106133000D01*
X130442950Y-106133000D01*
X130661111Y-106111513D01*
X130941034Y-106026599D01*
X131199014Y-105888706D01*
X131425134Y-105703134D01*
X131610706Y-105477014D01*
X131645201Y-105412477D01*
X131714822Y-105529355D01*
X131909731Y-105745588D01*
X132143080Y-105919641D01*
X132405901Y-106044825D01*
X132553110Y-106089476D01*
X132783000Y-105968155D01*
X132783000Y-104775000D01*
X133037000Y-104775000D01*
X133037000Y-105968155D01*
X133266890Y-106089476D01*
X133414099Y-106044825D01*
X133676920Y-105919641D01*
X133910269Y-105745588D01*
X134105178Y-105529355D01*
X134254157Y-105279252D01*
X134351481Y-105004891D01*
X134230814Y-104775000D01*
X133037000Y-104775000D01*
X132783000Y-104775000D01*
X132763000Y-104775000D01*
X132763000Y-104521000D01*
X132783000Y-104521000D01*
X132783000Y-103327845D01*
X133037000Y-103327845D01*
X133037000Y-104521000D01*
X134230814Y-104521000D01*
X134351481Y-104291109D01*
X134254157Y-104016748D01*
X134105178Y-103766645D01*
X133910269Y-103550412D01*
X133676920Y-103376359D01*
X133414099Y-103251175D01*
X133266890Y-103206524D01*
X133037000Y-103327845D01*
X132783000Y-103327845D01*
X132553110Y-103206524D01*
X132405901Y-103251175D01*
X132143080Y-103376359D01*
X131909731Y-103550412D01*
X131714822Y-103766645D01*
X131645201Y-103883523D01*
X131610706Y-103818986D01*
X131425134Y-103592866D01*
X131199014Y-103407294D01*
X130941034Y-103269401D01*
X130661111Y-103184487D01*
X130442950Y-103163000D01*
X130297050Y-103163000D01*
X130078889Y-103184487D01*
X129798966Y-103269401D01*
X129540986Y-103407294D01*
X129314866Y-103592866D01*
X129129294Y-103818986D01*
X129100000Y-103873791D01*
X129070706Y-103818986D01*
X128885134Y-103592866D01*
X128659014Y-103407294D01*
X128401034Y-103269401D01*
X128121111Y-103184487D01*
X127902950Y-103163000D01*
X127757050Y-103163000D01*
X127538889Y-103184487D01*
X127258966Y-103269401D01*
X127000986Y-103407294D01*
X126774866Y-103592866D01*
X126750393Y-103622687D01*
X126729502Y-103553820D01*
X126670537Y-103443506D01*
X126591185Y-103346815D01*
X126494494Y-103267463D01*
X126384180Y-103208498D01*
X126264482Y-103172188D01*
X126140000Y-103159928D01*
X126050000Y-103159928D01*
X126050000Y-98128998D01*
X135535197Y-98128998D01*
X139448001Y-102041803D01*
X139448000Y-103544702D01*
X139259445Y-103699445D01*
X139092618Y-103902725D01*
X138968653Y-104134646D01*
X138892317Y-104386294D01*
X138866541Y-104648000D01*
X138892317Y-104909706D01*
X138968653Y-105161354D01*
X139092618Y-105393275D01*
X139259445Y-105596555D01*
X139462725Y-105763382D01*
X139694646Y-105887347D01*
X139946294Y-105963683D01*
X140142421Y-105983000D01*
X140273579Y-105983000D01*
X140469706Y-105963683D01*
X140721354Y-105887347D01*
X140953275Y-105763382D01*
X141156555Y-105596555D01*
X141323382Y-105393275D01*
X141447347Y-105161354D01*
X141523683Y-104909706D01*
X141549459Y-104648000D01*
X141523683Y-104386294D01*
X141447347Y-104134646D01*
X141323382Y-103902725D01*
X141156555Y-103699445D01*
X140968000Y-103544702D01*
X140968000Y-101764333D01*
X140971677Y-101727000D01*
X140957003Y-101578014D01*
X140913546Y-101434753D01*
X140842974Y-101302724D01*
X140771799Y-101215997D01*
X140748001Y-101186999D01*
X140719003Y-101163201D01*
X136413802Y-96858001D01*
X136389999Y-96828997D01*
X136274274Y-96734024D01*
X136142245Y-96663452D01*
X135998984Y-96619995D01*
X135887331Y-96608998D01*
X135887320Y-96608998D01*
X135849998Y-96605322D01*
X135812676Y-96608998D01*
X133145819Y-96608998D01*
X133272312Y-96482505D01*
X133440299Y-96231095D01*
X133556011Y-95951743D01*
X133615000Y-95655184D01*
X133615000Y-95352816D01*
X133556011Y-95056257D01*
X133440299Y-94776905D01*
X133272312Y-94525495D01*
X133205873Y-94459056D01*
X133224180Y-94453502D01*
X133334494Y-94394537D01*
X133431185Y-94315185D01*
X133465081Y-94273882D01*
X134948200Y-95757002D01*
X134948200Y-95757002D01*
G37*
X134948200Y-95757002D02*
X134971999Y-95786001D01*
X135087724Y-95880974D01*
X135219753Y-95951546D01*
X135363014Y-95995003D01*
X135474667Y-96006000D01*
X135474676Y-96006000D01*
X135511999Y-96009676D01*
X135549322Y-96006000D01*
X140911234Y-96006000D01*
X140950733Y-96079898D01*
X140999450Y-96139260D01*
X140985506Y-96146713D01*
X140888815Y-96226065D01*
X140809463Y-96322756D01*
X140750498Y-96433070D01*
X140714188Y-96552768D01*
X140701928Y-96677250D01*
X140701928Y-98394750D01*
X140714188Y-98519232D01*
X140750498Y-98638930D01*
X140809463Y-98749244D01*
X140888815Y-98845935D01*
X140985506Y-98925287D01*
X141095820Y-98984252D01*
X141215518Y-99020562D01*
X141340000Y-99032822D01*
X143140000Y-99032822D01*
X143264482Y-99020562D01*
X143384180Y-98984252D01*
X143494494Y-98925287D01*
X143591185Y-98845935D01*
X143606487Y-98827289D01*
X144858200Y-100079002D01*
X144881999Y-100108001D01*
X144910997Y-100131799D01*
X144997723Y-100202974D01*
X145129753Y-100273546D01*
X145273014Y-100317003D01*
X145384667Y-100328000D01*
X145384677Y-100328000D01*
X145422000Y-100331676D01*
X145459323Y-100328000D01*
X168253199Y-100328000D01*
X171185198Y-103260000D01*
X171132050Y-103260000D01*
X170913889Y-103281487D01*
X170633966Y-103366401D01*
X170375986Y-103504294D01*
X170149866Y-103689866D01*
X169964294Y-103915986D01*
X169935000Y-103970791D01*
X169905706Y-103915986D01*
X169720134Y-103689866D01*
X169494014Y-103504294D01*
X169236034Y-103366401D01*
X168956111Y-103281487D01*
X168737950Y-103260000D01*
X168592050Y-103260000D01*
X168373889Y-103281487D01*
X168093966Y-103366401D01*
X167835986Y-103504294D01*
X167609866Y-103689866D01*
X167424294Y-103915986D01*
X167395000Y-103970791D01*
X167365706Y-103915986D01*
X167180134Y-103689866D01*
X166954014Y-103504294D01*
X166696034Y-103366401D01*
X166416111Y-103281487D01*
X166197950Y-103260000D01*
X166052050Y-103260000D01*
X165833889Y-103281487D01*
X165553966Y-103366401D01*
X165295986Y-103504294D01*
X165069866Y-103689866D01*
X164884294Y-103915986D01*
X164855000Y-103970791D01*
X164825706Y-103915986D01*
X164640134Y-103689866D01*
X164414014Y-103504294D01*
X164156034Y-103366401D01*
X163876111Y-103281487D01*
X163657950Y-103260000D01*
X163512050Y-103260000D01*
X163293889Y-103281487D01*
X163013966Y-103366401D01*
X162755986Y-103504294D01*
X162529866Y-103689866D01*
X162344294Y-103915986D01*
X162315000Y-103970791D01*
X162285706Y-103915986D01*
X162100134Y-103689866D01*
X161874014Y-103504294D01*
X161616034Y-103366401D01*
X161336111Y-103281487D01*
X161117950Y-103260000D01*
X160972050Y-103260000D01*
X160753889Y-103281487D01*
X160473966Y-103366401D01*
X160215986Y-103504294D01*
X159989866Y-103689866D01*
X159804294Y-103915986D01*
X159775000Y-103970791D01*
X159745706Y-103915986D01*
X159560134Y-103689866D01*
X159334014Y-103504294D01*
X159076034Y-103366401D01*
X158796111Y-103281487D01*
X158577950Y-103260000D01*
X158432050Y-103260000D01*
X158213889Y-103281487D01*
X157933966Y-103366401D01*
X157675986Y-103504294D01*
X157449866Y-103689866D01*
X157264294Y-103915986D01*
X157235000Y-103970791D01*
X157205706Y-103915986D01*
X157020134Y-103689866D01*
X156794014Y-103504294D01*
X156536034Y-103366401D01*
X156256111Y-103281487D01*
X156037950Y-103260000D01*
X155892050Y-103260000D01*
X155673889Y-103281487D01*
X155393966Y-103366401D01*
X155135986Y-103504294D01*
X154909866Y-103689866D01*
X154885393Y-103719687D01*
X154864502Y-103650820D01*
X154805537Y-103540506D01*
X154726185Y-103443815D01*
X154629494Y-103364463D01*
X154519180Y-103305498D01*
X154399482Y-103269188D01*
X154275000Y-103256928D01*
X152575000Y-103256928D01*
X152450518Y-103269188D01*
X152330820Y-103305498D01*
X152220506Y-103364463D01*
X152123815Y-103443815D01*
X152044463Y-103540506D01*
X151985498Y-103650820D01*
X151949188Y-103770518D01*
X151936928Y-103895000D01*
X151936928Y-105595000D01*
X151949188Y-105719482D01*
X151985498Y-105839180D01*
X152044463Y-105949494D01*
X152123815Y-106046185D01*
X152220506Y-106125537D01*
X152330820Y-106184502D01*
X152450518Y-106220812D01*
X152575000Y-106233072D01*
X152656001Y-106233072D01*
X152656000Y-108239928D01*
X152566000Y-108239928D01*
X152441518Y-108252188D01*
X152321820Y-108288498D01*
X152211506Y-108347463D01*
X152114815Y-108426815D01*
X152035463Y-108523506D01*
X151976498Y-108633820D01*
X151940188Y-108753518D01*
X151927928Y-108878000D01*
X151927928Y-110578000D01*
X151940188Y-110702482D01*
X151976498Y-110822180D01*
X152035463Y-110932494D01*
X152114815Y-111029185D01*
X152211506Y-111108537D01*
X152321820Y-111167502D01*
X152441518Y-111203812D01*
X152566000Y-111216072D01*
X154266000Y-111216072D01*
X154390482Y-111203812D01*
X154510180Y-111167502D01*
X154620494Y-111108537D01*
X154717185Y-111029185D01*
X154796537Y-110932494D01*
X154855502Y-110822180D01*
X154876393Y-110753313D01*
X154900866Y-110783134D01*
X155126986Y-110968706D01*
X155384966Y-111106599D01*
X155664889Y-111191513D01*
X155883050Y-111213000D01*
X156028950Y-111213000D01*
X156247111Y-111191513D01*
X156527034Y-111106599D01*
X156785014Y-110968706D01*
X157011134Y-110783134D01*
X157196706Y-110557014D01*
X157226000Y-110502209D01*
X157255294Y-110557014D01*
X157440866Y-110783134D01*
X157666986Y-110968706D01*
X157924966Y-111106599D01*
X158204889Y-111191513D01*
X158423050Y-111213000D01*
X158568950Y-111213000D01*
X158787111Y-111191513D01*
X159067034Y-111106599D01*
X159325014Y-110968706D01*
X159551134Y-110783134D01*
X159736706Y-110557014D01*
X159766000Y-110502209D01*
X159795294Y-110557014D01*
X159980866Y-110783134D01*
X160206986Y-110968706D01*
X160464966Y-111106599D01*
X160744889Y-111191513D01*
X160963050Y-111213000D01*
X161108950Y-111213000D01*
X161327111Y-111191513D01*
X161607034Y-111106599D01*
X161865014Y-110968706D01*
X162091134Y-110783134D01*
X162276706Y-110557014D01*
X162306000Y-110502209D01*
X162335294Y-110557014D01*
X162520866Y-110783134D01*
X162746986Y-110968706D01*
X163004966Y-111106599D01*
X163284889Y-111191513D01*
X163503050Y-111213000D01*
X163648950Y-111213000D01*
X163867111Y-111191513D01*
X164147034Y-111106599D01*
X164405014Y-110968706D01*
X164631134Y-110783134D01*
X164816706Y-110557014D01*
X164846000Y-110502209D01*
X164875294Y-110557014D01*
X165060866Y-110783134D01*
X165286986Y-110968706D01*
X165544966Y-111106599D01*
X165824889Y-111191513D01*
X166043050Y-111213000D01*
X166188950Y-111213000D01*
X166407111Y-111191513D01*
X166687034Y-111106599D01*
X166945014Y-110968706D01*
X167171134Y-110783134D01*
X167356706Y-110557014D01*
X167386000Y-110502209D01*
X167415294Y-110557014D01*
X167600866Y-110783134D01*
X167826986Y-110968706D01*
X168084966Y-111106599D01*
X168364889Y-111191513D01*
X168583050Y-111213000D01*
X168728950Y-111213000D01*
X168947111Y-111191513D01*
X169227034Y-111106599D01*
X169485014Y-110968706D01*
X169711134Y-110783134D01*
X169896706Y-110557014D01*
X169926000Y-110502209D01*
X169955294Y-110557014D01*
X170140866Y-110783134D01*
X170366986Y-110968706D01*
X170624966Y-111106599D01*
X170904889Y-111191513D01*
X171123050Y-111213000D01*
X171268950Y-111213000D01*
X171487111Y-111191513D01*
X171767034Y-111106599D01*
X172025014Y-110968706D01*
X172251134Y-110783134D01*
X172436706Y-110557014D01*
X172466000Y-110502209D01*
X172495294Y-110557014D01*
X172680866Y-110783134D01*
X172906986Y-110968706D01*
X173164966Y-111106599D01*
X173444889Y-111191513D01*
X173663050Y-111213000D01*
X173808950Y-111213000D01*
X174027111Y-111191513D01*
X174307034Y-111106599D01*
X174565014Y-110968706D01*
X174791134Y-110783134D01*
X174976706Y-110557014D01*
X175006000Y-110502209D01*
X175035294Y-110557014D01*
X175220866Y-110783134D01*
X175446986Y-110968706D01*
X175704966Y-111106599D01*
X175984889Y-111191513D01*
X176203050Y-111213000D01*
X176256198Y-111213000D01*
X174945199Y-112524000D01*
X149158803Y-112524000D01*
X146048000Y-109413199D01*
X146048000Y-105745775D01*
X146139013Y-105684962D01*
X146324962Y-105499013D01*
X146471061Y-105280359D01*
X146571696Y-105037405D01*
X146623000Y-104779486D01*
X146623000Y-104516514D01*
X146571696Y-104258595D01*
X146471061Y-104015641D01*
X146324962Y-103796987D01*
X146139013Y-103611038D01*
X145920359Y-103464939D01*
X145677405Y-103364304D01*
X145419486Y-103313000D01*
X145156514Y-103313000D01*
X144898595Y-103364304D01*
X144655641Y-103464939D01*
X144436987Y-103611038D01*
X144251038Y-103796987D01*
X144104939Y-104015641D01*
X144004304Y-104258595D01*
X143953000Y-104516514D01*
X143953000Y-104779486D01*
X144004304Y-105037405D01*
X144104939Y-105280359D01*
X144251038Y-105499013D01*
X144436987Y-105684962D01*
X144528001Y-105745775D01*
X144528000Y-108968000D01*
X133224802Y-108968000D01*
X130389801Y-106133000D01*
X130442950Y-106133000D01*
X130661111Y-106111513D01*
X130941034Y-106026599D01*
X131199014Y-105888706D01*
X131425134Y-105703134D01*
X131610706Y-105477014D01*
X131645201Y-105412477D01*
X131714822Y-105529355D01*
X131909731Y-105745588D01*
X132143080Y-105919641D01*
X132405901Y-106044825D01*
X132553110Y-106089476D01*
X132783000Y-105968155D01*
X132783000Y-104775000D01*
X133037000Y-104775000D01*
X133037000Y-105968155D01*
X133266890Y-106089476D01*
X133414099Y-106044825D01*
X133676920Y-105919641D01*
X133910269Y-105745588D01*
X134105178Y-105529355D01*
X134254157Y-105279252D01*
X134351481Y-105004891D01*
X134230814Y-104775000D01*
X133037000Y-104775000D01*
X132783000Y-104775000D01*
X132763000Y-104775000D01*
X132763000Y-104521000D01*
X132783000Y-104521000D01*
X132783000Y-103327845D01*
X133037000Y-103327845D01*
X133037000Y-104521000D01*
X134230814Y-104521000D01*
X134351481Y-104291109D01*
X134254157Y-104016748D01*
X134105178Y-103766645D01*
X133910269Y-103550412D01*
X133676920Y-103376359D01*
X133414099Y-103251175D01*
X133266890Y-103206524D01*
X133037000Y-103327845D01*
X132783000Y-103327845D01*
X132553110Y-103206524D01*
X132405901Y-103251175D01*
X132143080Y-103376359D01*
X131909731Y-103550412D01*
X131714822Y-103766645D01*
X131645201Y-103883523D01*
X131610706Y-103818986D01*
X131425134Y-103592866D01*
X131199014Y-103407294D01*
X130941034Y-103269401D01*
X130661111Y-103184487D01*
X130442950Y-103163000D01*
X130297050Y-103163000D01*
X130078889Y-103184487D01*
X129798966Y-103269401D01*
X129540986Y-103407294D01*
X129314866Y-103592866D01*
X129129294Y-103818986D01*
X129100000Y-103873791D01*
X129070706Y-103818986D01*
X128885134Y-103592866D01*
X128659014Y-103407294D01*
X128401034Y-103269401D01*
X128121111Y-103184487D01*
X127902950Y-103163000D01*
X127757050Y-103163000D01*
X127538889Y-103184487D01*
X127258966Y-103269401D01*
X127000986Y-103407294D01*
X126774866Y-103592866D01*
X126750393Y-103622687D01*
X126729502Y-103553820D01*
X126670537Y-103443506D01*
X126591185Y-103346815D01*
X126494494Y-103267463D01*
X126384180Y-103208498D01*
X126264482Y-103172188D01*
X126140000Y-103159928D01*
X126050000Y-103159928D01*
X126050000Y-98128998D01*
X135535197Y-98128998D01*
X139448001Y-102041803D01*
X139448000Y-103544702D01*
X139259445Y-103699445D01*
X139092618Y-103902725D01*
X138968653Y-104134646D01*
X138892317Y-104386294D01*
X138866541Y-104648000D01*
X138892317Y-104909706D01*
X138968653Y-105161354D01*
X139092618Y-105393275D01*
X139259445Y-105596555D01*
X139462725Y-105763382D01*
X139694646Y-105887347D01*
X139946294Y-105963683D01*
X140142421Y-105983000D01*
X140273579Y-105983000D01*
X140469706Y-105963683D01*
X140721354Y-105887347D01*
X140953275Y-105763382D01*
X141156555Y-105596555D01*
X141323382Y-105393275D01*
X141447347Y-105161354D01*
X141523683Y-104909706D01*
X141549459Y-104648000D01*
X141523683Y-104386294D01*
X141447347Y-104134646D01*
X141323382Y-103902725D01*
X141156555Y-103699445D01*
X140968000Y-103544702D01*
X140968000Y-101764333D01*
X140971677Y-101727000D01*
X140957003Y-101578014D01*
X140913546Y-101434753D01*
X140842974Y-101302724D01*
X140771799Y-101215997D01*
X140748001Y-101186999D01*
X140719003Y-101163201D01*
X136413802Y-96858001D01*
X136389999Y-96828997D01*
X136274274Y-96734024D01*
X136142245Y-96663452D01*
X135998984Y-96619995D01*
X135887331Y-96608998D01*
X135887320Y-96608998D01*
X135849998Y-96605322D01*
X135812676Y-96608998D01*
X133145819Y-96608998D01*
X133272312Y-96482505D01*
X133440299Y-96231095D01*
X133556011Y-95951743D01*
X133615000Y-95655184D01*
X133615000Y-95352816D01*
X133556011Y-95056257D01*
X133440299Y-94776905D01*
X133272312Y-94525495D01*
X133205873Y-94459056D01*
X133224180Y-94453502D01*
X133334494Y-94394537D01*
X133431185Y-94315185D01*
X133465081Y-94273882D01*
X134948200Y-95757002D01*
M02*
