G04 #@! TF.GenerationSoftware,KiCad,Pcbnew,5.1.3-ffb9f22~84~ubuntu18.04.1*
G04 #@! TF.CreationDate,2019-08-09T22:49:00+03:00*
G04 #@! TF.ProjectId,esp32-ac-board,65737033-322d-4616-932d-626f6172642e,rev?*
G04 #@! TF.SameCoordinates,Original*
G04 #@! TF.FileFunction,Legend,Bot*
G04 #@! TF.FilePolarity,Positive*
%FSLAX46Y46*%
G04 Gerber Fmt 4.6, Leading zero omitted, Abs format (unit mm)*
G04 Created by KiCad (PCBNEW 5.1.3-ffb9f22~84~ubuntu18.04.1) date 2019-08-09 22:49:00*
%MOMM*%
%LPD*%
G04 APERTURE LIST*
%ADD10C,0.150000*%
%ADD11C,0.300000*%
%ADD12C,0.010000*%
G04 APERTURE END LIST*
D10*
X152963619Y-70231095D02*
X152916000Y-70278714D01*
X152868380Y-70373952D01*
X152868380Y-70612047D01*
X152916000Y-70707285D01*
X152963619Y-70754904D01*
X153058857Y-70802523D01*
X153154095Y-70802523D01*
X153296952Y-70754904D01*
X153868380Y-70183476D01*
X153868380Y-70802523D01*
X152868380Y-71135857D02*
X152868380Y-71754904D01*
X153249333Y-71421571D01*
X153249333Y-71564428D01*
X153296952Y-71659666D01*
X153344571Y-71707285D01*
X153439809Y-71754904D01*
X153677904Y-71754904D01*
X153773142Y-71707285D01*
X153820761Y-71659666D01*
X153868380Y-71564428D01*
X153868380Y-71278714D01*
X153820761Y-71183476D01*
X153773142Y-71135857D01*
X155630619Y-70104095D02*
X155583000Y-70151714D01*
X155535380Y-70246952D01*
X155535380Y-70485047D01*
X155583000Y-70580285D01*
X155630619Y-70627904D01*
X155725857Y-70675523D01*
X155821095Y-70675523D01*
X155963952Y-70627904D01*
X156535380Y-70056476D01*
X156535380Y-70675523D01*
X155630619Y-71056476D02*
X155583000Y-71104095D01*
X155535380Y-71199333D01*
X155535380Y-71437428D01*
X155583000Y-71532666D01*
X155630619Y-71580285D01*
X155725857Y-71627904D01*
X155821095Y-71627904D01*
X155963952Y-71580285D01*
X156535380Y-71008857D01*
X156535380Y-71627904D01*
X158948380Y-71151714D02*
X158948380Y-70580285D01*
X158948380Y-70866000D02*
X157948380Y-70866000D01*
X158091238Y-70770761D01*
X158186476Y-70675523D01*
X158234095Y-70580285D01*
X160615380Y-70532666D02*
X160615380Y-71151714D01*
X160996333Y-70818380D01*
X160996333Y-70961238D01*
X161043952Y-71056476D01*
X161091571Y-71104095D01*
X161186809Y-71151714D01*
X161424904Y-71151714D01*
X161520142Y-71104095D01*
X161567761Y-71056476D01*
X161615380Y-70961238D01*
X161615380Y-70675523D01*
X161567761Y-70580285D01*
X161520142Y-70532666D01*
X163123619Y-70231095D02*
X163076000Y-70278714D01*
X163028380Y-70373952D01*
X163028380Y-70612047D01*
X163076000Y-70707285D01*
X163123619Y-70754904D01*
X163218857Y-70802523D01*
X163314095Y-70802523D01*
X163456952Y-70754904D01*
X164028380Y-70183476D01*
X164028380Y-70802523D01*
X164028380Y-71754904D02*
X164028380Y-71183476D01*
X164028380Y-71469190D02*
X163028380Y-71469190D01*
X163171238Y-71373952D01*
X163266476Y-71278714D01*
X163314095Y-71183476D01*
X166568380Y-70675523D02*
X166568380Y-70104095D01*
X166568380Y-70389809D02*
X165568380Y-70389809D01*
X165711238Y-70294571D01*
X165806476Y-70199333D01*
X165854095Y-70104095D01*
X166568380Y-71151714D02*
X166568380Y-71342190D01*
X166520761Y-71437428D01*
X166473142Y-71485047D01*
X166330285Y-71580285D01*
X166139809Y-71627904D01*
X165758857Y-71627904D01*
X165663619Y-71580285D01*
X165616000Y-71532666D01*
X165568380Y-71437428D01*
X165568380Y-71246952D01*
X165616000Y-71151714D01*
X165663619Y-71104095D01*
X165758857Y-71056476D01*
X165996952Y-71056476D01*
X166092190Y-71104095D01*
X166139809Y-71151714D01*
X166187428Y-71246952D01*
X166187428Y-71437428D01*
X166139809Y-71532666D01*
X166092190Y-71580285D01*
X165996952Y-71627904D01*
X169108380Y-70675523D02*
X169108380Y-70104095D01*
X169108380Y-70389809D02*
X168108380Y-70389809D01*
X168251238Y-70294571D01*
X168346476Y-70199333D01*
X168394095Y-70104095D01*
X168536952Y-71246952D02*
X168489333Y-71151714D01*
X168441714Y-71104095D01*
X168346476Y-71056476D01*
X168298857Y-71056476D01*
X168203619Y-71104095D01*
X168156000Y-71151714D01*
X168108380Y-71246952D01*
X168108380Y-71437428D01*
X168156000Y-71532666D01*
X168203619Y-71580285D01*
X168298857Y-71627904D01*
X168346476Y-71627904D01*
X168441714Y-71580285D01*
X168489333Y-71532666D01*
X168536952Y-71437428D01*
X168536952Y-71246952D01*
X168584571Y-71151714D01*
X168632190Y-71104095D01*
X168727428Y-71056476D01*
X168917904Y-71056476D01*
X169013142Y-71104095D01*
X169060761Y-71151714D01*
X169108380Y-71246952D01*
X169108380Y-71437428D01*
X169060761Y-71532666D01*
X169013142Y-71580285D01*
X168917904Y-71627904D01*
X168727428Y-71627904D01*
X168632190Y-71580285D01*
X168584571Y-71532666D01*
X168536952Y-71437428D01*
X170648380Y-71358095D02*
X170648380Y-70881904D01*
X171124571Y-70834285D01*
X171076952Y-70881904D01*
X171029333Y-70977142D01*
X171029333Y-71215238D01*
X171076952Y-71310476D01*
X171124571Y-71358095D01*
X171219809Y-71405714D01*
X171457904Y-71405714D01*
X171553142Y-71358095D01*
X171600761Y-71310476D01*
X171648380Y-71215238D01*
X171648380Y-70977142D01*
X171600761Y-70881904D01*
X171553142Y-70834285D01*
X174315380Y-70675523D02*
X174315380Y-70104095D01*
X174315380Y-70389809D02*
X173315380Y-70389809D01*
X173458238Y-70294571D01*
X173553476Y-70199333D01*
X173601095Y-70104095D01*
X173315380Y-71008857D02*
X173315380Y-71675523D01*
X174315380Y-71246952D01*
X176855380Y-70675523D02*
X176855380Y-70104095D01*
X176855380Y-70389809D02*
X175855380Y-70389809D01*
X175998238Y-70294571D01*
X176093476Y-70199333D01*
X176141095Y-70104095D01*
X175855380Y-71532666D02*
X175855380Y-71342190D01*
X175903000Y-71246952D01*
X175950619Y-71199333D01*
X176093476Y-71104095D01*
X176283952Y-71056476D01*
X176664904Y-71056476D01*
X176760142Y-71104095D01*
X176807761Y-71151714D01*
X176855380Y-71246952D01*
X176855380Y-71437428D01*
X176807761Y-71532666D01*
X176760142Y-71580285D01*
X176664904Y-71627904D01*
X176426809Y-71627904D01*
X176331571Y-71580285D01*
X176283952Y-71532666D01*
X176236333Y-71437428D01*
X176236333Y-71246952D01*
X176283952Y-71151714D01*
X176331571Y-71104095D01*
X176426809Y-71056476D01*
X178601714Y-70929476D02*
X179268380Y-70929476D01*
X178220761Y-70691380D02*
X178935047Y-70453285D01*
X178935047Y-71072333D01*
X180903619Y-70453285D02*
X180856000Y-70500904D01*
X180808380Y-70596142D01*
X180808380Y-70834238D01*
X180856000Y-70929476D01*
X180903619Y-70977095D01*
X180998857Y-71024714D01*
X181094095Y-71024714D01*
X181236952Y-70977095D01*
X181808380Y-70405666D01*
X181808380Y-71024714D01*
X184348380Y-70421523D02*
X184348380Y-69850095D01*
X184348380Y-70135809D02*
X183348380Y-70135809D01*
X183491238Y-70040571D01*
X183586476Y-69945333D01*
X183634095Y-69850095D01*
X183348380Y-71326285D02*
X183348380Y-70850095D01*
X183824571Y-70802476D01*
X183776952Y-70850095D01*
X183729333Y-70945333D01*
X183729333Y-71183428D01*
X183776952Y-71278666D01*
X183824571Y-71326285D01*
X183919809Y-71373904D01*
X184157904Y-71373904D01*
X184253142Y-71326285D01*
X184300761Y-71278666D01*
X184348380Y-71183428D01*
X184348380Y-70945333D01*
X184300761Y-70850095D01*
X184253142Y-70802476D01*
X185809000Y-69723095D02*
X185761380Y-69627857D01*
X185761380Y-69485000D01*
X185809000Y-69342142D01*
X185904238Y-69246904D01*
X185999476Y-69199285D01*
X186189952Y-69151666D01*
X186332809Y-69151666D01*
X186523285Y-69199285D01*
X186618523Y-69246904D01*
X186713761Y-69342142D01*
X186761380Y-69485000D01*
X186761380Y-69580238D01*
X186713761Y-69723095D01*
X186666142Y-69770714D01*
X186332809Y-69770714D01*
X186332809Y-69580238D01*
X186761380Y-70199285D02*
X185761380Y-70199285D01*
X186761380Y-70770714D01*
X185761380Y-70770714D01*
X186761380Y-71246904D02*
X185761380Y-71246904D01*
X185761380Y-71485000D01*
X185809000Y-71627857D01*
X185904238Y-71723095D01*
X185999476Y-71770714D01*
X186189952Y-71818333D01*
X186332809Y-71818333D01*
X186523285Y-71770714D01*
X186618523Y-71723095D01*
X186713761Y-71627857D01*
X186761380Y-71485000D01*
X186761380Y-71246904D01*
X188428380Y-69246904D02*
X188428380Y-69865952D01*
X188809333Y-69532619D01*
X188809333Y-69675476D01*
X188856952Y-69770714D01*
X188904571Y-69818333D01*
X188999809Y-69865952D01*
X189237904Y-69865952D01*
X189333142Y-69818333D01*
X189380761Y-69770714D01*
X189428380Y-69675476D01*
X189428380Y-69389761D01*
X189380761Y-69294523D01*
X189333142Y-69246904D01*
X188428380Y-70151666D02*
X189428380Y-70485000D01*
X188428380Y-70818333D01*
X188428380Y-71056428D02*
X188428380Y-71675476D01*
X188809333Y-71342142D01*
X188809333Y-71485000D01*
X188856952Y-71580238D01*
X188904571Y-71627857D01*
X188999809Y-71675476D01*
X189237904Y-71675476D01*
X189333142Y-71627857D01*
X189380761Y-71580238D01*
X189428380Y-71485000D01*
X189428380Y-71199285D01*
X189380761Y-71104047D01*
X189333142Y-71056428D01*
X181808380Y-115760523D02*
X181808380Y-115189095D01*
X181808380Y-115474809D02*
X180808380Y-115474809D01*
X180951238Y-115379571D01*
X181046476Y-115284333D01*
X181094095Y-115189095D01*
X180903619Y-116141476D02*
X180856000Y-116189095D01*
X180808380Y-116284333D01*
X180808380Y-116522428D01*
X180856000Y-116617666D01*
X180903619Y-116665285D01*
X180998857Y-116712904D01*
X181094095Y-116712904D01*
X181236952Y-116665285D01*
X181808380Y-116093857D01*
X181808380Y-116712904D01*
X174315380Y-116268523D02*
X174315380Y-116459000D01*
X174267761Y-116554238D01*
X174220142Y-116601857D01*
X174077285Y-116697095D01*
X173886809Y-116744714D01*
X173505857Y-116744714D01*
X173410619Y-116697095D01*
X173363000Y-116649476D01*
X173315380Y-116554238D01*
X173315380Y-116363761D01*
X173363000Y-116268523D01*
X173410619Y-116220904D01*
X173505857Y-116173285D01*
X173743952Y-116173285D01*
X173839190Y-116220904D01*
X173886809Y-116268523D01*
X173934428Y-116363761D01*
X173934428Y-116554238D01*
X173886809Y-116649476D01*
X173839190Y-116697095D01*
X173743952Y-116744714D01*
X179395380Y-116014523D02*
X179395380Y-115443095D01*
X179395380Y-115728809D02*
X178395380Y-115728809D01*
X178538238Y-115633571D01*
X178633476Y-115538333D01*
X178681095Y-115443095D01*
X179395380Y-116966904D02*
X179395380Y-116395476D01*
X179395380Y-116681190D02*
X178395380Y-116681190D01*
X178538238Y-116585952D01*
X178633476Y-116490714D01*
X178681095Y-116395476D01*
X175823619Y-111887095D02*
X175776000Y-111934714D01*
X175728380Y-112029952D01*
X175728380Y-112268047D01*
X175776000Y-112363285D01*
X175823619Y-112410904D01*
X175918857Y-112458523D01*
X176014095Y-112458523D01*
X176156952Y-112410904D01*
X176728380Y-111839476D01*
X176728380Y-112458523D01*
X175728380Y-112791857D02*
X175728380Y-113458523D01*
X176728380Y-113029952D01*
X184475380Y-112331523D02*
X184475380Y-111760095D01*
X184475380Y-112045809D02*
X183475380Y-112045809D01*
X183618238Y-111950571D01*
X183713476Y-111855333D01*
X183761095Y-111760095D01*
X183475380Y-112664857D02*
X183475380Y-113283904D01*
X183856333Y-112950571D01*
X183856333Y-113093428D01*
X183903952Y-113188666D01*
X183951571Y-113236285D01*
X184046809Y-113283904D01*
X184284904Y-113283904D01*
X184380142Y-113236285D01*
X184427761Y-113188666D01*
X184475380Y-113093428D01*
X184475380Y-112807714D01*
X184427761Y-112712476D01*
X184380142Y-112664857D01*
X186063000Y-112141095D02*
X186015380Y-112045857D01*
X186015380Y-111903000D01*
X186063000Y-111760142D01*
X186158238Y-111664904D01*
X186253476Y-111617285D01*
X186443952Y-111569666D01*
X186586809Y-111569666D01*
X186777285Y-111617285D01*
X186872523Y-111664904D01*
X186967761Y-111760142D01*
X187015380Y-111903000D01*
X187015380Y-111998238D01*
X186967761Y-112141095D01*
X186920142Y-112188714D01*
X186586809Y-112188714D01*
X186586809Y-111998238D01*
X187015380Y-112617285D02*
X186015380Y-112617285D01*
X187015380Y-113188714D01*
X186015380Y-113188714D01*
X187015380Y-113664904D02*
X186015380Y-113664904D01*
X186015380Y-113903000D01*
X186063000Y-114045857D01*
X186158238Y-114141095D01*
X186253476Y-114188714D01*
X186443952Y-114236333D01*
X186586809Y-114236333D01*
X186777285Y-114188714D01*
X186872523Y-114141095D01*
X186967761Y-114045857D01*
X187015380Y-113903000D01*
X187015380Y-113664904D01*
X188428380Y-112458523D02*
X188428380Y-111982333D01*
X188904571Y-111934714D01*
X188856952Y-111982333D01*
X188809333Y-112077571D01*
X188809333Y-112315666D01*
X188856952Y-112410904D01*
X188904571Y-112458523D01*
X188999809Y-112506142D01*
X189237904Y-112506142D01*
X189333142Y-112458523D01*
X189380761Y-112410904D01*
X189428380Y-112315666D01*
X189428380Y-112077571D01*
X189380761Y-111982333D01*
X189333142Y-111934714D01*
X188428380Y-112791857D02*
X189428380Y-113125190D01*
X188428380Y-113458523D01*
X170743619Y-111633095D02*
X170696000Y-111680714D01*
X170648380Y-111775952D01*
X170648380Y-112014047D01*
X170696000Y-112109285D01*
X170743619Y-112156904D01*
X170838857Y-112204523D01*
X170934095Y-112204523D01*
X171076952Y-112156904D01*
X171648380Y-111585476D01*
X171648380Y-112204523D01*
X170648380Y-113109285D02*
X170648380Y-112633095D01*
X171124571Y-112585476D01*
X171076952Y-112633095D01*
X171029333Y-112728333D01*
X171029333Y-112966428D01*
X171076952Y-113061666D01*
X171124571Y-113109285D01*
X171219809Y-113156904D01*
X171457904Y-113156904D01*
X171553142Y-113109285D01*
X171600761Y-113061666D01*
X171648380Y-112966428D01*
X171648380Y-112728333D01*
X171600761Y-112633095D01*
X171553142Y-112585476D01*
X168108380Y-111585476D02*
X168108380Y-112204523D01*
X168489333Y-111871190D01*
X168489333Y-112014047D01*
X168536952Y-112109285D01*
X168584571Y-112156904D01*
X168679809Y-112204523D01*
X168917904Y-112204523D01*
X169013142Y-112156904D01*
X169060761Y-112109285D01*
X169108380Y-112014047D01*
X169108380Y-111728333D01*
X169060761Y-111633095D01*
X169013142Y-111585476D01*
X168108380Y-112537857D02*
X168108380Y-113156904D01*
X168489333Y-112823571D01*
X168489333Y-112966428D01*
X168536952Y-113061666D01*
X168584571Y-113109285D01*
X168679809Y-113156904D01*
X168917904Y-113156904D01*
X169013142Y-113109285D01*
X169060761Y-113061666D01*
X169108380Y-112966428D01*
X169108380Y-112680714D01*
X169060761Y-112585476D01*
X169013142Y-112537857D01*
X165568380Y-111585476D02*
X165568380Y-112204523D01*
X165949333Y-111871190D01*
X165949333Y-112014047D01*
X165996952Y-112109285D01*
X166044571Y-112156904D01*
X166139809Y-112204523D01*
X166377904Y-112204523D01*
X166473142Y-112156904D01*
X166520761Y-112109285D01*
X166568380Y-112014047D01*
X166568380Y-111728333D01*
X166520761Y-111633095D01*
X166473142Y-111585476D01*
X165663619Y-112585476D02*
X165616000Y-112633095D01*
X165568380Y-112728333D01*
X165568380Y-112966428D01*
X165616000Y-113061666D01*
X165663619Y-113109285D01*
X165758857Y-113156904D01*
X165854095Y-113156904D01*
X165996952Y-113109285D01*
X166568380Y-112537857D01*
X166568380Y-113156904D01*
X163155380Y-111585476D02*
X163155380Y-112204523D01*
X163536333Y-111871190D01*
X163536333Y-112014047D01*
X163583952Y-112109285D01*
X163631571Y-112156904D01*
X163726809Y-112204523D01*
X163964904Y-112204523D01*
X164060142Y-112156904D01*
X164107761Y-112109285D01*
X164155380Y-112014047D01*
X164155380Y-111728333D01*
X164107761Y-111633095D01*
X164060142Y-111585476D01*
X163155380Y-113109285D02*
X163155380Y-112633095D01*
X163631571Y-112585476D01*
X163583952Y-112633095D01*
X163536333Y-112728333D01*
X163536333Y-112966428D01*
X163583952Y-113061666D01*
X163631571Y-113109285D01*
X163726809Y-113156904D01*
X163964904Y-113156904D01*
X164060142Y-113109285D01*
X164107761Y-113061666D01*
X164155380Y-112966428D01*
X164155380Y-112728333D01*
X164107761Y-112633095D01*
X164060142Y-112585476D01*
X160488380Y-111585476D02*
X160488380Y-112204523D01*
X160869333Y-111871190D01*
X160869333Y-112014047D01*
X160916952Y-112109285D01*
X160964571Y-112156904D01*
X161059809Y-112204523D01*
X161297904Y-112204523D01*
X161393142Y-112156904D01*
X161440761Y-112109285D01*
X161488380Y-112014047D01*
X161488380Y-111728333D01*
X161440761Y-111633095D01*
X161393142Y-111585476D01*
X160821714Y-113061666D02*
X161488380Y-113061666D01*
X160440761Y-112823571D02*
X161155047Y-112585476D01*
X161155047Y-113204523D01*
X158075380Y-111585476D02*
X158075380Y-112204523D01*
X158456333Y-111871190D01*
X158456333Y-112014047D01*
X158503952Y-112109285D01*
X158551571Y-112156904D01*
X158646809Y-112204523D01*
X158884904Y-112204523D01*
X158980142Y-112156904D01*
X159027761Y-112109285D01*
X159075380Y-112014047D01*
X159075380Y-111728333D01*
X159027761Y-111633095D01*
X158980142Y-111585476D01*
X159075380Y-112680714D02*
X159075380Y-112871190D01*
X159027761Y-112966428D01*
X158980142Y-113014047D01*
X158837285Y-113109285D01*
X158646809Y-113156904D01*
X158265857Y-113156904D01*
X158170619Y-113109285D01*
X158123000Y-113061666D01*
X158075380Y-112966428D01*
X158075380Y-112775952D01*
X158123000Y-112680714D01*
X158170619Y-112633095D01*
X158265857Y-112585476D01*
X158503952Y-112585476D01*
X158599190Y-112633095D01*
X158646809Y-112680714D01*
X158694428Y-112775952D01*
X158694428Y-112966428D01*
X158646809Y-113061666D01*
X158599190Y-113109285D01*
X158503952Y-113156904D01*
X155535380Y-111585476D02*
X155535380Y-112204523D01*
X155916333Y-111871190D01*
X155916333Y-112014047D01*
X155963952Y-112109285D01*
X156011571Y-112156904D01*
X156106809Y-112204523D01*
X156344904Y-112204523D01*
X156440142Y-112156904D01*
X156487761Y-112109285D01*
X156535380Y-112014047D01*
X156535380Y-111728333D01*
X156487761Y-111633095D01*
X156440142Y-111585476D01*
X155535380Y-113061666D02*
X155535380Y-112871190D01*
X155583000Y-112775952D01*
X155630619Y-112728333D01*
X155773476Y-112633095D01*
X155963952Y-112585476D01*
X156344904Y-112585476D01*
X156440142Y-112633095D01*
X156487761Y-112680714D01*
X156535380Y-112775952D01*
X156535380Y-112966428D01*
X156487761Y-113061666D01*
X156440142Y-113109285D01*
X156344904Y-113156904D01*
X156106809Y-113156904D01*
X156011571Y-113109285D01*
X155963952Y-113061666D01*
X155916333Y-112966428D01*
X155916333Y-112775952D01*
X155963952Y-112680714D01*
X156011571Y-112633095D01*
X156106809Y-112585476D01*
X153344571Y-111656904D02*
X153344571Y-111990238D01*
X153868380Y-112133095D02*
X153868380Y-111656904D01*
X152868380Y-111656904D01*
X152868380Y-112133095D01*
X153868380Y-112561666D02*
X152868380Y-112561666D01*
X153868380Y-113133095D01*
X152868380Y-113133095D01*
D11*
X156998142Y-116478857D02*
X156498142Y-116478857D01*
X156283857Y-117264571D02*
X156998142Y-117264571D01*
X156998142Y-115764571D01*
X156283857Y-115764571D01*
X155712428Y-117193142D02*
X155498142Y-117264571D01*
X155141000Y-117264571D01*
X154998142Y-117193142D01*
X154926714Y-117121714D01*
X154855285Y-116978857D01*
X154855285Y-116836000D01*
X154926714Y-116693142D01*
X154998142Y-116621714D01*
X155141000Y-116550285D01*
X155426714Y-116478857D01*
X155569571Y-116407428D01*
X155641000Y-116336000D01*
X155712428Y-116193142D01*
X155712428Y-116050285D01*
X155641000Y-115907428D01*
X155569571Y-115836000D01*
X155426714Y-115764571D01*
X155069571Y-115764571D01*
X154855285Y-115836000D01*
X154212428Y-117264571D02*
X154212428Y-115764571D01*
X153641000Y-115764571D01*
X153498142Y-115836000D01*
X153426714Y-115907428D01*
X153355285Y-116050285D01*
X153355285Y-116264571D01*
X153426714Y-116407428D01*
X153498142Y-116478857D01*
X153641000Y-116550285D01*
X154212428Y-116550285D01*
X151569571Y-117264571D02*
X151569571Y-115764571D01*
X151569571Y-116478857D02*
X150712428Y-116478857D01*
X150712428Y-117264571D02*
X150712428Y-115764571D01*
X149783857Y-117264571D02*
X149926714Y-117193142D01*
X149998142Y-117121714D01*
X150069571Y-116978857D01*
X150069571Y-116550285D01*
X149998142Y-116407428D01*
X149926714Y-116336000D01*
X149783857Y-116264571D01*
X149569571Y-116264571D01*
X149426714Y-116336000D01*
X149355285Y-116407428D01*
X149283857Y-116550285D01*
X149283857Y-116978857D01*
X149355285Y-117121714D01*
X149426714Y-117193142D01*
X149569571Y-117264571D01*
X149783857Y-117264571D01*
X148641000Y-117264571D02*
X148641000Y-116264571D01*
X148641000Y-116407428D02*
X148569571Y-116336000D01*
X148426714Y-116264571D01*
X148212428Y-116264571D01*
X148069571Y-116336000D01*
X147998142Y-116478857D01*
X147998142Y-117264571D01*
X147998142Y-116478857D02*
X147926714Y-116336000D01*
X147783857Y-116264571D01*
X147569571Y-116264571D01*
X147426714Y-116336000D01*
X147355285Y-116478857D01*
X147355285Y-117264571D01*
X146069571Y-117193142D02*
X146212428Y-117264571D01*
X146498142Y-117264571D01*
X146641000Y-117193142D01*
X146712428Y-117050285D01*
X146712428Y-116478857D01*
X146641000Y-116336000D01*
X146498142Y-116264571D01*
X146212428Y-116264571D01*
X146069571Y-116336000D01*
X145998142Y-116478857D01*
X145998142Y-116621714D01*
X146712428Y-116764571D01*
X144212428Y-117264571D02*
X144212428Y-115764571D01*
X143712428Y-116836000D01*
X143212428Y-115764571D01*
X143212428Y-117264571D01*
X142283857Y-117264571D02*
X142426714Y-117193142D01*
X142498142Y-117121714D01*
X142569571Y-116978857D01*
X142569571Y-116550285D01*
X142498142Y-116407428D01*
X142426714Y-116336000D01*
X142283857Y-116264571D01*
X142069571Y-116264571D01*
X141926714Y-116336000D01*
X141855285Y-116407428D01*
X141783857Y-116550285D01*
X141783857Y-116978857D01*
X141855285Y-117121714D01*
X141926714Y-117193142D01*
X142069571Y-117264571D01*
X142283857Y-117264571D01*
X141141000Y-116264571D02*
X141141000Y-117264571D01*
X141141000Y-116407428D02*
X141069571Y-116336000D01*
X140926714Y-116264571D01*
X140712428Y-116264571D01*
X140569571Y-116336000D01*
X140498142Y-116478857D01*
X140498142Y-117264571D01*
X139783857Y-117264571D02*
X139783857Y-116264571D01*
X139783857Y-115764571D02*
X139855285Y-115836000D01*
X139783857Y-115907428D01*
X139712428Y-115836000D01*
X139783857Y-115764571D01*
X139783857Y-115907428D01*
X139283857Y-116264571D02*
X138712428Y-116264571D01*
X139069571Y-115764571D02*
X139069571Y-117050285D01*
X138998142Y-117193142D01*
X138855285Y-117264571D01*
X138712428Y-117264571D01*
X137998142Y-117264571D02*
X138141000Y-117193142D01*
X138212428Y-117121714D01*
X138283857Y-116978857D01*
X138283857Y-116550285D01*
X138212428Y-116407428D01*
X138141000Y-116336000D01*
X137998142Y-116264571D01*
X137783857Y-116264571D01*
X137641000Y-116336000D01*
X137569571Y-116407428D01*
X137498142Y-116550285D01*
X137498142Y-116978857D01*
X137569571Y-117121714D01*
X137641000Y-117193142D01*
X137783857Y-117264571D01*
X137998142Y-117264571D01*
X136855285Y-117264571D02*
X136855285Y-116264571D01*
X136855285Y-116550285D02*
X136783857Y-116407428D01*
X136712428Y-116336000D01*
X136569571Y-116264571D01*
X136426714Y-116264571D01*
X134926714Y-116264571D02*
X134569571Y-117264571D01*
X134212428Y-116264571D01*
X133355285Y-115764571D02*
X133212428Y-115764571D01*
X133069571Y-115836000D01*
X132998142Y-115907428D01*
X132926714Y-116050285D01*
X132855285Y-116336000D01*
X132855285Y-116693142D01*
X132926714Y-116978857D01*
X132998142Y-117121714D01*
X133069571Y-117193142D01*
X133212428Y-117264571D01*
X133355285Y-117264571D01*
X133498142Y-117193142D01*
X133569571Y-117121714D01*
X133640999Y-116978857D01*
X133712428Y-116693142D01*
X133712428Y-116336000D01*
X133640999Y-116050285D01*
X133569571Y-115907428D01*
X133498142Y-115836000D01*
X133355285Y-115764571D01*
X132212428Y-117121714D02*
X132140999Y-117193142D01*
X132212428Y-117264571D01*
X132283857Y-117193142D01*
X132212428Y-117121714D01*
X132212428Y-117264571D01*
X130712428Y-117264571D02*
X131569571Y-117264571D01*
X131140999Y-117264571D02*
X131140999Y-115764571D01*
X131283857Y-115978857D01*
X131426714Y-116121714D01*
X131569571Y-116193142D01*
D10*
X182624238Y-91170142D02*
X181957571Y-91170142D01*
X181671857Y-92217761D02*
X182624238Y-92217761D01*
X182624238Y-90217761D01*
X181671857Y-90217761D01*
X180909952Y-92122523D02*
X180624238Y-92217761D01*
X180148047Y-92217761D01*
X179957571Y-92122523D01*
X179862333Y-92027285D01*
X179767095Y-91836809D01*
X179767095Y-91646333D01*
X179862333Y-91455857D01*
X179957571Y-91360619D01*
X180148047Y-91265380D01*
X180529000Y-91170142D01*
X180719476Y-91074904D01*
X180814714Y-90979666D01*
X180909952Y-90789190D01*
X180909952Y-90598714D01*
X180814714Y-90408238D01*
X180719476Y-90313000D01*
X180529000Y-90217761D01*
X180052809Y-90217761D01*
X179767095Y-90313000D01*
X178909952Y-92217761D02*
X178909952Y-90217761D01*
X178148047Y-90217761D01*
X177957571Y-90313000D01*
X177862333Y-90408238D01*
X177767095Y-90598714D01*
X177767095Y-90884428D01*
X177862333Y-91074904D01*
X177957571Y-91170142D01*
X178148047Y-91265380D01*
X178909952Y-91265380D01*
X177100428Y-90217761D02*
X175862333Y-90217761D01*
X176529000Y-90979666D01*
X176243285Y-90979666D01*
X176052809Y-91074904D01*
X175957571Y-91170142D01*
X175862333Y-91360619D01*
X175862333Y-91836809D01*
X175957571Y-92027285D01*
X176052809Y-92122523D01*
X176243285Y-92217761D01*
X176814714Y-92217761D01*
X177005190Y-92122523D01*
X177100428Y-92027285D01*
X175100428Y-90408238D02*
X175005190Y-90313000D01*
X174814714Y-90217761D01*
X174338523Y-90217761D01*
X174148047Y-90313000D01*
X174052809Y-90408238D01*
X173957571Y-90598714D01*
X173957571Y-90789190D01*
X174052809Y-91074904D01*
X175195666Y-92217761D01*
X173957571Y-92217761D01*
X171576619Y-92217761D02*
X171576619Y-90217761D01*
X171100428Y-90217761D01*
X170814714Y-90313000D01*
X170624238Y-90503476D01*
X170529000Y-90693952D01*
X170433761Y-91074904D01*
X170433761Y-91360619D01*
X170529000Y-91741571D01*
X170624238Y-91932047D01*
X170814714Y-92122523D01*
X171100428Y-92217761D01*
X171576619Y-92217761D01*
X169195666Y-90217761D02*
X168814714Y-90217761D01*
X168624238Y-90313000D01*
X168433761Y-90503476D01*
X168338523Y-90884428D01*
X168338523Y-91551095D01*
X168433761Y-91932047D01*
X168624238Y-92122523D01*
X168814714Y-92217761D01*
X169195666Y-92217761D01*
X169386142Y-92122523D01*
X169576619Y-91932047D01*
X169671857Y-91551095D01*
X169671857Y-90884428D01*
X169576619Y-90503476D01*
X169386142Y-90313000D01*
X169195666Y-90217761D01*
X167481380Y-92217761D02*
X167481380Y-90217761D01*
X166814714Y-90217761D02*
X165671857Y-90217761D01*
X166243285Y-92217761D02*
X166243285Y-90217761D01*
X163481380Y-92217761D02*
X163481380Y-90217761D01*
X163005190Y-90217761D01*
X162719476Y-90313000D01*
X162529000Y-90503476D01*
X162433761Y-90693952D01*
X162338523Y-91074904D01*
X162338523Y-91360619D01*
X162433761Y-91741571D01*
X162529000Y-91932047D01*
X162719476Y-92122523D01*
X163005190Y-92217761D01*
X163481380Y-92217761D01*
X161481380Y-91170142D02*
X160814714Y-91170142D01*
X160529000Y-92217761D02*
X161481380Y-92217761D01*
X161481380Y-90217761D01*
X160529000Y-90217761D01*
X159957571Y-90217761D02*
X159290904Y-92217761D01*
X158624238Y-90217761D01*
X157957571Y-92217761D02*
X157957571Y-90217761D01*
X156814714Y-92217761D02*
X157671857Y-91074904D01*
X156814714Y-90217761D02*
X157957571Y-91360619D01*
X155957571Y-92217761D02*
X155957571Y-90217761D01*
X155290904Y-90217761D02*
X154148047Y-90217761D01*
X154719476Y-92217761D02*
X154719476Y-90217761D01*
X176092476Y-98337714D02*
X175902000Y-99004380D01*
X175711523Y-98528190D01*
X175521047Y-99004380D01*
X175330571Y-98337714D01*
X175044857Y-98337714D02*
X174854380Y-99004380D01*
X174663904Y-98528190D01*
X174473428Y-99004380D01*
X174282952Y-98337714D01*
X173997238Y-98337714D02*
X173806761Y-99004380D01*
X173616285Y-98528190D01*
X173425809Y-99004380D01*
X173235333Y-98337714D01*
X172854380Y-98909142D02*
X172806761Y-98956761D01*
X172854380Y-99004380D01*
X172902000Y-98956761D01*
X172854380Y-98909142D01*
X172854380Y-99004380D01*
X171949619Y-98956761D02*
X172044857Y-99004380D01*
X172235333Y-99004380D01*
X172330571Y-98956761D01*
X172378190Y-98909142D01*
X172425809Y-98813904D01*
X172425809Y-98528190D01*
X172378190Y-98432952D01*
X172330571Y-98385333D01*
X172235333Y-98337714D01*
X172044857Y-98337714D01*
X171949619Y-98385333D01*
X171521047Y-99004380D02*
X171521047Y-98337714D01*
X171521047Y-98528190D02*
X171473428Y-98432952D01*
X171425809Y-98385333D01*
X171330571Y-98337714D01*
X171235333Y-98337714D01*
X170902000Y-99004380D02*
X170902000Y-98337714D01*
X170902000Y-98004380D02*
X170949619Y-98052000D01*
X170902000Y-98099619D01*
X170854380Y-98052000D01*
X170902000Y-98004380D01*
X170902000Y-98099619D01*
X170473428Y-98956761D02*
X170378190Y-99004380D01*
X170187714Y-99004380D01*
X170092476Y-98956761D01*
X170044857Y-98861523D01*
X170044857Y-98813904D01*
X170092476Y-98718666D01*
X170187714Y-98671047D01*
X170330571Y-98671047D01*
X170425809Y-98623428D01*
X170473428Y-98528190D01*
X170473428Y-98480571D01*
X170425809Y-98385333D01*
X170330571Y-98337714D01*
X170187714Y-98337714D01*
X170092476Y-98385333D01*
X169759142Y-98337714D02*
X169378190Y-98337714D01*
X169616285Y-98004380D02*
X169616285Y-98861523D01*
X169568666Y-98956761D01*
X169473428Y-99004380D01*
X169378190Y-99004380D01*
X169044857Y-99004380D02*
X169044857Y-98337714D01*
X169044857Y-98004380D02*
X169092476Y-98052000D01*
X169044857Y-98099619D01*
X168997238Y-98052000D01*
X169044857Y-98004380D01*
X169044857Y-98099619D01*
X168140095Y-99004380D02*
X168140095Y-98480571D01*
X168187714Y-98385333D01*
X168282952Y-98337714D01*
X168473428Y-98337714D01*
X168568666Y-98385333D01*
X168140095Y-98956761D02*
X168235333Y-99004380D01*
X168473428Y-99004380D01*
X168568666Y-98956761D01*
X168616285Y-98861523D01*
X168616285Y-98766285D01*
X168568666Y-98671047D01*
X168473428Y-98623428D01*
X168235333Y-98623428D01*
X168140095Y-98575809D01*
X167663904Y-98337714D02*
X167663904Y-99004380D01*
X167663904Y-98432952D02*
X167616285Y-98385333D01*
X167521047Y-98337714D01*
X167378190Y-98337714D01*
X167282952Y-98385333D01*
X167235333Y-98480571D01*
X167235333Y-99004380D01*
X166806761Y-98956761D02*
X166711523Y-99004380D01*
X166521047Y-99004380D01*
X166425809Y-98956761D01*
X166378190Y-98861523D01*
X166378190Y-98813904D01*
X166425809Y-98718666D01*
X166521047Y-98671047D01*
X166663904Y-98671047D01*
X166759142Y-98623428D01*
X166806761Y-98528190D01*
X166806761Y-98480571D01*
X166759142Y-98385333D01*
X166663904Y-98337714D01*
X166521047Y-98337714D01*
X166425809Y-98385333D01*
X165521047Y-99004380D02*
X165521047Y-98480571D01*
X165568666Y-98385333D01*
X165663904Y-98337714D01*
X165854380Y-98337714D01*
X165949619Y-98385333D01*
X165521047Y-98956761D02*
X165616285Y-99004380D01*
X165854380Y-99004380D01*
X165949619Y-98956761D01*
X165997238Y-98861523D01*
X165997238Y-98766285D01*
X165949619Y-98671047D01*
X165854380Y-98623428D01*
X165616285Y-98623428D01*
X165521047Y-98575809D01*
X165044857Y-98337714D02*
X165044857Y-99004380D01*
X165044857Y-98432952D02*
X164997238Y-98385333D01*
X164902000Y-98337714D01*
X164759142Y-98337714D01*
X164663904Y-98385333D01*
X164616285Y-98480571D01*
X164616285Y-99004380D01*
X163711523Y-99004380D02*
X163711523Y-98004380D01*
X163711523Y-98956761D02*
X163806761Y-99004380D01*
X163997238Y-99004380D01*
X164092476Y-98956761D01*
X164140095Y-98909142D01*
X164187714Y-98813904D01*
X164187714Y-98528190D01*
X164140095Y-98432952D01*
X164092476Y-98385333D01*
X163997238Y-98337714D01*
X163806761Y-98337714D01*
X163711523Y-98385333D01*
X162806761Y-98337714D02*
X162806761Y-99004380D01*
X163235333Y-98337714D02*
X163235333Y-98861523D01*
X163187714Y-98956761D01*
X163092476Y-99004380D01*
X162949619Y-99004380D01*
X162854380Y-98956761D01*
X162806761Y-98909142D01*
X162330571Y-98909142D02*
X162282952Y-98956761D01*
X162330571Y-99004380D01*
X162378190Y-98956761D01*
X162330571Y-98909142D01*
X162330571Y-99004380D01*
X161854380Y-99004380D02*
X161854380Y-98337714D01*
X161854380Y-98528190D02*
X161806761Y-98432952D01*
X161759142Y-98385333D01*
X161663904Y-98337714D01*
X161568666Y-98337714D01*
X161092476Y-99004380D02*
X161187714Y-98956761D01*
X161235333Y-98909142D01*
X161282952Y-98813904D01*
X161282952Y-98528190D01*
X161235333Y-98432952D01*
X161187714Y-98385333D01*
X161092476Y-98337714D01*
X160949619Y-98337714D01*
X160854380Y-98385333D01*
X160806761Y-98432952D01*
X160759142Y-98528190D01*
X160759142Y-98813904D01*
X160806761Y-98909142D01*
X160854380Y-98956761D01*
X160949619Y-99004380D01*
X161092476Y-99004380D01*
X181302428Y-111815666D02*
X181338142Y-111958523D01*
X181373857Y-112006142D01*
X181445285Y-112053761D01*
X181552428Y-112053761D01*
X181623857Y-112006142D01*
X181659571Y-111958523D01*
X181695285Y-111863285D01*
X181695285Y-111482333D01*
X180945285Y-111482333D01*
X180945285Y-111815666D01*
X180981000Y-111910904D01*
X181016714Y-111958523D01*
X181088142Y-112006142D01*
X181159571Y-112006142D01*
X181231000Y-111958523D01*
X181266714Y-111910904D01*
X181302428Y-111815666D01*
X181302428Y-111482333D01*
X180945285Y-112339476D02*
X180945285Y-112910904D01*
X181695285Y-112625190D02*
X180945285Y-112625190D01*
X181695285Y-113244238D02*
X180945285Y-113244238D01*
X181695285Y-113815666D01*
X180945285Y-113815666D01*
X178532285Y-111220476D02*
X178532285Y-111791904D01*
X179282285Y-111506190D02*
X178532285Y-111506190D01*
X178889428Y-112125238D02*
X178889428Y-112458571D01*
X179282285Y-112601428D02*
X179282285Y-112125238D01*
X178532285Y-112125238D01*
X178532285Y-112601428D01*
X179282285Y-113030000D02*
X178532285Y-113030000D01*
X179068000Y-113363333D01*
X178532285Y-113696666D01*
X179282285Y-113696666D01*
X179282285Y-114172857D02*
X178532285Y-114172857D01*
X178532285Y-114553809D01*
X178568000Y-114649047D01*
X178603714Y-114696666D01*
X178675142Y-114744285D01*
X178782285Y-114744285D01*
X178853714Y-114696666D01*
X178889428Y-114649047D01*
X178925142Y-114553809D01*
X178925142Y-114172857D01*
X174166571Y-111268095D02*
X174202285Y-111410952D01*
X174202285Y-111649047D01*
X174166571Y-111744285D01*
X174130857Y-111791904D01*
X174059428Y-111839523D01*
X173988000Y-111839523D01*
X173916571Y-111791904D01*
X173880857Y-111744285D01*
X173845142Y-111649047D01*
X173809428Y-111458571D01*
X173773714Y-111363333D01*
X173738000Y-111315714D01*
X173666571Y-111268095D01*
X173595142Y-111268095D01*
X173523714Y-111315714D01*
X173488000Y-111363333D01*
X173452285Y-111458571D01*
X173452285Y-111696666D01*
X173488000Y-111839523D01*
X173809428Y-112268095D02*
X173809428Y-112601428D01*
X174202285Y-112744285D02*
X174202285Y-112268095D01*
X173452285Y-112268095D01*
X173452285Y-112744285D01*
X174202285Y-113172857D02*
X173452285Y-113172857D01*
X174202285Y-113744285D01*
X173452285Y-113744285D01*
X174202285Y-114220476D02*
X173452285Y-114220476D01*
X173452285Y-114458571D01*
X173488000Y-114601428D01*
X173559428Y-114696666D01*
X173630857Y-114744285D01*
X173773714Y-114791904D01*
X173880857Y-114791904D01*
X174023714Y-114744285D01*
X174095142Y-114696666D01*
X174166571Y-114601428D01*
X174202285Y-114458571D01*
X174202285Y-114220476D01*
D12*
G36*
X139246411Y-106777436D02*
G01*
X139197062Y-106877791D01*
X139149681Y-107041887D01*
X139148823Y-107045471D01*
X139108342Y-107203831D01*
X139061640Y-107370180D01*
X139025157Y-107488693D01*
X138985144Y-107640396D01*
X138972415Y-107759475D01*
X138984607Y-107838974D01*
X139019360Y-107871937D01*
X139074312Y-107851410D01*
X139129027Y-107794619D01*
X139182724Y-107688916D01*
X139200467Y-107589832D01*
X139222511Y-107486261D01*
X139278037Y-107397712D01*
X139351138Y-107345942D01*
X139382831Y-107340400D01*
X139418656Y-107307077D01*
X139444818Y-107206971D01*
X139450949Y-107162600D01*
X139457142Y-106987321D01*
X139431704Y-106850545D01*
X139376968Y-106763088D01*
X139362429Y-106752288D01*
X139300583Y-106736907D01*
X139246411Y-106777436D01*
X139246411Y-106777436D01*
G37*
X139246411Y-106777436D02*
X139197062Y-106877791D01*
X139149681Y-107041887D01*
X139148823Y-107045471D01*
X139108342Y-107203831D01*
X139061640Y-107370180D01*
X139025157Y-107488693D01*
X138985144Y-107640396D01*
X138972415Y-107759475D01*
X138984607Y-107838974D01*
X139019360Y-107871937D01*
X139074312Y-107851410D01*
X139129027Y-107794619D01*
X139182724Y-107688916D01*
X139200467Y-107589832D01*
X139222511Y-107486261D01*
X139278037Y-107397712D01*
X139351138Y-107345942D01*
X139382831Y-107340400D01*
X139418656Y-107307077D01*
X139444818Y-107206971D01*
X139450949Y-107162600D01*
X139457142Y-106987321D01*
X139431704Y-106850545D01*
X139376968Y-106763088D01*
X139362429Y-106752288D01*
X139300583Y-106736907D01*
X139246411Y-106777436D01*
G36*
X133982358Y-109297622D02*
G01*
X133971697Y-109313425D01*
X133953072Y-109377586D01*
X133981970Y-109457126D01*
X133985000Y-109462535D01*
X134092108Y-109588812D01*
X134234795Y-109668390D01*
X134394750Y-109692463D01*
X134450369Y-109686339D01*
X134521222Y-109650936D01*
X134588336Y-109585587D01*
X134626433Y-109516582D01*
X134628467Y-109501111D01*
X134603087Y-109466362D01*
X134542932Y-109419517D01*
X134478352Y-109383509D01*
X134434570Y-109388605D01*
X134393325Y-109421457D01*
X134301833Y-109469611D01*
X134216480Y-109455210D01*
X134152613Y-109382806D01*
X134138561Y-109345923D01*
X134096650Y-109264707D01*
X134042213Y-109248145D01*
X133982358Y-109297622D01*
X133982358Y-109297622D01*
G37*
X133982358Y-109297622D02*
X133971697Y-109313425D01*
X133953072Y-109377586D01*
X133981970Y-109457126D01*
X133985000Y-109462535D01*
X134092108Y-109588812D01*
X134234795Y-109668390D01*
X134394750Y-109692463D01*
X134450369Y-109686339D01*
X134521222Y-109650936D01*
X134588336Y-109585587D01*
X134626433Y-109516582D01*
X134628467Y-109501111D01*
X134603087Y-109466362D01*
X134542932Y-109419517D01*
X134478352Y-109383509D01*
X134434570Y-109388605D01*
X134393325Y-109421457D01*
X134301833Y-109469611D01*
X134216480Y-109455210D01*
X134152613Y-109382806D01*
X134138561Y-109345923D01*
X134096650Y-109264707D01*
X134042213Y-109248145D01*
X133982358Y-109297622D01*
G36*
X136930730Y-109230858D02*
G01*
X136885160Y-109290304D01*
X136884931Y-109361734D01*
X136875565Y-109437518D01*
X136828826Y-109484417D01*
X136736673Y-109519236D01*
X136648560Y-109488563D01*
X136585960Y-109426756D01*
X136541863Y-109377954D01*
X136511948Y-109381024D01*
X136476971Y-109423200D01*
X136434301Y-109498576D01*
X136427189Y-109555501D01*
X136454063Y-109575600D01*
X136495270Y-109595775D01*
X136568487Y-109647645D01*
X136626600Y-109694133D01*
X136712357Y-109759407D01*
X136781043Y-109800412D01*
X136807604Y-109808054D01*
X136870667Y-109798295D01*
X136924345Y-109788580D01*
X137014673Y-109745576D01*
X137112052Y-109661295D01*
X137196873Y-109556726D01*
X137249525Y-109452858D01*
X137254124Y-109435623D01*
X137262168Y-109348664D01*
X137230502Y-109289250D01*
X137202703Y-109264288D01*
X137105941Y-109212809D01*
X137009804Y-109203346D01*
X136930730Y-109230858D01*
X136930730Y-109230858D01*
G37*
X136930730Y-109230858D02*
X136885160Y-109290304D01*
X136884931Y-109361734D01*
X136875565Y-109437518D01*
X136828826Y-109484417D01*
X136736673Y-109519236D01*
X136648560Y-109488563D01*
X136585960Y-109426756D01*
X136541863Y-109377954D01*
X136511948Y-109381024D01*
X136476971Y-109423200D01*
X136434301Y-109498576D01*
X136427189Y-109555501D01*
X136454063Y-109575600D01*
X136495270Y-109595775D01*
X136568487Y-109647645D01*
X136626600Y-109694133D01*
X136712357Y-109759407D01*
X136781043Y-109800412D01*
X136807604Y-109808054D01*
X136870667Y-109798295D01*
X136924345Y-109788580D01*
X137014673Y-109745576D01*
X137112052Y-109661295D01*
X137196873Y-109556726D01*
X137249525Y-109452858D01*
X137254124Y-109435623D01*
X137262168Y-109348664D01*
X137230502Y-109289250D01*
X137202703Y-109264288D01*
X137105941Y-109212809D01*
X137009804Y-109203346D01*
X136930730Y-109230858D01*
G36*
X139245703Y-105969753D02*
G01*
X139130294Y-106018109D01*
X138990876Y-106113699D01*
X138821029Y-106258092D01*
X138614329Y-106452854D01*
X138608719Y-106458300D01*
X138369274Y-106684708D01*
X138134924Y-106894735D01*
X137911906Y-107083576D01*
X137706456Y-107246424D01*
X137524810Y-107378476D01*
X137373204Y-107474925D01*
X137257875Y-107530966D01*
X137200240Y-107543600D01*
X137141772Y-107529940D01*
X137042705Y-107493921D01*
X136923266Y-107442985D01*
X136909157Y-107436516D01*
X136743381Y-107373066D01*
X136569644Y-107336049D01*
X136373214Y-107324390D01*
X136139361Y-107337011D01*
X135915400Y-107363870D01*
X135750136Y-107385811D01*
X135550351Y-107410520D01*
X135348913Y-107433988D01*
X135263734Y-107443371D01*
X134899935Y-107482501D01*
X134688001Y-107383248D01*
X134544131Y-107300587D01*
X134367593Y-107173958D01*
X134169244Y-107011293D01*
X134120467Y-106968542D01*
X133865547Y-106751055D01*
X133649541Y-106586033D01*
X133470028Y-106472287D01*
X133324583Y-106408627D01*
X133210784Y-106393862D01*
X133126206Y-106426803D01*
X133092144Y-106463561D01*
X133047499Y-106572417D01*
X133034662Y-106728171D01*
X133053976Y-106933447D01*
X133105783Y-107190870D01*
X133190429Y-107503063D01*
X133255564Y-107712933D01*
X133350308Y-108022449D01*
X133417593Y-108283794D01*
X133458745Y-108510108D01*
X133475093Y-108714533D01*
X133467963Y-108910207D01*
X133438682Y-109110273D01*
X133410038Y-109242069D01*
X133381295Y-109371476D01*
X133364502Y-109480419D01*
X133358727Y-109589934D01*
X133363044Y-109721058D01*
X133376520Y-109894831D01*
X133379646Y-109930014D01*
X133395468Y-110142146D01*
X133399376Y-110314457D01*
X133390909Y-110473883D01*
X133369607Y-110647360D01*
X133367077Y-110664366D01*
X133342156Y-110875993D01*
X133337742Y-111065808D01*
X133355746Y-111255189D01*
X133398082Y-111465512D01*
X133459040Y-111692001D01*
X133511652Y-111906496D01*
X133537349Y-112106433D01*
X133534509Y-112304852D01*
X133501507Y-112514791D01*
X133436720Y-112749289D01*
X133338524Y-113021387D01*
X133273411Y-113182815D01*
X133201579Y-113356630D01*
X133126171Y-113539693D01*
X133059024Y-113703249D01*
X133032396Y-113768358D01*
X132942814Y-114016626D01*
X132860730Y-114297018D01*
X132796323Y-114573980D01*
X132785666Y-114630200D01*
X132762731Y-114757200D01*
X141233318Y-114757200D01*
X141114346Y-114520952D01*
X140996221Y-114280565D01*
X140896069Y-114065047D01*
X140818798Y-113885377D01*
X140769315Y-113752532D01*
X140765764Y-113741200D01*
X140745199Y-113675087D01*
X140707590Y-113555426D01*
X140656412Y-113393219D01*
X140595139Y-113199468D01*
X140527243Y-112985177D01*
X140493113Y-112877599D01*
X140415931Y-112632563D01*
X140357187Y-112439539D01*
X140314095Y-112286216D01*
X140283871Y-112160284D01*
X140263728Y-112049432D01*
X140250882Y-111941351D01*
X140242548Y-111823728D01*
X140239074Y-111754730D01*
X140227913Y-111567196D01*
X140213704Y-111455623D01*
X137428243Y-111455623D01*
X137426306Y-111495994D01*
X137415722Y-111508647D01*
X137342283Y-111549717D01*
X137226350Y-111579906D01*
X137088838Y-111597719D01*
X136950663Y-111601660D01*
X136832741Y-111590231D01*
X136755988Y-111561937D01*
X136749484Y-111556312D01*
X136716738Y-111500718D01*
X136726593Y-111424462D01*
X136732498Y-111406627D01*
X136762185Y-111354687D01*
X134459134Y-111354687D01*
X134441449Y-111417786D01*
X134397807Y-111509044D01*
X134342328Y-111602018D01*
X134292462Y-111666866D01*
X134211301Y-111730710D01*
X134140762Y-111732156D01*
X134069667Y-111675333D01*
X134004593Y-111624095D01*
X133954351Y-111607473D01*
X133876011Y-111587281D01*
X133788944Y-111538020D01*
X133716207Y-111476191D01*
X133680854Y-111418298D01*
X133680200Y-111411233D01*
X133708259Y-111340447D01*
X133782224Y-111255801D01*
X133886781Y-111172413D01*
X133974852Y-111120399D01*
X134080480Y-111078448D01*
X134154556Y-111069030D01*
X134188364Y-111087497D01*
X134173184Y-111129201D01*
X134102158Y-111188282D01*
X134017442Y-111261740D01*
X133969155Y-111339855D01*
X133968253Y-111404391D01*
X133970238Y-111407913D01*
X133999990Y-111407245D01*
X134045760Y-111355494D01*
X134055973Y-111339480D01*
X134118361Y-111261212D01*
X134172142Y-111233024D01*
X134205584Y-111255137D01*
X134206956Y-111327772D01*
X134205134Y-111336666D01*
X134200500Y-111414858D01*
X134228182Y-111436460D01*
X134281294Y-111397339D01*
X134289800Y-111387466D01*
X134339080Y-111353890D01*
X134401914Y-111336269D01*
X134449651Y-111340152D01*
X134459134Y-111354687D01*
X136762185Y-111354687D01*
X136785316Y-111314220D01*
X136857900Y-111286368D01*
X136952017Y-111322577D01*
X136975196Y-111338652D01*
X137053119Y-111384419D01*
X137102468Y-111380961D01*
X137110818Y-111373995D01*
X137189031Y-111339286D01*
X137288996Y-111352558D01*
X137376382Y-111401996D01*
X137428243Y-111455623D01*
X140213704Y-111455623D01*
X140209909Y-111425831D01*
X140177911Y-111309071D01*
X140124765Y-111195351D01*
X140043320Y-111063108D01*
X139976994Y-110964583D01*
X139952966Y-110925127D01*
X138226354Y-110925127D01*
X138225732Y-111034679D01*
X138216035Y-111075340D01*
X138179582Y-111163113D01*
X138119444Y-111207150D01*
X138073496Y-111220183D01*
X137972242Y-111255920D01*
X137863717Y-111312993D01*
X137846405Y-111324276D01*
X137715441Y-111388097D01*
X137595399Y-111399828D01*
X137500326Y-111358401D01*
X137492619Y-111351180D01*
X137446230Y-111276436D01*
X136088033Y-111276436D01*
X136069534Y-111302411D01*
X136063452Y-111302800D01*
X136030933Y-111281157D01*
X135961584Y-111223163D01*
X135867587Y-111139217D01*
X135815548Y-111091133D01*
X135595759Y-110903090D01*
X135392268Y-110763416D01*
X135210801Y-110675457D01*
X135057084Y-110642555D01*
X135047134Y-110642400D01*
X134919352Y-110660310D01*
X134803230Y-110719575D01*
X134686237Y-110828494D01*
X134594600Y-110942088D01*
X134476067Y-111101019D01*
X134465276Y-110996312D01*
X134480092Y-110872424D01*
X134554002Y-110757536D01*
X134690919Y-110646028D01*
X134723772Y-110625133D01*
X134861811Y-110539188D01*
X134950307Y-110479546D01*
X134997760Y-110437603D01*
X135012674Y-110404755D01*
X135003550Y-110372399D01*
X134992378Y-110353311D01*
X134947604Y-110301004D01*
X134919320Y-110286800D01*
X134856005Y-110258483D01*
X134797417Y-110191395D01*
X134765293Y-110112327D01*
X134763934Y-110095284D01*
X134787607Y-110033546D01*
X134849854Y-110015269D01*
X134937518Y-110040193D01*
X135028691Y-110100533D01*
X135105915Y-110155631D01*
X135168786Y-110184120D01*
X135177786Y-110185200D01*
X135232553Y-110162180D01*
X135300372Y-110106196D01*
X135305800Y-110100533D01*
X135373256Y-110051554D01*
X135454416Y-110021144D01*
X135527826Y-110013398D01*
X135572032Y-110032414D01*
X135576733Y-110048802D01*
X135550466Y-110082653D01*
X135481513Y-110140092D01*
X135384648Y-110208844D01*
X135382000Y-110210600D01*
X135284328Y-110281554D01*
X135214443Y-110344386D01*
X135187273Y-110385646D01*
X135187267Y-110386019D01*
X135214739Y-110427256D01*
X135285277Y-110483120D01*
X135346522Y-110520555D01*
X135454103Y-110590216D01*
X135572769Y-110683708D01*
X135694850Y-110792661D01*
X135812676Y-110908706D01*
X135918578Y-111023475D01*
X136004884Y-111128599D01*
X136063926Y-111215708D01*
X136088033Y-111276436D01*
X137446230Y-111276436D01*
X137441665Y-111269082D01*
X137458179Y-111192302D01*
X137542093Y-111120983D01*
X137620802Y-111082516D01*
X137719432Y-111022406D01*
X137796848Y-110943537D01*
X137805882Y-110929333D01*
X137862610Y-110847403D01*
X137925346Y-110811638D01*
X138018759Y-110811468D01*
X138065273Y-110818186D01*
X138174114Y-110855087D01*
X138226354Y-110925127D01*
X139952966Y-110925127D01*
X139856721Y-110767086D01*
X139732103Y-110524842D01*
X139613425Y-110259238D01*
X139515965Y-110005931D01*
X139464307Y-109829692D01*
X139431479Y-109639206D01*
X139413000Y-109408320D01*
X139412773Y-109403660D01*
X139407714Y-109184833D01*
X139415698Y-108971884D01*
X139438600Y-108750501D01*
X139478295Y-108506369D01*
X139536655Y-108225176D01*
X139605084Y-107935126D01*
X139688861Y-107561441D01*
X139742598Y-107240718D01*
X139765626Y-106972487D01*
X139704545Y-106972487D01*
X139683291Y-107207155D01*
X139638722Y-107480730D01*
X139570419Y-107800680D01*
X139477960Y-108174471D01*
X139452471Y-108271733D01*
X139399180Y-108480992D01*
X139362807Y-108648358D01*
X139339978Y-108796559D01*
X139327320Y-108948326D01*
X139321460Y-109126387D01*
X139320940Y-109158072D01*
X139313034Y-109379493D01*
X139295547Y-109537097D01*
X139266410Y-109634384D01*
X139223557Y-109674853D01*
X139164918Y-109662001D01*
X139088427Y-109599330D01*
X139070862Y-109581186D01*
X138987814Y-109492271D01*
X138958543Y-109460570D01*
X138286067Y-109460570D01*
X138264605Y-109512798D01*
X138211896Y-109584071D01*
X138201400Y-109595733D01*
X138130794Y-109713043D01*
X138116734Y-109796111D01*
X138084980Y-109929244D01*
X137997154Y-110040392D01*
X137864413Y-110115841D01*
X137853737Y-110119428D01*
X137738389Y-110163562D01*
X137674693Y-110215261D01*
X137647747Y-110294675D01*
X137642600Y-110404912D01*
X137629417Y-110550267D01*
X137586391Y-110652827D01*
X137574867Y-110668574D01*
X137527607Y-110738663D01*
X137507156Y-110788828D01*
X137507133Y-110789754D01*
X137482103Y-110833530D01*
X137433174Y-110876628D01*
X137336242Y-110911130D01*
X137216872Y-110890634D01*
X137068336Y-110813962D01*
X137065682Y-110812270D01*
X136988333Y-110767681D01*
X136866461Y-110702992D01*
X136716844Y-110626903D01*
X136557682Y-110548803D01*
X136307429Y-110419471D01*
X136112202Y-110296261D01*
X135961070Y-110169888D01*
X135843100Y-110031070D01*
X135747360Y-109870521D01*
X135738845Y-109853437D01*
X135627533Y-109626839D01*
X135634850Y-109121061D01*
X135645442Y-108797369D01*
X135666952Y-108539886D01*
X135677484Y-108477726D01*
X135595224Y-108477726D01*
X135593233Y-108536918D01*
X135546755Y-108604368D01*
X135488639Y-108659666D01*
X135411115Y-108723677D01*
X135365234Y-108745850D01*
X135334376Y-108731870D01*
X135321958Y-108716666D01*
X135280097Y-108678528D01*
X135256959Y-108704577D01*
X135252418Y-108795186D01*
X135260245Y-108897319D01*
X135258661Y-109084716D01*
X135206352Y-109243047D01*
X135096842Y-109387046D01*
X135010820Y-109464707D01*
X134907658Y-109566695D01*
X134815070Y-109686925D01*
X134781011Y-109744648D01*
X134691441Y-109897666D01*
X134580991Y-110051595D01*
X134464087Y-110188742D01*
X134355155Y-110291415D01*
X134308519Y-110324100D01*
X134220587Y-110399936D01*
X134147955Y-110501940D01*
X134139469Y-110519279D01*
X134079358Y-110628492D01*
X134008209Y-110727140D01*
X133997679Y-110738989D01*
X133923815Y-110798354D01*
X133851115Y-110826482D01*
X133797945Y-110819480D01*
X133781800Y-110784754D01*
X133774694Y-110750804D01*
X133748280Y-110702287D01*
X133694912Y-110627710D01*
X133606943Y-110515583D01*
X133582280Y-110484848D01*
X133551678Y-110443011D01*
X133529498Y-110397653D01*
X133514007Y-110337023D01*
X133503470Y-110249371D01*
X133496154Y-110122945D01*
X133490325Y-109945996D01*
X133487642Y-109843476D01*
X133483340Y-109628180D01*
X133483634Y-109464924D01*
X133489655Y-109338107D01*
X133502531Y-109232123D01*
X133523394Y-109131370D01*
X133545167Y-109049123D01*
X133579671Y-108919556D01*
X133596842Y-108822938D01*
X133597631Y-108732444D01*
X133582991Y-108621251D01*
X133564059Y-108516668D01*
X133529284Y-108353729D01*
X133486820Y-108186522D01*
X133445414Y-108049283D01*
X133442438Y-108040704D01*
X133394290Y-107894156D01*
X133340888Y-107715804D01*
X133285710Y-107519170D01*
X133232235Y-107317778D01*
X133183940Y-107125151D01*
X133144303Y-106954813D01*
X133116804Y-106820286D01*
X133104919Y-106735093D01*
X133104698Y-106727582D01*
X133128671Y-106603555D01*
X133196027Y-106525493D01*
X133299093Y-106500562D01*
X133342119Y-106505703D01*
X133473533Y-106550043D01*
X133624939Y-106636395D01*
X133802134Y-106768771D01*
X134010914Y-106951180D01*
X134081920Y-107017533D01*
X134274579Y-107191121D01*
X134439572Y-107319379D01*
X134589266Y-107411615D01*
X134637989Y-107436004D01*
X134747812Y-107492035D01*
X134828543Y-107541115D01*
X134864863Y-107573779D01*
X134865534Y-107576643D01*
X134833881Y-107626463D01*
X134745735Y-107682648D01*
X134611311Y-107739834D01*
X134467935Y-107785324D01*
X134349493Y-107821624D01*
X134256124Y-107856571D01*
X134208499Y-107882287D01*
X134187928Y-107936554D01*
X134181881Y-108025566D01*
X134182784Y-108043523D01*
X134170459Y-108166695D01*
X134107189Y-108284192D01*
X134105281Y-108286779D01*
X134050007Y-108383515D01*
X134020426Y-108478382D01*
X134018867Y-108498446D01*
X134033445Y-108563457D01*
X134081499Y-108591553D01*
X134169510Y-108582658D01*
X134303956Y-108536693D01*
X134403889Y-108493860D01*
X134529622Y-108432208D01*
X134608131Y-108377112D01*
X134656735Y-108314577D01*
X134676251Y-108273727D01*
X134729615Y-108185374D01*
X134797398Y-108156408D01*
X134889934Y-108184836D01*
X134950200Y-108220933D01*
X135057225Y-108277041D01*
X135136222Y-108276793D01*
X135201101Y-108217019D01*
X135236811Y-108155662D01*
X135302395Y-108060581D01*
X135376796Y-108001771D01*
X135444940Y-107988678D01*
X135475802Y-108005902D01*
X135497123Y-108053085D01*
X135522621Y-108144053D01*
X135539218Y-108220933D01*
X135562958Y-108338570D01*
X135585062Y-108437917D01*
X135595224Y-108477726D01*
X135677484Y-108477726D01*
X135699473Y-108347961D01*
X135743100Y-108220939D01*
X135769705Y-108180883D01*
X135836068Y-108140843D01*
X135895094Y-108163392D01*
X135925826Y-108223276D01*
X135969391Y-108277298D01*
X136057279Y-108282484D01*
X136186792Y-108238751D01*
X136201857Y-108231718D01*
X136281828Y-108197390D01*
X136332255Y-108196994D01*
X136384137Y-108234092D01*
X136406985Y-108255286D01*
X136476000Y-108305351D01*
X136561404Y-108330271D01*
X136684234Y-108337634D01*
X136875778Y-108339466D01*
X136989830Y-108534314D01*
X137121112Y-108707281D01*
X137275534Y-108816753D01*
X137453657Y-108863096D01*
X137497318Y-108864862D01*
X137638094Y-108872506D01*
X137728203Y-108900135D01*
X137783797Y-108956643D01*
X137818307Y-109041650D01*
X137855078Y-109132172D01*
X137912225Y-109191476D01*
X138012413Y-109243020D01*
X138013231Y-109243371D01*
X138163322Y-109319729D01*
X138255871Y-109394285D01*
X138286067Y-109460570D01*
X138958543Y-109460570D01*
X138895276Y-109392054D01*
X138874635Y-109369519D01*
X138781505Y-109276446D01*
X138682823Y-109190367D01*
X138661466Y-109173846D01*
X138594219Y-109116857D01*
X138568045Y-109062191D01*
X138571342Y-108979578D01*
X138575595Y-108949792D01*
X138572016Y-108757426D01*
X138539119Y-108621523D01*
X138492983Y-108488228D01*
X138445787Y-108398577D01*
X138380660Y-108330353D01*
X138280728Y-108261339D01*
X138252200Y-108243724D01*
X138138202Y-108168257D01*
X138008395Y-108074107D01*
X137930467Y-108013395D01*
X137804609Y-107922361D01*
X137664032Y-107836449D01*
X137583333Y-107795031D01*
X137487071Y-107743578D01*
X137422505Y-107694770D01*
X137405533Y-107667216D01*
X137431191Y-107627496D01*
X137499842Y-107560551D01*
X137599006Y-107478018D01*
X137651067Y-107438292D01*
X138041833Y-107134136D01*
X138369169Y-106849255D01*
X138632570Y-106584101D01*
X138706826Y-106499286D01*
X138890774Y-106295975D01*
X139049934Y-106153447D01*
X139187584Y-106070840D01*
X139307001Y-106047291D01*
X139411462Y-106081938D01*
X139504245Y-106173918D01*
X139564810Y-106273520D01*
X139632617Y-106427241D01*
X139678788Y-106589998D01*
X139702904Y-106769257D01*
X139704545Y-106972487D01*
X139765626Y-106972487D01*
X139766253Y-106965189D01*
X139759782Y-106727088D01*
X139723143Y-106518646D01*
X139656293Y-106332098D01*
X139595674Y-106217316D01*
X139512088Y-106092413D01*
X139430179Y-106008473D01*
X139343524Y-105967064D01*
X139245703Y-105969753D01*
X139245703Y-105969753D01*
G37*
X139245703Y-105969753D02*
X139130294Y-106018109D01*
X138990876Y-106113699D01*
X138821029Y-106258092D01*
X138614329Y-106452854D01*
X138608719Y-106458300D01*
X138369274Y-106684708D01*
X138134924Y-106894735D01*
X137911906Y-107083576D01*
X137706456Y-107246424D01*
X137524810Y-107378476D01*
X137373204Y-107474925D01*
X137257875Y-107530966D01*
X137200240Y-107543600D01*
X137141772Y-107529940D01*
X137042705Y-107493921D01*
X136923266Y-107442985D01*
X136909157Y-107436516D01*
X136743381Y-107373066D01*
X136569644Y-107336049D01*
X136373214Y-107324390D01*
X136139361Y-107337011D01*
X135915400Y-107363870D01*
X135750136Y-107385811D01*
X135550351Y-107410520D01*
X135348913Y-107433988D01*
X135263734Y-107443371D01*
X134899935Y-107482501D01*
X134688001Y-107383248D01*
X134544131Y-107300587D01*
X134367593Y-107173958D01*
X134169244Y-107011293D01*
X134120467Y-106968542D01*
X133865547Y-106751055D01*
X133649541Y-106586033D01*
X133470028Y-106472287D01*
X133324583Y-106408627D01*
X133210784Y-106393862D01*
X133126206Y-106426803D01*
X133092144Y-106463561D01*
X133047499Y-106572417D01*
X133034662Y-106728171D01*
X133053976Y-106933447D01*
X133105783Y-107190870D01*
X133190429Y-107503063D01*
X133255564Y-107712933D01*
X133350308Y-108022449D01*
X133417593Y-108283794D01*
X133458745Y-108510108D01*
X133475093Y-108714533D01*
X133467963Y-108910207D01*
X133438682Y-109110273D01*
X133410038Y-109242069D01*
X133381295Y-109371476D01*
X133364502Y-109480419D01*
X133358727Y-109589934D01*
X133363044Y-109721058D01*
X133376520Y-109894831D01*
X133379646Y-109930014D01*
X133395468Y-110142146D01*
X133399376Y-110314457D01*
X133390909Y-110473883D01*
X133369607Y-110647360D01*
X133367077Y-110664366D01*
X133342156Y-110875993D01*
X133337742Y-111065808D01*
X133355746Y-111255189D01*
X133398082Y-111465512D01*
X133459040Y-111692001D01*
X133511652Y-111906496D01*
X133537349Y-112106433D01*
X133534509Y-112304852D01*
X133501507Y-112514791D01*
X133436720Y-112749289D01*
X133338524Y-113021387D01*
X133273411Y-113182815D01*
X133201579Y-113356630D01*
X133126171Y-113539693D01*
X133059024Y-113703249D01*
X133032396Y-113768358D01*
X132942814Y-114016626D01*
X132860730Y-114297018D01*
X132796323Y-114573980D01*
X132785666Y-114630200D01*
X132762731Y-114757200D01*
X141233318Y-114757200D01*
X141114346Y-114520952D01*
X140996221Y-114280565D01*
X140896069Y-114065047D01*
X140818798Y-113885377D01*
X140769315Y-113752532D01*
X140765764Y-113741200D01*
X140745199Y-113675087D01*
X140707590Y-113555426D01*
X140656412Y-113393219D01*
X140595139Y-113199468D01*
X140527243Y-112985177D01*
X140493113Y-112877599D01*
X140415931Y-112632563D01*
X140357187Y-112439539D01*
X140314095Y-112286216D01*
X140283871Y-112160284D01*
X140263728Y-112049432D01*
X140250882Y-111941351D01*
X140242548Y-111823728D01*
X140239074Y-111754730D01*
X140227913Y-111567196D01*
X140213704Y-111455623D01*
X137428243Y-111455623D01*
X137426306Y-111495994D01*
X137415722Y-111508647D01*
X137342283Y-111549717D01*
X137226350Y-111579906D01*
X137088838Y-111597719D01*
X136950663Y-111601660D01*
X136832741Y-111590231D01*
X136755988Y-111561937D01*
X136749484Y-111556312D01*
X136716738Y-111500718D01*
X136726593Y-111424462D01*
X136732498Y-111406627D01*
X136762185Y-111354687D01*
X134459134Y-111354687D01*
X134441449Y-111417786D01*
X134397807Y-111509044D01*
X134342328Y-111602018D01*
X134292462Y-111666866D01*
X134211301Y-111730710D01*
X134140762Y-111732156D01*
X134069667Y-111675333D01*
X134004593Y-111624095D01*
X133954351Y-111607473D01*
X133876011Y-111587281D01*
X133788944Y-111538020D01*
X133716207Y-111476191D01*
X133680854Y-111418298D01*
X133680200Y-111411233D01*
X133708259Y-111340447D01*
X133782224Y-111255801D01*
X133886781Y-111172413D01*
X133974852Y-111120399D01*
X134080480Y-111078448D01*
X134154556Y-111069030D01*
X134188364Y-111087497D01*
X134173184Y-111129201D01*
X134102158Y-111188282D01*
X134017442Y-111261740D01*
X133969155Y-111339855D01*
X133968253Y-111404391D01*
X133970238Y-111407913D01*
X133999990Y-111407245D01*
X134045760Y-111355494D01*
X134055973Y-111339480D01*
X134118361Y-111261212D01*
X134172142Y-111233024D01*
X134205584Y-111255137D01*
X134206956Y-111327772D01*
X134205134Y-111336666D01*
X134200500Y-111414858D01*
X134228182Y-111436460D01*
X134281294Y-111397339D01*
X134289800Y-111387466D01*
X134339080Y-111353890D01*
X134401914Y-111336269D01*
X134449651Y-111340152D01*
X134459134Y-111354687D01*
X136762185Y-111354687D01*
X136785316Y-111314220D01*
X136857900Y-111286368D01*
X136952017Y-111322577D01*
X136975196Y-111338652D01*
X137053119Y-111384419D01*
X137102468Y-111380961D01*
X137110818Y-111373995D01*
X137189031Y-111339286D01*
X137288996Y-111352558D01*
X137376382Y-111401996D01*
X137428243Y-111455623D01*
X140213704Y-111455623D01*
X140209909Y-111425831D01*
X140177911Y-111309071D01*
X140124765Y-111195351D01*
X140043320Y-111063108D01*
X139976994Y-110964583D01*
X139952966Y-110925127D01*
X138226354Y-110925127D01*
X138225732Y-111034679D01*
X138216035Y-111075340D01*
X138179582Y-111163113D01*
X138119444Y-111207150D01*
X138073496Y-111220183D01*
X137972242Y-111255920D01*
X137863717Y-111312993D01*
X137846405Y-111324276D01*
X137715441Y-111388097D01*
X137595399Y-111399828D01*
X137500326Y-111358401D01*
X137492619Y-111351180D01*
X137446230Y-111276436D01*
X136088033Y-111276436D01*
X136069534Y-111302411D01*
X136063452Y-111302800D01*
X136030933Y-111281157D01*
X135961584Y-111223163D01*
X135867587Y-111139217D01*
X135815548Y-111091133D01*
X135595759Y-110903090D01*
X135392268Y-110763416D01*
X135210801Y-110675457D01*
X135057084Y-110642555D01*
X135047134Y-110642400D01*
X134919352Y-110660310D01*
X134803230Y-110719575D01*
X134686237Y-110828494D01*
X134594600Y-110942088D01*
X134476067Y-111101019D01*
X134465276Y-110996312D01*
X134480092Y-110872424D01*
X134554002Y-110757536D01*
X134690919Y-110646028D01*
X134723772Y-110625133D01*
X134861811Y-110539188D01*
X134950307Y-110479546D01*
X134997760Y-110437603D01*
X135012674Y-110404755D01*
X135003550Y-110372399D01*
X134992378Y-110353311D01*
X134947604Y-110301004D01*
X134919320Y-110286800D01*
X134856005Y-110258483D01*
X134797417Y-110191395D01*
X134765293Y-110112327D01*
X134763934Y-110095284D01*
X134787607Y-110033546D01*
X134849854Y-110015269D01*
X134937518Y-110040193D01*
X135028691Y-110100533D01*
X135105915Y-110155631D01*
X135168786Y-110184120D01*
X135177786Y-110185200D01*
X135232553Y-110162180D01*
X135300372Y-110106196D01*
X135305800Y-110100533D01*
X135373256Y-110051554D01*
X135454416Y-110021144D01*
X135527826Y-110013398D01*
X135572032Y-110032414D01*
X135576733Y-110048802D01*
X135550466Y-110082653D01*
X135481513Y-110140092D01*
X135384648Y-110208844D01*
X135382000Y-110210600D01*
X135284328Y-110281554D01*
X135214443Y-110344386D01*
X135187273Y-110385646D01*
X135187267Y-110386019D01*
X135214739Y-110427256D01*
X135285277Y-110483120D01*
X135346522Y-110520555D01*
X135454103Y-110590216D01*
X135572769Y-110683708D01*
X135694850Y-110792661D01*
X135812676Y-110908706D01*
X135918578Y-111023475D01*
X136004884Y-111128599D01*
X136063926Y-111215708D01*
X136088033Y-111276436D01*
X137446230Y-111276436D01*
X137441665Y-111269082D01*
X137458179Y-111192302D01*
X137542093Y-111120983D01*
X137620802Y-111082516D01*
X137719432Y-111022406D01*
X137796848Y-110943537D01*
X137805882Y-110929333D01*
X137862610Y-110847403D01*
X137925346Y-110811638D01*
X138018759Y-110811468D01*
X138065273Y-110818186D01*
X138174114Y-110855087D01*
X138226354Y-110925127D01*
X139952966Y-110925127D01*
X139856721Y-110767086D01*
X139732103Y-110524842D01*
X139613425Y-110259238D01*
X139515965Y-110005931D01*
X139464307Y-109829692D01*
X139431479Y-109639206D01*
X139413000Y-109408320D01*
X139412773Y-109403660D01*
X139407714Y-109184833D01*
X139415698Y-108971884D01*
X139438600Y-108750501D01*
X139478295Y-108506369D01*
X139536655Y-108225176D01*
X139605084Y-107935126D01*
X139688861Y-107561441D01*
X139742598Y-107240718D01*
X139765626Y-106972487D01*
X139704545Y-106972487D01*
X139683291Y-107207155D01*
X139638722Y-107480730D01*
X139570419Y-107800680D01*
X139477960Y-108174471D01*
X139452471Y-108271733D01*
X139399180Y-108480992D01*
X139362807Y-108648358D01*
X139339978Y-108796559D01*
X139327320Y-108948326D01*
X139321460Y-109126387D01*
X139320940Y-109158072D01*
X139313034Y-109379493D01*
X139295547Y-109537097D01*
X139266410Y-109634384D01*
X139223557Y-109674853D01*
X139164918Y-109662001D01*
X139088427Y-109599330D01*
X139070862Y-109581186D01*
X138987814Y-109492271D01*
X138958543Y-109460570D01*
X138286067Y-109460570D01*
X138264605Y-109512798D01*
X138211896Y-109584071D01*
X138201400Y-109595733D01*
X138130794Y-109713043D01*
X138116734Y-109796111D01*
X138084980Y-109929244D01*
X137997154Y-110040392D01*
X137864413Y-110115841D01*
X137853737Y-110119428D01*
X137738389Y-110163562D01*
X137674693Y-110215261D01*
X137647747Y-110294675D01*
X137642600Y-110404912D01*
X137629417Y-110550267D01*
X137586391Y-110652827D01*
X137574867Y-110668574D01*
X137527607Y-110738663D01*
X137507156Y-110788828D01*
X137507133Y-110789754D01*
X137482103Y-110833530D01*
X137433174Y-110876628D01*
X137336242Y-110911130D01*
X137216872Y-110890634D01*
X137068336Y-110813962D01*
X137065682Y-110812270D01*
X136988333Y-110767681D01*
X136866461Y-110702992D01*
X136716844Y-110626903D01*
X136557682Y-110548803D01*
X136307429Y-110419471D01*
X136112202Y-110296261D01*
X135961070Y-110169888D01*
X135843100Y-110031070D01*
X135747360Y-109870521D01*
X135738845Y-109853437D01*
X135627533Y-109626839D01*
X135634850Y-109121061D01*
X135645442Y-108797369D01*
X135666952Y-108539886D01*
X135677484Y-108477726D01*
X135595224Y-108477726D01*
X135593233Y-108536918D01*
X135546755Y-108604368D01*
X135488639Y-108659666D01*
X135411115Y-108723677D01*
X135365234Y-108745850D01*
X135334376Y-108731870D01*
X135321958Y-108716666D01*
X135280097Y-108678528D01*
X135256959Y-108704577D01*
X135252418Y-108795186D01*
X135260245Y-108897319D01*
X135258661Y-109084716D01*
X135206352Y-109243047D01*
X135096842Y-109387046D01*
X135010820Y-109464707D01*
X134907658Y-109566695D01*
X134815070Y-109686925D01*
X134781011Y-109744648D01*
X134691441Y-109897666D01*
X134580991Y-110051595D01*
X134464087Y-110188742D01*
X134355155Y-110291415D01*
X134308519Y-110324100D01*
X134220587Y-110399936D01*
X134147955Y-110501940D01*
X134139469Y-110519279D01*
X134079358Y-110628492D01*
X134008209Y-110727140D01*
X133997679Y-110738989D01*
X133923815Y-110798354D01*
X133851115Y-110826482D01*
X133797945Y-110819480D01*
X133781800Y-110784754D01*
X133774694Y-110750804D01*
X133748280Y-110702287D01*
X133694912Y-110627710D01*
X133606943Y-110515583D01*
X133582280Y-110484848D01*
X133551678Y-110443011D01*
X133529498Y-110397653D01*
X133514007Y-110337023D01*
X133503470Y-110249371D01*
X133496154Y-110122945D01*
X133490325Y-109945996D01*
X133487642Y-109843476D01*
X133483340Y-109628180D01*
X133483634Y-109464924D01*
X133489655Y-109338107D01*
X133502531Y-109232123D01*
X133523394Y-109131370D01*
X133545167Y-109049123D01*
X133579671Y-108919556D01*
X133596842Y-108822938D01*
X133597631Y-108732444D01*
X133582991Y-108621251D01*
X133564059Y-108516668D01*
X133529284Y-108353729D01*
X133486820Y-108186522D01*
X133445414Y-108049283D01*
X133442438Y-108040704D01*
X133394290Y-107894156D01*
X133340888Y-107715804D01*
X133285710Y-107519170D01*
X133232235Y-107317778D01*
X133183940Y-107125151D01*
X133144303Y-106954813D01*
X133116804Y-106820286D01*
X133104919Y-106735093D01*
X133104698Y-106727582D01*
X133128671Y-106603555D01*
X133196027Y-106525493D01*
X133299093Y-106500562D01*
X133342119Y-106505703D01*
X133473533Y-106550043D01*
X133624939Y-106636395D01*
X133802134Y-106768771D01*
X134010914Y-106951180D01*
X134081920Y-107017533D01*
X134274579Y-107191121D01*
X134439572Y-107319379D01*
X134589266Y-107411615D01*
X134637989Y-107436004D01*
X134747812Y-107492035D01*
X134828543Y-107541115D01*
X134864863Y-107573779D01*
X134865534Y-107576643D01*
X134833881Y-107626463D01*
X134745735Y-107682648D01*
X134611311Y-107739834D01*
X134467935Y-107785324D01*
X134349493Y-107821624D01*
X134256124Y-107856571D01*
X134208499Y-107882287D01*
X134187928Y-107936554D01*
X134181881Y-108025566D01*
X134182784Y-108043523D01*
X134170459Y-108166695D01*
X134107189Y-108284192D01*
X134105281Y-108286779D01*
X134050007Y-108383515D01*
X134020426Y-108478382D01*
X134018867Y-108498446D01*
X134033445Y-108563457D01*
X134081499Y-108591553D01*
X134169510Y-108582658D01*
X134303956Y-108536693D01*
X134403889Y-108493860D01*
X134529622Y-108432208D01*
X134608131Y-108377112D01*
X134656735Y-108314577D01*
X134676251Y-108273727D01*
X134729615Y-108185374D01*
X134797398Y-108156408D01*
X134889934Y-108184836D01*
X134950200Y-108220933D01*
X135057225Y-108277041D01*
X135136222Y-108276793D01*
X135201101Y-108217019D01*
X135236811Y-108155662D01*
X135302395Y-108060581D01*
X135376796Y-108001771D01*
X135444940Y-107988678D01*
X135475802Y-108005902D01*
X135497123Y-108053085D01*
X135522621Y-108144053D01*
X135539218Y-108220933D01*
X135562958Y-108338570D01*
X135585062Y-108437917D01*
X135595224Y-108477726D01*
X135677484Y-108477726D01*
X135699473Y-108347961D01*
X135743100Y-108220939D01*
X135769705Y-108180883D01*
X135836068Y-108140843D01*
X135895094Y-108163392D01*
X135925826Y-108223276D01*
X135969391Y-108277298D01*
X136057279Y-108282484D01*
X136186792Y-108238751D01*
X136201857Y-108231718D01*
X136281828Y-108197390D01*
X136332255Y-108196994D01*
X136384137Y-108234092D01*
X136406985Y-108255286D01*
X136476000Y-108305351D01*
X136561404Y-108330271D01*
X136684234Y-108337634D01*
X136875778Y-108339466D01*
X136989830Y-108534314D01*
X137121112Y-108707281D01*
X137275534Y-108816753D01*
X137453657Y-108863096D01*
X137497318Y-108864862D01*
X137638094Y-108872506D01*
X137728203Y-108900135D01*
X137783797Y-108956643D01*
X137818307Y-109041650D01*
X137855078Y-109132172D01*
X137912225Y-109191476D01*
X138012413Y-109243020D01*
X138013231Y-109243371D01*
X138163322Y-109319729D01*
X138255871Y-109394285D01*
X138286067Y-109460570D01*
X138958543Y-109460570D01*
X138895276Y-109392054D01*
X138874635Y-109369519D01*
X138781505Y-109276446D01*
X138682823Y-109190367D01*
X138661466Y-109173846D01*
X138594219Y-109116857D01*
X138568045Y-109062191D01*
X138571342Y-108979578D01*
X138575595Y-108949792D01*
X138572016Y-108757426D01*
X138539119Y-108621523D01*
X138492983Y-108488228D01*
X138445787Y-108398577D01*
X138380660Y-108330353D01*
X138280728Y-108261339D01*
X138252200Y-108243724D01*
X138138202Y-108168257D01*
X138008395Y-108074107D01*
X137930467Y-108013395D01*
X137804609Y-107922361D01*
X137664032Y-107836449D01*
X137583333Y-107795031D01*
X137487071Y-107743578D01*
X137422505Y-107694770D01*
X137405533Y-107667216D01*
X137431191Y-107627496D01*
X137499842Y-107560551D01*
X137599006Y-107478018D01*
X137651067Y-107438292D01*
X138041833Y-107134136D01*
X138369169Y-106849255D01*
X138632570Y-106584101D01*
X138706826Y-106499286D01*
X138890774Y-106295975D01*
X139049934Y-106153447D01*
X139187584Y-106070840D01*
X139307001Y-106047291D01*
X139411462Y-106081938D01*
X139504245Y-106173918D01*
X139564810Y-106273520D01*
X139632617Y-106427241D01*
X139678788Y-106589998D01*
X139702904Y-106769257D01*
X139704545Y-106972487D01*
X139765626Y-106972487D01*
X139766253Y-106965189D01*
X139759782Y-106727088D01*
X139723143Y-106518646D01*
X139656293Y-106332098D01*
X139595674Y-106217316D01*
X139512088Y-106092413D01*
X139430179Y-106008473D01*
X139343524Y-105967064D01*
X139245703Y-105969753D01*
M02*
