<?xml version="1.0" encoding="UTF-8" standalone="no"?>
<!-- Created with Inkscape (http://www.inkscape.org/) -->

<svg
   xmlns:dc="http://purl.org/dc/elements/1.1/"
   xmlns:cc="http://creativecommons.org/ns#"
   xmlns:rdf="http://www.w3.org/1999/02/22-rdf-syntax-ns#"
   xmlns:svg="http://www.w3.org/2000/svg"
   xmlns="http://www.w3.org/2000/svg"
   xmlns:sodipodi="http://sodipodi.sourceforge.net/DTD/sodipodi-0.dtd"
   xmlns:inkscape="http://www.inkscape.org/namespaces/inkscape"
   width="210mm"
   height="297mm"
   viewBox="0 0 210 297"
   version="1.1"
   id="svg8"
   inkscape:version="0.92.3 (2405546, 2018-03-11)"
   sodipodi:docname="grumpy.svg">
  <defs
     id="defs2" />
  <sodipodi:namedview
     id="base"
     pagecolor="#ffffff"
     bordercolor="#666666"
     borderopacity="1.0"
     inkscape:pageopacity="0.0"
     inkscape:pageshadow="2"
     inkscape:zoom="0.35"
     inkscape:cx="-85.714286"
     inkscape:cy="560"
     inkscape:document-units="mm"
     inkscape:current-layer="layer1"
     showgrid="false"
     inkscape:window-width="1920"
     inkscape:window-height="1012"
     inkscape:window-x="1920"
     inkscape:window-y="0"
     inkscape:window-maximized="1" />
  <metadata
     id="metadata5">
    <rdf:RDF>
      <cc:Work
         rdf:about="">
        <dc:format>image/svg+xml</dc:format>
        <dc:type
           rdf:resource="http://purl.org/dc/dcmitype/StillImage" />
        <dc:title></dc:title>
      </cc:Work>
    </rdf:RDF>
  </metadata>
  <g
     inkscape:label="Layer 1"
     inkscape:groupmode="layer"
     id="layer1">
    <path
       style="fill:#000000;stroke-width:0.35277778"
       d="m 87.787982,242.41549 c -4.130312,-0.63394 -8.489396,-2.65856 -11.977176,-5.56292 -3.493015,-2.90871 -6.838767,-8.4047 -7.99115,-13.12689 -0.709507,-2.90738 -0.726984,-8.59522 -0.03542,-11.52829 1.855393,-7.86914 7.596713,-14.51108 14.992555,-17.34436 9.308966,-3.5662 18.971079,-1.54414 25.933709,5.42733 3.21743,3.22151 5.06523,6.16738 6.42224,10.23869 0.8293,2.48808 0.93952,3.36521 0.9309,7.40834 -0.009,3.99175 -0.13043,4.95186 -0.94068,7.40833 -1.33247,4.03968 -3.18725,6.99936 -6.41701,10.23963 -4.38697,4.40126 -9.558333,6.69124 -15.874992,7.02976 -1.552223,0.0832 -3.821561,-0.002 -5.042973,-0.18962 z m 10.294179,-10.6754 c 3.203269,-1.58314 5.834159,-4.27857 7.361199,-7.54179 0.90848,-1.94139 1.13956,-2.93636 1.25819,-5.41754 0.23677,-4.95229 -1.09761,-8.4407 -4.54889,-11.89199 -4.374703,-4.3747 -11.172011,-5.55468 -16.72033,-2.90257 -4.593682,2.19578 -7.84781,6.5287 -8.719083,11.60957 -1.231731,7.1829 3.379643,14.6424 10.507514,16.99729 1.616633,0.53411 2.777642,0.6573 5.190624,0.55076 2.701682,-0.11929 3.443376,-0.30288 5.670776,-1.40373 z m -67.952644,-13.82379 -0.09301,-24.17637 3.690007,0.0993 3.690006,0.0993 9.138801,13.22917 c 5.02634,7.27604 9.398337,13.66473 9.715549,14.19708 0.317211,0.53235 0.695811,0.96891 0.841331,0.97014 0.145521,10e-4 0.264584,-6.42715 0.264584,-14.28527 v -14.2875 h 4.586111 4.586111 v 24.16528 24.16527 H 62.906128 59.263246 L 51.6635,231.06836 c -4.179859,-6.06337 -8.612749,-12.50288 -9.850867,-14.31003 l -2.251123,-3.28573 -0.09215,14.31003 -0.09215,14.31003 h -4.57734 -4.577341 z m 87.572273,0.0111 v -24.16528 h 10.37551 c 11.32537,0 12.70379,0.19079 16.20574,2.24307 2.95305,1.7306 6.16067,6.15615 6.80805,9.39304 0.46241,2.31201 0.65375,0.79072 0.65375,-5.19758 v -6.26215 l 15.25764,-0.0919 15.25764,-0.0919 v 4.58461 4.58461 l -10.49514,0.0934 -10.49514,0.0934 -0.0978,5.02174 -0.0978,5.02174 10.3284,0.0935 10.32841,0.0935 v 4.58612 4.58611 l -10.32841,0.0935 -10.3284,0.0935 0.0978,5.02174 0.0978,5.02174 10.49514,0.0935 10.49514,0.0934 v 4.58086 4.58086 h -15.35343 -15.35343 l 0.0233,-13.9778 c 0.0128,-7.68779 -0.0416,-14.04269 -0.12087,-14.12198 -0.0793,-0.0793 -0.23262,0.40079 -0.34071,1.06688 -0.60417,3.72307 -4.28505,8.32419 -8.07999,10.10006 -3.04598,1.42539 -5.17246,1.7634 -11.09387,1.7634 h -5.06713 v 7.58472 7.58472 h -4.58611 -4.58611 z m 20.99028,-0.95157 c 2.39189,-1.28574 3.70747,-3.6089 3.69642,-6.52744 -0.009,-2.46771 -0.86983,-4.53295 -2.43869,-5.85305 -1.58792,-1.33615 -2.36275,-1.48047 -7.96051,-1.48267 l -4.93889,-0.002 -0.0961,6.86878 c -0.0528,3.77782 -0.0115,7.08914 0.0918,7.3585 0.28349,0.73875 10.16978,0.43131 11.64591,-0.36217 z m 48.81307,-24.34529 c -0.38911,-0.30844 -0.64521,-1.26861 -0.79167,-2.96819 -0.48056,-5.57629 -2.74631,-12.18853 -8.1027,-23.64652 -5.26785,-11.26856 -6.80206,-15.88838 -7.79468,-23.4713 -0.29675,-2.26696 -1.24876,-6.63259 -2.11559,-9.70139 -0.86683,-3.0688 -2.05002,-7.56401 -2.62931,-9.98936 -4.42043,-18.5072 -5.05842,-21.68831 -5.50696,-27.458525 l -0.25599,-3.293248 -2.16503,-1.58943 c -2.10772,-1.547354 -3.26953,-2.996639 -2.89196,-3.607548 0.10247,-0.165802 -0.29062,-0.396847 -0.87353,-0.513429 -0.58291,-0.116579 -1.84185,-0.943444 -2.79764,-1.837475 l -1.7378,-1.625512 0.0989,-2.176029 c 0.0544,-1.196812 0.28402,-2.521966 0.51031,-2.944781 0.53309,-0.996089 0.51871,-1.167916 -0.0977,-1.167916 -0.28004,0 -0.75629,0.352823 -1.05834,0.784052 -0.68407,0.976651 -0.68799,0.580693 -0.0162,-1.633869 0.70514,-2.324436 0.68768,-4.304069 -0.0404,-4.583469 -0.32303,-0.123956 -0.47913,-0.442867 -0.36385,-0.7433 0.11106,-0.289405 0.0482,-0.526193 -0.13978,-0.526193 -0.18794,0 -0.34171,0.15875 -0.34171,0.352778 0,0.194028 -0.15875,0.352778 -0.35277,0.352778 -0.19403,0 -0.35278,-0.225944 -0.35278,-0.502098 0,-0.276158 -0.41663,-0.997236 -0.92584,-1.602401 -0.50921,-0.605166 -0.8664,-1.152779 -0.79375,-1.216925 0.0727,-0.06414 0.66627,-0.388447 1.31915,-0.720676 1.62036,-0.824544 0.96063,-1.41134 -1.54603,-1.375106 -1.61296,0.02332 -1.93409,-0.07391 -1.93409,-0.585612 0,-1.339673 -1.53241,-1.706238 -3.70416,-0.886068 -0.47268,0.178506 -0.35624,-0.02748 0.35277,-0.624043 1.13495,-0.954959 1.05275,-1.611549 -0.12298,-0.98232 -1.20044,0.642458 -1.69288,0.408474 -0.75896,-0.360627 l 0.88194,-0.726299 -1.33082,0.184079 c -0.7876,0.108942 -1.2471,0.04861 -1.1257,-0.1478 0.11281,-0.182537 0.51324,-0.331882 0.88985,-0.331882 0.3766,0 0.68473,-0.15875 0.68473,-0.352778 0,-0.475425 -0.35248,-0.446052 -2.11667,0.176389 -0.8249,0.291041 -1.63861,0.529166 -1.80824,0.529166 -0.52159,0 -0.34301,-0.670965 0.36774,-1.381714 0.79852,-0.798523 0.61455,-1.08773 -0.69193,-1.08773 -0.59885,0 -1.15237,-0.294986 -1.48032,-0.788907 -0.45246,-0.681443 -0.60249,-0.723614 -1.10136,-0.30958 -0.31765,0.263628 -0.57755,0.320573 -0.57755,0.126545 0,-0.194028 0.23812,-0.550404 0.52916,-0.791947 0.29105,-0.241544 0.52917,-0.603084 0.52917,-0.803427 0,-0.200342 -0.3175,-0.07693 -0.70556,0.27426 -0.73076,0.661335 -1.01072,0.269896 -0.30891,-0.43192 0.29367,-0.293666 -0.0655,-0.533873 -1.3834,-0.925251 -0.97901,-0.290739 -2.09818,-0.698885 -2.48703,-0.906988 -0.42816,-0.229147 -1.02409,-0.261077 -1.51099,-0.08096 -1.2753,0.471766 -3.34828,-0.18705 -6.98509,-2.21994 -1.85678,-1.037894 -4.24909,-2.162917 -5.31624,-2.500051 -1.06715,-0.337134 -2.10862,-0.745177 -2.31438,-0.906763 -0.85574,-0.672048 -7.47688,-1.453517 -13.817141,-1.630785 -9.924524,-0.277482 -19.166205,0.764445 -30.227475,3.407911 -4.083043,0.975781 -4.613229,1.032961 -5.14187,0.554549 -0.913567,-0.826769 -1.161672,-0.640698 -0.913021,0.684738 0.198318,1.057124 0.104218,1.299603 -0.711852,1.834313 -0.911553,0.597275 -0.95964,0.592375 -1.568732,-0.159819 -0.796753,-0.983951 -0.918457,-0.973107 -1.189285,0.105965 -0.256567,1.022237 -0.784373,1.1095 -1.91612,0.316794 -0.961962,-0.673784 -1.375808,-0.452594 -0.601647,0.321564 0.912056,0.912058 0.609256,1.131588 -0.335979,0.243587 -0.999923,-0.939379 -1.143745,-0.471227 -0.335436,1.091868 l 0.546509,1.056834 -1.364696,-0.696218 c -1.654132,-0.843876 -3.671529,-2.428946 -8.547766,-6.71599 -3.59173,-3.157743 -7.364648,-5.706553 -9.172223,-6.196332 -0.485069,-0.131433 0.149931,0.408582 1.411112,1.200034 2.99445,1.879163 7.29937,5.315304 10.884183,8.687639 2.837538,2.669353 3.462164,3.525174 2.256789,3.092104 -0.467475,-0.167957 -0.409721,0.006 0.237883,0.716626 0.846776,0.929143 0.847749,0.938435 0.09828,0.938435 -0.550119,0 -0.848487,0.313295 -1.091903,1.146528 -0.31227,1.068927 -0.351553,1.092806 -0.580398,0.352777 -0.260371,-0.841974 -0.877297,-1.096158 -0.856224,-0.352777 0.0069,0.242534 0.239376,0.837847 0.516666,1.322916 0.898141,1.571132 0.565395,1.462677 -1.331158,-0.433878 -1.572909,-1.572905 -6.818237,-5.844716 -8.282036,-6.74491 -1.192536,-0.733375 -0.11562,0.336778 2.998611,2.97978 4.202501,3.566601 5.942569,5.377632 6.832615,7.111263 0.610362,1.188865 0.628187,1.425205 0.173767,2.303953 -0.356911,0.690189 -0.40314,1.163645 -0.156631,1.604134 0.408703,0.73031 -0.08388,1.494779 -1.189198,1.845592 -0.588966,0.186933 -0.679893,0.436316 -0.519489,1.424774 0.106942,0.659 0.06473,1.198182 -0.09381,1.198182 -0.158539,0 -0.267621,0.872839 -0.242404,1.939646 0.04564,1.93105 0.307492,2.441346 0.711922,1.387419 0.137991,-0.359597 0.451466,-0.477612 0.894853,-0.336889 0.984375,0.312431 4.783799,-2.684335 6.085522,-4.799909 0.81595,-1.326088 1.357746,-1.797925 2.435173,-2.120727 1.407941,-0.42183 2.032989,-0.277703 3.558964,0.820649 0.491402,0.353696 0.824255,0.209469 2.029489,-0.879386 1.359901,-1.228588 3.203536,-1.775136 3.203536,-0.949692 0,0.544502 2.716226,0.41789 5.092135,-0.23736 1.80896,-0.498891 2.420447,-0.894344 3.954869,-2.557639 l 1.815062,-1.967502 0.253789,1.328879 c 0.444101,2.325356 -0.927679,6.253597 -2.791245,7.993031 -0.847245,0.790812 -0.920048,1.096458 -0.96634,4.056945 -0.03493,2.234576 -0.115203,2.775455 -0.265719,1.790591 -0.271187,-1.774444 -0.742551,-0.873584 -0.742551,1.419144 0,0.845806 -0.152686,1.63219 -0.339298,1.747523 -0.216948,0.134084 -0.215777,0.534589 0.0032,1.110682 0.188404,0.495544 0.375479,2.434612 0.41572,4.30904 0.06584,3.066853 -0.02187,3.602309 -0.876169,5.348334 -1.017913,2.080443 -1.383196,2.697162 -2.677834,4.521087 -0.456643,0.643333 -0.739105,1.260856 -0.627691,1.372271 0.407522,0.407521 -2.018855,2.969718 -4.968243,5.246342 -3.401593,2.62569 -6.229222,4.40052 -9.67743,6.07427 -1.288938,0.62565 -2.873597,1.73126 -3.521465,2.45692 l -1.177862,1.31939 -4.597123,-2.29306 c -2.528419,-1.26118 -6.141103,-2.84868 -8.028188,-3.52777 l -3.431063,-1.23473 -0.01295,-1.23472 c -0.03493,-3.329206 1.194353,-14.090442 1.80695,-15.818196 0.367294,-1.035914 0.667808,-2.246274 0.667808,-2.689694 0,-1.752505 3.19856,-8.717574 5.705336,-12.42373 1.058494,-1.564937 1.245306,-2.546072 0.606426,-3.184952 -0.215058,-0.215061 -0.457047,-1.236381 -0.537752,-2.269603 -0.207168,-2.652258 -0.605608,-3.942218 -2.849334,-9.224773 -1.088589,-2.562938 -1.99782,-5.150521 -2.020512,-5.750184 -0.02434,-0.643195 -0.458843,-1.583517 -1.059573,-2.293056 -0.560074,-0.661518 -1.449677,-2.155259 -1.976896,-3.319426 -1.197831,-2.644959 -3.445407,-9.821601 -3.732967,-11.919584 -0.250777,-1.829618 0.292181,-3.767768 1.314762,-4.693191 0.691871,-0.626134 0.772784,-0.626289 2.544358,-0.0049 3.063706,1.074682 5.686795,2.900096 10.567985,7.354286 4.598542,4.196267 8.098437,6.799773 9.671785,7.194658 0.441472,0.110803 1.357797,0.974147 2.036278,1.918542 0.678481,0.944396 1.865715,2.135396 2.638301,2.646668 1.389542,0.919556 1.424837,0.923716 3.271167,0.385612 4.316077,-1.257902 15.563903,-3.427218 21.622025,-4.17014 5.703217,-0.699399 19.489219,-0.598975 23.988889,0.174748 4.84198,0.832583 9.99009,2.206524 13.67243,3.648936 l 3.08909,1.210032 1.8498,-0.987007 c 2.52464,-1.347092 7.71705,-6.620494 12.78976,-12.989258 8.70784,-10.932651 14.33533,-15.707002 20.4251,-17.328641 2.69425,-0.717445 4.4235,-0.60256 6.49914,0.431777 2.89463,1.442454 4.65451,4.27768 6.1087,9.841308 0.76608,2.930951 0.82918,3.852916 0.82085,11.994445 -0.0105,10.306593 -0.51297,13.972319 -2.46604,17.991668 -0.72398,1.489929 -1.84436,5.053133 -2.82456,8.983155 -0.89354,3.58254 -2.07375,7.670352 -2.62268,9.084028 -0.54893,1.413676 -0.93792,2.570318 -0.86441,2.570318 0.29826,0 2.01086,-2.877584 2.45706,-4.128446 l 0.47784,-1.33961 0.0155,1.238698 c 0.009,0.681285 -0.38434,3.172016 -0.87302,5.534957 -0.71201,3.442825 -0.8208,4.597591 -0.54767,5.813192 0.26695,1.188131 0.23612,1.575531 -0.14226,1.787282 -1.09784,0.61438 -0.99492,2.295465 0.30266,4.944022 1.68353,3.436299 1.94933,4.906811 1.89637,10.491579 -0.0447,4.71746 0.69302,10.08056 2.37788,17.28611 0.2949,1.26118 1.39862,6.68364 2.45272,12.0499 2.30438,11.73135 4.18141,17.65393 9.20632,29.04871 5.70179,12.92973 8.10924,21.53374 7.84917,28.05229 -0.10054,2.52018 -0.14514,2.64404 -0.98756,2.74253 -0.48524,0.0567 -1.14109,-0.10202 -1.45744,-0.35278 z M 60.292104,94.667249 c 2.757287,-1.181911 4.05546,-3.809182 2.944097,-5.958322 -1.230581,-2.37968 -5.615857,-4.660717 -8.960193,-4.660717 -1.708159,0 -4.014382,1.172334 -4.747431,2.41329 -0.910477,1.541314 -1.173637,4.638679 -0.504116,5.933387 0.520452,1.006444 2.257641,2.563524 3.413438,3.059536 0.991111,0.425341 6.256676,-0.102393 7.854205,-0.787174 z m -6.519475,-2.064177 c -1.604738,-1.839708 -1.839357,-4.879485 -0.526928,-6.826998 1.594015,-2.365358 3.372847,-0.926913 3.686545,2.98111 0.240665,2.998177 -0.304315,4.463249 -1.660248,4.463249 -0.528472,0 -1.203188,-0.277812 -1.499369,-0.617361 z M 163.5622,80.961405 c -3.6e-4,-0.145521 -0.47664,-0.297879 -1.05834,-0.338575 -0.58169,-0.0407 -1.05763,0.07837 -1.05763,0.264583 0,0.186217 0.47625,0.338575 1.05834,0.338575 0.58208,0 1.05802,-0.119062 1.05763,-0.264583 z m 0.68318,-6.571464 c 0.39668,-0.741204 0.30043,-1.151742 -0.8271,-3.527778 -0.70181,-1.478922 -1.43263,-2.688954 -1.62403,-2.688954 -0.50973,0 -0.46735,0.133428 0.91329,2.875005 0.89978,1.786735 1.15256,2.613347 0.88194,2.88397 -0.4486,0.448599 -0.50497,1.296581 -0.0862,1.296581 0.16124,0 0.49518,-0.377468 0.74209,-0.838824 z m -8.7693,-8.541146 c -0.66461,-0.559234 -1.0854,-1.246215 -1.0854,-1.772024 0,-0.830283 0.0286,-0.83996 0.8646,-0.292209 0.47553,0.31158 1.11542,0.513676 1.42199,0.449104 0.374,-0.07878 -0.0846,-0.617503 -1.39377,-1.637426 -3.682,-2.868411 -1.76766,-2.463133 3.03858,0.643287 1.19636,0.773247 2.34903,1.399046 2.56149,1.390664 0.21245,-0.0084 -0.70338,-1.04026 -2.03519,-2.293055 -1.3318,-1.252799 -2.30454,-2.277816 -2.16166,-2.277816 0.14289,0 0.0621,-0.238157 -0.17944,-0.529241 -0.39031,-0.470295 -0.29909,-0.470686 0.81903,-0.0035 1.55574,0.650028 2.49681,0.396631 1.9968,-0.537662 -0.68922,-1.287808 -0.4396,-1.858666 0.71201,-1.628345 0.58209,0.116417 1.05834,0.06822 1.05834,-0.107093 0,-0.17532 0.24569,-0.564458 0.54599,-0.864757 0.49281,-0.492809 0.49281,-0.702652 0,-2.154195 -0.65014,-1.914954 -0.66241,-2.049905 -0.15802,-1.738175 0.27268,0.168525 0.26899,0.01746 -0.0124,-0.508347 -0.48647,-0.908988 -0.15306,-0.961962 0.82304,-0.130766 0.39874,0.339548 0.21251,0.01619 -0.41385,-0.718579 -0.62636,-0.734767 -1.51826,-2.084142 -1.982,-2.998611 -0.94335,-1.860245 -2.32266,-3.33898 -2.34226,-2.511098 -0.0154,0.651221 -1.39937,-0.990587 -1.39937,-1.660076 0,-0.641587 0.50747,-0.624657 1.05511,0.0352 0.23977,0.288905 0.5905,0.429759 0.7794,0.313009 0.18891,-0.116749 -0.14658,-0.717872 -0.74552,-1.335827 -0.59895,-0.617954 -1.08899,-1.314433 -1.08899,-1.547731 0,-0.233297 -0.15875,-0.424177 -0.35278,-0.424177 -0.19403,0 -0.35278,0.242878 -0.35278,0.539728 0,0.431005 -0.21232,0.382756 -1.05399,-0.239524 -1.23522,-0.913235 -1.697,-0.669556 -1.12213,0.592144 0.33336,0.73164 0.31159,0.932304 -0.11908,1.097567 -0.7453,0.286 -0.65449,0.663015 0.26673,1.107299 0.46116,0.222412 0.57906,0.392816 0.28138,0.406688 -0.28181,0.01313 -1.02212,-0.470187 -1.64514,-1.074042 -0.62302,-0.603855 -1.33668,-1.029946 -1.58591,-0.946868 -0.29238,0.09746 -0.0528,0.507752 0.67525,1.156459 0.62062,0.552975 1.04988,1.083926 0.95392,1.17989 -0.096,0.09596 -0.48998,-0.111038 -0.87558,-0.460006 -0.57383,-0.519305 -0.79837,-0.553766 -1.23689,-0.189827 -0.76346,0.633622 -0.66566,1.031909 0.34805,1.41732 0.90522,0.344165 2.25968,2.617805 1.82089,3.0566 -0.13417,0.134174 -0.71182,-0.101957 -1.28367,-0.524737 -1.23933,-0.916277 -1.42105,-0.943451 -1.42105,-0.212495 0,0.427792 -0.30541,0.529883 -1.32292,0.44222 -0.7276,-0.06269 -1.269,0.02994 -1.20311,0.205841 0.15066,0.402188 -0.90257,1.015345 -1.31075,0.763078 -0.3125,-0.193136 -4.56376,1.353208 -5.04596,1.835406 -0.14863,0.148631 0.33569,0.27024 1.07627,0.27024 0.7668,0 1.59077,0.244258 1.91386,0.567346 0.65308,0.653075 0.44699,0.999288 -0.60438,1.015338 -0.7133,0.01089 -1.96968,0.743672 -1.96968,1.148816 0,0.110169 0.91281,0.303251 2.02847,0.429073 2.93428,0.330923 4.34393,0.885081 1.6757,0.658749 -1.87258,-0.158842 -2.04547,-0.121423 -1.49931,0.324496 0.94957,0.775275 0.75819,0.953085 -1.05833,0.983276 -1.5181,0.02522 -1.58664,0.06045 -0.72883,0.374417 0.62642,0.229277 1.02271,0.691924 1.17099,1.367053 0.19629,0.893688 0.58238,1.158642 3.10721,2.132319 4.20195,1.620443 6.01449,2.616321 6.97533,3.832501 0.46881,0.593397 1.02622,1.080339 1.23868,1.082103 0.21246,0.0018 0.67363,0.3207 1.02481,0.708756 0.35119,0.388055 0.86422,0.705555 1.14008,0.705555 0.28321,0 0.029,-0.397591 -0.58384,-0.913303 z m 2.00659,-14.442076 c -1.00312,-0.932656 -1.16521,-1.225177 -0.67886,-1.225177 0.5933,0 1.73483,0.999074 2.31771,2.028472 0.45877,0.810228 -0.3073,0.434737 -1.63885,-0.803295 z m -3.95966,-3.250045 c -1.31784,-1.421227 -1.16923,-2.209054 0.30965,-1.641556 0.76337,0.292933 0.70983,0.867586 -0.0593,0.636907 -0.50424,-0.151223 -0.48808,-0.08737 0.0882,0.348487 0.38806,0.2935 1.02306,0.773626 1.41111,1.066947 0.69849,0.527967 0.69775,0.533423 -0.0739,0.54453 -0.42871,0.0062 -1.18277,-0.423721 -1.67569,-0.955315 z M 47.146232,53.691317 c 0,-0.407775 -2.440691,-1.539455 -2.719289,-1.260856 -0.346289,0.346288 0.309423,0.922093 1.41374,1.241457 0.621038,0.179599 1.168848,0.340865 1.217355,0.358362 0.04851,0.0175 0.08819,-0.135032 0.08819,-0.338963 z M 161.44623,48.11245 c 0,-0.454944 -1.46341,-2.229528 -1.66903,-2.023916 -0.0976,0.09762 0.1983,0.652817 0.65758,1.233782 0.92118,1.165233 1.01145,1.235751 1.01145,0.790134 z m -15.25545,-0.488547 c -0.17352,-0.528459 -2.03066,-0.81552 -2.03066,-0.313883 0,0.334785 0.69581,0.626123 1.70509,0.713932 0.25871,0.02251 0.40521,-0.157515 0.32557,-0.400049 z m 19.53463,-2.062633 c 0.14081,-0.272253 0.33325,-0.750354 0.42764,-1.062446 0.1038,-0.343209 0.74118,-0.658516 1.61295,-0.797919 l 1.44134,-0.230479 -0.002,-2.377082 c -0.003,-3.298022 -0.57117,-6.441285 -1.35432,-7.490221 -0.36284,-0.48598 -1.247,-1.107127 -1.96481,-1.380327 -1.1725,-0.446256 -1.36579,-0.435129 -1.90238,0.109514 -0.56128,0.5697 -0.55958,0.634228 0.0283,1.070553 0.59465,0.441354 0.59229,0.473016 -0.0476,0.640356 -0.49861,0.130392 -0.6299,0.402527 -0.50624,1.049381 0.0918,0.480335 -0.0852,2.218906 -0.39336,3.863491 -0.73148,3.903636 -0.70517,5.162693 0.13669,6.543431 0.57945,0.95035 0.82456,1.09065 1.48109,0.847784 0.4327,-0.160066 0.90194,-0.513782 1.04275,-0.786036 z m -8.8656,-6.6692 c -0.36291,-0.678099 -2.76523,-1.937576 -3.08528,-1.617531 -0.18762,0.187624 2.70889,2.323669 3.15093,2.323669 0.17175,0 0.1422,-0.317762 -0.0656,-0.706138 z m 2.26322,-1.896309 c -0.5898,-0.932269 -1.32799,-1.639666 -1.80651,-1.731141 -0.44505,-0.08508 -0.80918,-0.09524 -0.80918,-0.0226 0,0.287241 3.31694,3.626286 3.46008,3.483143 0.0841,-0.08412 -0.29585,-0.862352 -0.84439,-1.729402 z M 47.671842,192.05282 c -0.156139,-0.15533 -8.572364,-0.33582 -17.537984,-0.37611 l -6.958208,-0.0313 1.068354,-1.81193 c 0.587595,-0.99657 1.541903,-2.70313 2.120685,-3.79237 0.578782,-1.08923 1.443405,-2.52003 1.921385,-3.17954 1.091404,-1.50591 2.768439,-6.69163 3.477188,-10.75213 0.297634,-1.70518 0.704077,-5.42872 0.903209,-8.27454 0.19913,-2.84582 0.607361,-8.58734 0.907179,-12.75894 0.299818,-4.1716 0.523926,-10.54276 0.498017,-14.15813 -0.03001,-4.18739 0.09345,-6.83604 0.340117,-7.29695 0.212974,-0.39794 0.387226,-1.19067 0.387226,-1.76162 0,-0.9048 0.219278,-1.13241 1.707892,-1.7728 1.841915,-0.79237 5.722628,-1.88801 8.938248,-2.52354 1.873386,-0.37025 2.0626,-0.34414 2.92222,0.40329 0.718581,0.6248 0.873045,1.00902 0.707908,1.76089 -0.426285,1.94086 1.879087,3.90187 5.965787,5.07466 l 2.073999,0.59518 -0.183617,2.02496 c -0.17233,1.90048 -0.126333,2.06002 0.748223,2.59516 0.512512,0.31361 2.20184,1.70841 3.754062,3.09955 3.324768,2.97975 4.571979,3.5982 9.220419,4.57211 7.08962,1.48536 12.782328,1.78467 15.965368,0.8394 2.082761,-0.61851 2.978954,-0.28145 2.788877,1.04891 -0.08767,0.61362 -0.634707,0.86661 -3.280219,1.51702 -4.456229,1.09557 -9.571902,1.63002 -13.699804,1.43125 -3.112957,-0.1499 -3.445983,-0.11078 -2.850014,0.33478 1.356151,1.01392 5.514999,3.34221 8.865697,4.96338 l 3.435533,1.66222 5.47092,0.11425 c 3.120119,0.0651 5.662451,0.27319 5.916659,0.48416 0.542212,0.45 0.59769,3.92654 0.07815,4.89732 -0.243925,0.45577 -0.688975,0.66363 -1.322917,0.61786 -1.102349,-0.0796 -2.092113,0.38838 -3.042429,1.43846 -0.639646,0.7068 -1.969678,1.02658 -1.970003,0.47365 -8.5e-5,-0.14552 -1.151022,-0.28321 -2.557639,-0.30598 -1.406617,-0.0228 -3.225856,-0.29131 -4.042756,-0.59676 -1.099343,-0.41106 -1.786216,-0.46905 -2.643501,-0.22319 -0.637029,0.1827 -2.746784,0.33461 -4.688343,0.33758 -4.316822,0.007 -5.087302,0.34642 -2.781822,1.22689 l 1.669126,0.63745 -0.999067,0.85936 c -0.81952,0.70492 -1.303478,0.83806 -2.692904,0.74083 -1.567805,-0.10972 -1.680041,-0.0637 -1.508457,0.61885 0.219107,0.87153 -1.114809,1.90844 -2.455093,1.90844 -0.55746,0 -0.917378,0.24538 -1.038328,0.70789 -0.116173,0.44425 -0.594095,0.78969 -1.283208,0.92751 -1.724794,0.34496 -1.641746,0.83405 0.141623,0.83405 0.890697,0 2.597189,0.32937 3.792209,0.73195 2.491028,0.83916 6.886667,3.55658 7.233144,4.47158 0.12856,0.33952 0.448628,0.83464 0.71126,1.10027 0.262629,0.26563 0.402936,0.55754 0.311789,0.64869 -0.381963,0.38196 -3.189108,0.80154 -7.643534,1.14247 -6.990595,0.53503 -8.823312,0.76206 -8.633318,1.06948 0.09377,0.15172 1.720708,0.38717 3.615424,0.52324 4.04422,0.29042 6.491418,0.82189 6.362831,1.38184 -0.09224,0.4017 1.286267,1.98326 1.728636,1.98326 0.130242,0 0.520721,-0.25694 0.867727,-0.57098 0.759157,-0.68703 2.423245,-0.39511 2.423245,0.42508 0,0.37185 0.209335,0.47978 0.65575,0.33809 0.388416,-0.12328 0.849814,0.0257 1.131775,0.36545 0.404548,0.48745 0.957273,0.5375 3.680989,0.3333 2.86996,-0.21517 3.294289,-0.16796 4.059509,0.45168 l 0.854548,0.69197 -1.186007,0.72125 c -0.652304,0.39669 -2.281477,0.98971 -3.620389,1.31783 -2.289546,0.56108 -2.400893,0.63358 -1.871479,1.21858 0.376371,0.41588 0.486103,0.928 0.331138,1.54543 l -0.231768,0.92343 -4.283283,0.0309 c -16.786695,0.12117 -24.642399,0.12869 -24.747951,0.0237 z m 20.371535,-29.76044 c -0.159318,-0.60923 -0.381371,-0.65878 -1.983412,-0.44254 -1.524967,0.20583 -3.042335,0.68962 -3.037389,0.96842 7.06e-4,0.0417 1.171088,0.0948 2.600773,0.11797 2.411078,0.0391 2.586433,-0.008 2.420028,-0.64385 z m 47.961473,-18.65963 c -1.41839,-0.16669 -3.00589,-0.5276 -3.52778,-0.802 -0.52189,-0.27441 -2.13952,-0.93652 -3.59473,-1.47135 -6.06529,-2.22918 -8.51113,-4.05251 -11.288885,-8.4157 -9.06272,-14.23537 -9.927276,-15.2619 -13.61886,-16.17044 -7.305759,-1.79801 -10.810589,-1.90972 -15.200298,-0.48447 -3.728614,1.21061 -5.891685,2.91356 -8.002535,6.30028 -2.031936,3.26011 -2.253325,4.29851 -1.414057,6.63244 0.635286,1.76667 0.635092,1.82483 -0.0077,2.29488 -1.522109,1.11299 -2.678748,-0.90332 -2.678748,-4.6697 0,-3.55572 1.590118,-7.26807 4.203534,-9.81374 2.589495,-2.52238 4.876998,-4.0535 6.058871,-4.05545 1.169518,-0.002 5.247668,-2.02881 5.522365,-2.74466 0.297995,-0.77656 -1.329542,-1.95962 -3.723943,-2.70694 -2.380763,-0.74307 -2.854237,-1.08541 -3.440338,-2.4875 -0.997758,-2.38687 0.589047,-4.69611 3.885448,-5.654395 2.335781,-0.679031 4.833948,-0.374312 7.842765,0.956635 1.597364,0.70658 5.404076,3.93377 5.404076,4.58137 0,0.17068 -0.407677,0.46533 -0.905951,0.65477 -1.364742,0.51888 -4.738493,3.56553 -4.738493,4.27908 0,0.77954 0.635688,1.12279 4.114771,2.22184 3.151329,0.99551 6.374843,2.81416 8.353235,4.71274 1.408818,1.35199 7.279097,9.7426 7.298768,10.43241 0.0062,0.21638 0.244298,0.70157 0.529166,1.07821 0.284872,0.37663 0.517949,1.20477 0.517949,1.84032 0,0.85124 0.326626,1.48216 1.240313,2.39585 1.770377,1.77038 3.185867,2.39375 5.871947,2.58593 3.21114,0.22976 5.31087,-0.74454 6.38957,-2.96483 0.41243,-0.8489 0.88151,-1.54345 1.04241,-1.54345 0.52304,0 4.24364,1.99088 8.12956,4.3501 3.52393,2.13945 6.13712,3.20573 8.99657,3.67096 0.6353,0.10336 1.24065,0.32636 1.34522,0.49556 0.32689,0.52891 -1.2456,2.37818 -2.78795,3.27867 -2.03507,1.18817 -7.39254,1.74249 -11.81625,1.22258 z m 11.92749,-6.44911 c -3.53599,-1.07152 -4.58345,-1.55986 -8.13044,-3.79057 -1.65835,-1.04294 -3.99991,-2.362 -5.20348,-2.93125 -1.20356,-0.56925 -2.1883,-1.24923 -2.1883,-1.51106 0,-0.26184 0.57222,-1.04829 1.27161,-1.74768 l 1.27161,-1.2716 2.56464,0.21678 c 2.8213,0.23849 7.56337,1.61614 9.10954,2.64648 1.65254,1.10122 4.47982,6.40206 4.47982,8.39917 0,0.99099 0.13054,0.99141 -3.175,-0.0103 z m -2.19359,-10.11478 c -1.6168,-0.85374 -6.65928,-2.09072 -8.56613,-2.10136 -1.3772,-0.008 -3.15981,-0.66334 -1.94028,-0.71364 0.29105,-0.012 -0.26458,-0.451 -1.23472,-0.97554 l -1.76389,-0.95372 8.43076,-0.0947 c 4.63692,-0.0521 8.48552,-0.04 8.55243,0.0269 0.0669,0.0669 -0.20789,0.80378 -0.61069,1.63747 -0.40279,0.83369 -0.81934,2.05187 -0.92567,2.70706 -0.22395,1.38005 -0.21683,1.37834 -1.94181,0.46747 z m -91.110846,-1.7371 c -0.101503,-0.16423 -0.288981,-2.0054 -0.416619,-4.09147 l -0.232068,-3.79286 4.378646,0.23032 c 7.795723,0.41005 8.895225,0.58104 9.580827,1.48996 0.583851,0.77403 0.583806,0.86784 -9.17e-4,1.89557 -0.445606,0.78322 -0.95548,1.13712 -1.849882,1.28397 -2.479866,0.40716 -8.292741,1.96373 -9.764318,2.61468 -0.831119,0.36764 -1.594174,0.53407 -1.695676,0.36983 z m 77.076666,-4.83146 c 0,-0.32427 0.23719,-0.85168 0.52708,-1.17201 0.47611,-0.52609 0.33107,-0.78702 -1.4993,-2.69744 -1.33707,-1.39554 -3.22645,-2.79995 -5.55417,-4.12851 -8.12195,-4.63566 -10.728536,-6.52669 -13.176437,-9.55925 -2.780435,-3.444524 -3.164709,-4.465763 -2.959872,-7.866125 l 0.175055,-2.905968 -1.279789,-1.416576 c -0.913843,-1.011513 -1.280905,-1.74413 -1.283678,-2.562087 -0.0021,-0.630033 -0.106285,-1.765505 -0.231447,-2.523279 -0.164888,-0.998287 -0.115234,-1.30834 0.180273,-1.125707 0.517578,0.319881 0.512685,0.243516 -0.09475,-1.478135 -0.507506,-1.438427 -1.003551,-12.422559 -0.561005,-12.422559 0.119309,0 0.401662,0.184736 0.627451,0.410524 0.312183,0.312184 0.362405,0.11399 0.209648,-0.827338 -0.395136,-2.434929 1.708111,-4.603958 2.688326,-2.77241 0.203493,0.380231 0.471427,1.431417 0.595411,2.335967 0.126358,0.921883 0.570664,2.046006 1.011029,2.557961 l 0.785608,0.91332 1.189031,-0.90974 c 1.016423,-0.777674 2.549705,-3.161792 3.989585,-6.203449 0.270704,-0.571846 0.68254,-0.791761 1.486464,-0.79375 0.938407,-0.0025 1.174454,0.176251 1.511917,1.143776 0.31963,0.916428 0.46707,1.040328 0.73466,0.617361 0.26008,-0.411113 0.33597,-0.319176 0.34017,0.412119 0.007,1.23953 0.35408,2.101501 0.74792,1.858091 0.1737,-0.10735 0.31582,0.05231 0.31582,0.354803 0,0.302492 0.22594,0.549987 0.50209,0.549987 0.27616,0 0.96371,0.388416 1.52789,0.863142 1.16977,0.984296 3.81853,1.994002 4.52235,1.723919 0.37023,-0.142071 0.40502,0.05305 0.16111,0.903538 -0.27693,0.965567 -0.19771,1.165486 0.72106,1.819702 0.56769,0.40423 1.03216,0.891854 1.03216,1.08361 0,0.191752 -0.50667,0.811414 -1.12593,1.377022 l -1.12593,1.028379 1.5669,0.688732 c 0.8618,0.378799 3.15441,1.120101 5.09468,1.647335 2.93086,0.796406 4.30675,0.965341 8.13151,0.99841 5.20973,0.04504 5.56198,0.173973 7.74125,2.833494 0.71814,0.876392 2.30809,2.226497 3.53321,3.000237 3.85504,2.434679 5.26063,4.46852 4.77089,6.903315 -0.17677,0.878826 -0.40515,1.077077 -1.34648,1.168845 -1.44177,0.140553 -1.66344,0.593054 -2.21611,4.523854 -0.44498,3.16487 -0.43606,3.27031 0.49228,5.82083 1.69107,4.64607 1.20077,6.41392 -3.1578,11.38589 l -2.65596,3.02975 h -9.32209 c -8.47568,0 -9.32208,-0.0535 -9.32208,-0.58958 z m 1.51682,-22.569652 c 2.87067,-1.478431 5.74426,-4.899681 6.64749,-7.914404 0.39096,-1.304921 0.3624,-1.41013 -0.58927,-2.170412 -0.55009,-0.439456 -1.48732,-0.985369 -2.08274,-1.213143 -1.34432,-0.514262 -5.37273,-0.593905 -5.6705,-0.112113 -0.12091,0.195633 0.0461,1.449663 0.37103,2.786733 0.69103,2.84316 0.34556,4.564095 -1.06812,5.320672 -1.32039,0.706653 -2.47025,-0.238245 -3.23247,-2.656282 -0.50934,-1.6158 -0.54485,-2.159911 -0.20049,-3.072212 0.51892,-1.374785 -0.20286,-2.73461 -1.45152,-2.73461 -1.58146,0 -4.47079,4.262251 -4.47079,6.595181 0,1.120345 1.39907,3.476139 2.42398,4.081565 2.60423,1.538358 7.37003,2.095031 9.3234,1.089025 z M 42.560121,116.85192 c -1.261181,-0.14613 -3.761493,-0.28424 -5.55625,-0.30692 l -3.263195,-0.0412 v -5.46806 c 0,-3.00743 0.0845,-5.46805 0.18777,-5.46805 0.650192,0 6.706546,2.54656 10.655356,4.48034 4.432884,2.17084 4.648914,2.32522 4.26299,3.04632 -0.223588,0.41778 -0.588146,1.47488 -0.810129,2.34911 -0.389824,1.53523 -0.451066,1.59095 -1.793546,1.63184 -0.764467,0.0233 -2.421816,-0.0772 -3.682996,-0.22335 z M 76.115924,79.336214 c -0.712682,-0.858732 0.244475,-3.901546 1.56948,-4.989393 0.236326,-0.194028 0.505326,-1.212864 0.597775,-2.264082 0.211515,-2.405105 0.91907,-3.075926 2.423696,-2.297854 0.943959,0.488143 1.01158,0.665346 1.01158,2.650889 0,1.170277 -0.18209,2.850932 -0.404647,3.734781 -0.327113,1.299076 -0.619785,1.696893 -1.52739,2.076115 -0.617506,0.258011 -1.327979,0.716407 -1.578826,1.018657 -0.561823,0.676956 -1.560583,0.710805 -2.091668,0.07089 z M 59.349507,54.591264 c -0.456593,-0.696849 -0.476994,-0.881944 -0.0972,-0.881944 0.264372,0 0.661501,0.396875 0.882516,0.881944 0.221012,0.48507 0.264749,0.881945 0.0972,0.881945 -0.167551,0 -0.564684,-0.396875 -0.882512,-0.881945 z"
       id="path880"
       inkscape:connector-curvature="0" />
  </g>
</svg>
